M48
;Layer_Color=6321
;FILE_FORMAT=4:4
METRIC
;TYPE=PLATED
T1F00S00C0.3048
T2F00S00C0.6000
T3F00S00C0.9144
%
T01
X00019050Y00078740
X00039370
X00059690Y00080010
X00071120
X00100330Y00088900
X00110490
Y00069850
X00100330
X00102870Y00054610
X00109220
X00115570
X00138430Y00040640
X00184150Y00027940
X00181610Y00058420
X00199390
X00205740
X00231140Y00054610
Y00046990
X00238760
Y00054610
X00259080Y00099060
Y00105410
X00208280Y00101600
X00198120
X00184150Y00102616
X00176530
X00161290Y00111760
X00177800Y00128270
X00181110Y00140715
X00184920Y00147065
X00188730Y00153415
X00191770Y00121920
Y00114300
X00219710Y00149635
X00231140Y00184150
X00185420Y00190275
X00162560Y00191770
X00160020Y00203200
X00158242Y00222758
X00166043
X00172502Y00218440
X00162219Y00229710
X00182500Y00231005
Y00238500
Y00246005
X00190000Y00246000
Y00238505
X00197500Y00238500
Y00231005
X00190000Y00231000
X00197500Y00246005
X00190000Y00268224
X00194000Y00275336
X00186000
X00138430Y00245110
X00116840Y00262890
X00102870
X00091440
Y00292100
X00102870
X00116840
X00113030Y00216945
X00107950Y00184150
X00114300Y00179070
X00102870Y00177800
X00101600Y00154940
X00109220Y00152400
X00120650Y00142240
X00130810Y00143510
X00138430Y00161290
Y00168910
X00136405Y00180630
X00130690Y00186435
X00147320Y00187735
X00207780Y00216915
X00266700Y00237490
Y00248920
X00274320Y00165100
X00083820Y00116840
X00067310Y00118110
X00022860Y00132080
X00071120Y00209804
X00019050Y00279400
X00081280Y00027940
X00298450Y00038100
X00325120Y00102870
X00298450Y00251460
X00349250Y00279400
X00250190Y00311150
X00222250Y00355600
X00171450Y00360680
X00109220Y00356645
X00093980Y00316005
X00129540Y00311150
T02
X00057150Y00135890
Y00148590
Y00161290
Y00173990
Y00186690
Y00199390
Y00212090
Y00224790
T03
X00020000Y00151900
Y00177300
Y00202700
Y00228100
X00360000
Y00202700
Y00177300
Y00151900
X00306070Y00306070
X00280670
M30
