G04 Layer_Physical_Order=4*
G04 Layer_Color=16711680*
%FSAX44Y44*%
%MOMM*%
G71*
G01*
G75*
%ADD10C,0.2540*%
%ADD16R,0.9000X1.3500*%
%ADD17R,0.7000X0.9000*%
%ADD18R,0.9000X0.7000*%
%ADD19R,0.9000X1.0000*%
%ADD20R,1.0000X0.9000*%
%ADD28C,0.8890*%
%ADD30C,1.2700*%
%ADD31O,2.7432X1.3716*%
%ADD32O,1.3716X2.7432*%
%ADD33C,1.0000*%
%ADD34R,1.0000X1.0000*%
%ADD35C,0.6350*%
%ADD36C,0.6096*%
%ADD41C,0.6350*%
%ADD43R,1.3000X1.8000*%
%ADD44R,0.6096X1.1684*%
%ADD45R,1.2500X1.3500*%
%ADD46R,0.7700X0.9800*%
%ADD47R,0.9906X0.3048*%
G36*
X00075891Y00227639D02*
Y00226060D01*
X00075891Y00226060D01*
X00076108Y00224970D01*
X00076726Y00224046D01*
X00105736Y00195035D01*
Y00188017D01*
X00104745Y00187355D01*
X00103763Y00185884D01*
X00103418Y00184150D01*
X00103763Y00182416D01*
X00104745Y00180945D01*
X00105736Y00180283D01*
Y00173265D01*
X00104230Y00171759D01*
X00090773D01*
X00090012Y00171607D01*
X00086360Y00175260D01*
X00086360Y00200660D01*
X00074956Y00212064D01*
X00074325Y00213009D01*
X00072854Y00213991D01*
X00071120Y00214336D01*
X00069386Y00213991D01*
X00068441Y00213360D01*
X00063290D01*
X00063056Y00214536D01*
X00061670Y00216610D01*
X00059596Y00217996D01*
X00057150Y00218483D01*
X00054704Y00217996D01*
X00052630Y00216610D01*
X00051244Y00214536D01*
X00051010Y00213360D01*
X00012700Y00213360D01*
X00005080Y00220980D01*
Y00231140D01*
X00012700Y00238760D01*
X00064770Y00238760D01*
X00075891Y00227639D01*
D02*
G37*
G36*
X00163195Y00218547D02*
Y00216102D01*
X00163013Y00215191D01*
X00163230Y00214100D01*
X00163419Y00213818D01*
X00162740Y00212548D01*
X00154313D01*
Y00206452D01*
X00167267D01*
X00167331Y00205209D01*
Y00200791D01*
X00167267Y00199548D01*
X00166061Y00199548D01*
X00154313D01*
Y00194318D01*
X00154313Y00193452D01*
X00154313Y00193452D01*
Y00193048D01*
X00154313D01*
X00154313Y00193048D01*
Y00187714D01*
X00154313Y00186952D01*
Y00186698D01*
Y00186444D01*
X00154313Y00185682D01*
Y00185133D01*
X00153140Y00184647D01*
X00151553Y00186233D01*
X00151852Y00187735D01*
X00151507Y00189469D01*
X00150525Y00190940D01*
X00149054Y00191922D01*
X00147320Y00192267D01*
X00145586Y00191922D01*
X00144115Y00190940D01*
X00143133Y00189469D01*
X00142857Y00188084D01*
X00141636Y00187509D01*
X00140697Y00188449D01*
X00140754Y00189938D01*
X00141049Y00190135D01*
X00146794Y00195880D01*
X00146794Y00195881D01*
X00147412Y00196805D01*
X00147629Y00197895D01*
Y00202271D01*
X00150804D01*
Y00211264D01*
X00151269Y00211574D01*
X00157973Y00218279D01*
X00158242Y00218226D01*
X00159976Y00218571D01*
X00161353Y00219491D01*
X00161740Y00219645D01*
X00162061D01*
X00163195Y00218547D01*
D02*
G37*
G36*
X00333539Y00376140D02*
X00329901Y00374633D01*
X00325451Y00371906D01*
X00321483Y00368517D01*
X00318093Y00364549D01*
X00315367Y00360099D01*
X00313370Y00355277D01*
X00312151Y00350203D01*
X00311742Y00345000D01*
X00312151Y00339797D01*
X00313370Y00334723D01*
X00315367Y00329901D01*
X00318093Y00325451D01*
X00321483Y00321483D01*
X00325451Y00318093D01*
X00329901Y00315367D01*
X00334723Y00313370D01*
X00339797Y00312151D01*
X00345000Y00311742D01*
X00350203Y00312151D01*
X00355277Y00313370D01*
X00360099Y00315367D01*
X00364549Y00318093D01*
X00368517Y00321483D01*
X00371906Y00325451D01*
X00374633Y00329901D01*
X00376140Y00333539D01*
X00377410Y00333287D01*
Y00053049D01*
X00376140Y00052691D01*
X00374048Y00056105D01*
X00370389Y00060389D01*
X00366105Y00064048D01*
X00361301Y00066992D01*
X00356096Y00069148D01*
X00350617Y00070464D01*
X00345000Y00070906D01*
X00339383Y00070464D01*
X00333904Y00069148D01*
X00328699Y00066992D01*
X00323895Y00064048D01*
X00319611Y00060389D01*
X00315952Y00056105D01*
X00313008Y00051301D01*
X00310852Y00046095D01*
X00310260Y00043629D01*
X00308990Y00043780D01*
Y00062230D01*
X00308506Y00063396D01*
X00304696Y00067206D01*
X00303530Y00067690D01*
X00286433D01*
X00276756Y00077366D01*
X00276756Y00077366D01*
X00275970Y00078153D01*
Y00087630D01*
X00275686Y00088313D01*
X00275486Y00088796D01*
X00272946Y00091336D01*
X00272122Y00091678D01*
X00271780Y00091820D01*
X00268020Y00091820D01*
Y00107379D01*
X00276099Y00115458D01*
X00321663D01*
X00323893Y00115902D01*
X00325784Y00117165D01*
X00327810Y00119191D01*
X00328860Y00119735D01*
Y00119735D01*
X00328860Y00119735D01*
X00340940D01*
Y00131047D01*
X00342113Y00131533D01*
X00345876Y00127770D01*
Y00120751D01*
X00348051D01*
Y00117559D01*
X00345876D01*
Y00105511D01*
X00348051D01*
Y00096469D01*
X00343626D01*
Y00083421D01*
X00355674D01*
Y00096469D01*
X00353749D01*
Y00105511D01*
X00355924D01*
Y00117559D01*
X00353749D01*
Y00120751D01*
X00355924D01*
Y00132799D01*
X00348905D01*
X00343799Y00137904D01*
X00342875Y00138522D01*
X00341785Y00138739D01*
X00341785Y00138739D01*
X00326390D01*
X00326390Y00138739D01*
X00325300Y00138522D01*
X00324376Y00137904D01*
X00317590Y00131119D01*
X00184106D01*
X00183981Y00132389D01*
X00184515Y00132495D01*
X00185439Y00133112D01*
X00214353Y00162026D01*
X00271028D01*
X00271115Y00161895D01*
X00272586Y00160913D01*
X00274320Y00160568D01*
X00276054Y00160913D01*
X00277525Y00161895D01*
X00278507Y00163366D01*
X00278852Y00165100D01*
X00278507Y00166834D01*
X00277525Y00168305D01*
X00276054Y00169287D01*
X00274320Y00169632D01*
X00272586Y00169287D01*
X00271115Y00168305D01*
X00270727Y00167724D01*
X00226553D01*
X00225655Y00168622D01*
Y00172474D01*
X00225655Y00173490D01*
Y00173617D01*
Y00173744D01*
X00225655Y00174760D01*
Y00179078D01*
X00225655Y00179329D01*
X00226468Y00179685D01*
X00226925Y00179788D01*
X00228811Y00178527D01*
X00231140Y00178064D01*
X00233469Y00178527D01*
X00235443Y00179847D01*
X00247743Y00192146D01*
X00247743Y00192147D01*
X00248074Y00192641D01*
X00249464D01*
Y00196138D01*
X00249526Y00196450D01*
X00249526Y00196450D01*
Y00199165D01*
X00249464Y00199476D01*
Y00205689D01*
X00237416D01*
Y00199476D01*
X00237354Y00199165D01*
Y00198971D01*
X00226925Y00188542D01*
X00226551Y00188579D01*
X00225655Y00188971D01*
Y00193048D01*
X00225655Y00193048D01*
Y00193048D01*
Y00193452D01*
X00225655D01*
X00225655Y00194318D01*
Y00199548D01*
X00225655Y00199548D01*
Y00199548D01*
Y00199952D01*
X00225655D01*
X00225655Y00200818D01*
Y00206048D01*
X00225655Y00206048D01*
Y00206048D01*
Y00206452D01*
X00225655D01*
X00225655Y00207318D01*
Y00212548D01*
X00212701D01*
Y00212302D01*
X00211847Y00212132D01*
X00210923Y00211514D01*
X00210923Y00211514D01*
X00190860Y00191452D01*
X00189645Y00191820D01*
X00189607Y00192009D01*
X00188625Y00193479D01*
X00188269Y00193717D01*
Y00205522D01*
X00188052Y00206612D01*
X00187434Y00207536D01*
X00187434Y00207536D01*
X00176950Y00218020D01*
X00177034Y00218440D01*
X00176689Y00220174D01*
X00175706Y00221645D01*
X00175350Y00221882D01*
Y00253583D01*
X00175133Y00254674D01*
X00174516Y00255598D01*
X00174347Y00255710D01*
X00174234Y00255879D01*
X00146374Y00283740D01*
Y00289009D01*
X00136326D01*
Y00276961D01*
X00145095D01*
X00169653Y00252403D01*
Y00234301D01*
X00168383Y00233775D01*
X00164996Y00237161D01*
X00163830Y00237644D01*
X00155623D01*
X00153566Y00239701D01*
X00153566Y00239701D01*
X00151026Y00242241D01*
X00150631Y00242405D01*
Y00243780D01*
X00150685Y00243802D01*
X00151026Y00243944D01*
X00153566Y00246484D01*
X00154050Y00247650D01*
Y00255270D01*
X00153708Y00256095D01*
X00153566Y00256436D01*
X00151026Y00258976D01*
X00149860Y00259460D01*
X00139700D01*
X00138875Y00259118D01*
X00138534Y00258976D01*
X00135994Y00256436D01*
X00135510Y00255270D01*
Y00250873D01*
X00133454Y00248817D01*
X00133454Y00248816D01*
X00132184Y00247546D01*
X00131700Y00246380D01*
Y00242570D01*
X00132042Y00241745D01*
X00132184Y00241404D01*
X00134042Y00239545D01*
X00134078Y00238856D01*
X00132924Y00237644D01*
X00118110D01*
X00117285Y00237303D01*
X00116944Y00237161D01*
X00114404Y00234621D01*
X00113920Y00233455D01*
X00112704Y00233584D01*
Y00234289D01*
X00100656D01*
Y00224241D01*
X00103052D01*
X00103831Y00223295D01*
X00104048Y00222205D01*
X00104666Y00221280D01*
X00108581Y00217365D01*
X00108498Y00216945D01*
X00108843Y00215210D01*
X00109825Y00213740D01*
X00111296Y00212758D01*
X00113030Y00212413D01*
X00114764Y00212758D01*
X00116235Y00213740D01*
X00117217Y00215210D01*
X00117515Y00216707D01*
X00117697Y00217052D01*
X00118680Y00217835D01*
X00135207Y00217835D01*
X00135994Y00217048D01*
X00136606Y00216795D01*
X00136803Y00216327D01*
X00136897Y00215392D01*
D01*
X00120985Y00199480D01*
X00096829Y00223637D01*
Y00243930D01*
X00111234Y00258336D01*
X00111234Y00258336D01*
X00111852Y00259260D01*
X00113184Y00259447D01*
X00113269Y00259319D01*
X00114907Y00258224D01*
X00116840Y00257840D01*
X00118773Y00258224D01*
X00120411Y00259319D01*
X00121506Y00260957D01*
X00121890Y00262890D01*
X00121506Y00264823D01*
X00120411Y00266461D01*
X00118773Y00267556D01*
X00116840Y00267940D01*
X00114907Y00267556D01*
X00113339Y00266507D01*
X00112956Y00266588D01*
X00112069Y00266950D01*
Y00288040D01*
X00112956Y00288402D01*
X00113339Y00288483D01*
X00114907Y00287434D01*
X00116840Y00287050D01*
X00118773Y00287434D01*
X00120411Y00288529D01*
X00121506Y00290167D01*
X00121890Y00292100D01*
X00121506Y00294033D01*
X00120411Y00295671D01*
X00118773Y00296766D01*
X00116840Y00297150D01*
X00114907Y00296766D01*
X00113339Y00295717D01*
X00112956Y00295798D01*
X00112069Y00296160D01*
Y00300765D01*
X00112069Y00300765D01*
X00111852Y00301855D01*
X00111234Y00302779D01*
X00111234Y00302779D01*
X00098429Y00315585D01*
X00098512Y00316005D01*
X00098167Y00317739D01*
X00097185Y00319209D01*
X00096784Y00319477D01*
X00097169Y00320747D01*
X00167984D01*
X00175786Y00312946D01*
X00175786Y00312946D01*
X00176710Y00312328D01*
X00177800Y00312111D01*
X00177800Y00312111D01*
X00194310D01*
X00194310Y00312111D01*
X00195400Y00312328D01*
X00196324Y00312946D01*
X00200762Y00317384D01*
X00201380Y00318308D01*
X00201597Y00319398D01*
X00201597Y00319398D01*
Y00321564D01*
X00203320D01*
Y00324811D01*
X00219420D01*
X00220036Y00324195D01*
Y00317176D01*
X00223211D01*
Y00278130D01*
X00223211Y00278130D01*
X00223428Y00277040D01*
X00224046Y00276116D01*
X00262251Y00237910D01*
X00262168Y00237490D01*
X00262513Y00235756D01*
X00263495Y00234285D01*
X00264966Y00233303D01*
X00266700Y00232958D01*
X00267120Y00233041D01*
X00299476Y00200686D01*
X00299476Y00200686D01*
X00300400Y00200068D01*
X00301490Y00199851D01*
X00301490Y00199851D01*
X00345524D01*
X00346042Y00198601D01*
X00347345Y00196903D01*
X00349043Y00195600D01*
X00351020Y00194781D01*
X00353142Y00194502D01*
X00366858D01*
X00368980Y00194781D01*
X00370957Y00195600D01*
X00372655Y00196903D01*
X00373958Y00198601D01*
X00374777Y00200578D01*
X00375056Y00202700D01*
X00374777Y00204822D01*
X00373958Y00206799D01*
X00372655Y00208497D01*
X00370957Y00209800D01*
X00368980Y00210619D01*
X00366858Y00210898D01*
X00353142D01*
X00351020Y00210619D01*
X00349043Y00209800D01*
X00347345Y00208497D01*
X00346042Y00206799D01*
X00345524Y00205549D01*
X00302670D01*
X00271149Y00237070D01*
X00271232Y00237490D01*
X00270966Y00238830D01*
X00272136Y00239455D01*
X00285506Y00226086D01*
X00285506Y00226086D01*
X00286430Y00225468D01*
X00287520Y00225251D01*
X00287520Y00225251D01*
X00345524D01*
X00346042Y00224001D01*
X00347345Y00222303D01*
X00349043Y00221000D01*
X00351020Y00220181D01*
X00353142Y00219902D01*
X00366858D01*
X00368980Y00220181D01*
X00370957Y00221000D01*
X00372655Y00222303D01*
X00373958Y00224001D01*
X00374777Y00225978D01*
X00375056Y00228100D01*
X00374777Y00230222D01*
X00373958Y00232199D01*
X00372655Y00233897D01*
X00370957Y00235200D01*
X00368980Y00236019D01*
X00366858Y00236298D01*
X00353142D01*
X00351020Y00236019D01*
X00349043Y00235200D01*
X00347345Y00233897D01*
X00346042Y00232199D01*
X00345524Y00230949D01*
X00288700D01*
X00271149Y00248500D01*
X00271232Y00248920D01*
X00270887Y00250654D01*
X00269905Y00252125D01*
X00268434Y00253107D01*
X00266700Y00253452D01*
X00266280Y00253369D01*
X00244149Y00275500D01*
Y00317176D01*
X00247324D01*
Y00327224D01*
X00245269D01*
X00244561Y00327500D01*
X00244111Y00328813D01*
X00244797Y00329820D01*
X00245110D01*
X00245693Y00330062D01*
X00246276Y00330303D01*
X00248816Y00332844D01*
X00249158Y00333668D01*
X00249300Y00334010D01*
X00249300Y00342900D01*
X00248817Y00344066D01*
X00248817Y00344066D01*
X00229766Y00363116D01*
X00228600Y00363600D01*
X00198120Y00363600D01*
X00195580D01*
X00194414Y00363116D01*
X00193144Y00361846D01*
X00192660Y00360680D01*
Y00348663D01*
X00192654Y00348656D01*
X00192441Y00348143D01*
X00192269Y00348072D01*
X00191928Y00347930D01*
X00191270Y00347273D01*
X00189343D01*
X00188422Y00347090D01*
X00140383D01*
X00124356Y00363116D01*
X00123190Y00363600D01*
X00106680Y00363600D01*
X00105514Y00363116D01*
X00100434Y00358036D01*
X00099950Y00356870D01*
Y00345440D01*
Y00337820D01*
X00100434Y00336654D01*
X00105308Y00331779D01*
X00105087Y00330809D01*
X00104919Y00330509D01*
X00091729D01*
X00091673Y00330546D01*
X00090583Y00330763D01*
X00090583Y00330763D01*
X00087217D01*
X00087217Y00330763D01*
X00086126Y00330546D01*
X00085202Y00329928D01*
X00085202Y00329928D01*
X00076726Y00321452D01*
X00076108Y00320527D01*
X00075891Y00319437D01*
X00075891Y00319437D01*
Y00231631D01*
X00074718Y00231145D01*
X00065936Y00239926D01*
X00064770Y00240410D01*
X00012700Y00240410D01*
X00011534Y00239926D01*
X00003914Y00232306D01*
X00003860Y00232176D01*
X00002590Y00232429D01*
Y00333287D01*
X00003860Y00333539D01*
X00005367Y00329901D01*
X00008094Y00325451D01*
X00011483Y00321483D01*
X00015451Y00318093D01*
X00019901Y00315367D01*
X00024723Y00313370D01*
X00029797Y00312151D01*
X00035000Y00311742D01*
X00040203Y00312151D01*
X00045277Y00313370D01*
X00050099Y00315367D01*
X00054549Y00318093D01*
X00058517Y00321483D01*
X00061906Y00325451D01*
X00064633Y00329901D01*
X00066630Y00334723D01*
X00067849Y00339797D01*
X00068258Y00345000D01*
X00067849Y00350203D01*
X00066630Y00355277D01*
X00064633Y00360099D01*
X00061906Y00364549D01*
X00058517Y00368517D01*
X00054549Y00371906D01*
X00050099Y00374633D01*
X00046461Y00376140D01*
X00046714Y00377410D01*
X00333287D01*
X00333539Y00376140D01*
D02*
G37*
G36*
X00265430Y00109220D02*
Y00090482D01*
X00264414D01*
Y00075184D01*
X00262890Y00073660D01*
X00220980D01*
X00218440Y00076200D01*
Y00109220D01*
X00220980Y00111760D01*
X00262890D01*
X00265430Y00109220D01*
D02*
G37*
G36*
X00161670Y00117511D02*
X00161452Y00116811D01*
X00161126Y00116259D01*
X00159556Y00115947D01*
X00158085Y00114965D01*
X00157103Y00113494D01*
X00156758Y00111760D01*
X00157006Y00110511D01*
X00155836Y00109886D01*
X00147144Y00118578D01*
Y00121769D01*
X00136396D01*
X00136270Y00122986D01*
Y00137160D01*
X00135928Y00137985D01*
X00135786Y00138327D01*
X00133638Y00140475D01*
X00133482Y00140540D01*
X00133388Y00140680D01*
X00132916Y00140774D01*
X00132472Y00140958D01*
X00132316Y00140893D01*
X00132150Y00140926D01*
X00130810Y00140660D01*
X00129719Y00140877D01*
X00128795Y00141495D01*
X00128177Y00142419D01*
X00127960Y00143510D01*
X00128226Y00144850D01*
X00128193Y00145015D01*
X00128258Y00145172D01*
X00128074Y00145616D01*
X00127980Y00146088D01*
X00127839Y00146182D01*
X00127775Y00146338D01*
X00123546Y00150567D01*
X00123832Y00151666D01*
X00123935Y00151837D01*
X00127344D01*
X00161670Y00117511D01*
D02*
G37*
G36*
X00003914Y00219814D02*
X00011534Y00212194D01*
X00012700Y00211710D01*
X00050833Y00211710D01*
X00051244Y00209644D01*
X00052630Y00207570D01*
X00054704Y00206184D01*
X00057150Y00205697D01*
X00059596Y00206184D01*
X00061670Y00207570D01*
X00063056Y00209644D01*
X00063467Y00211710D01*
X00068441D01*
X00068886Y00211894D01*
X00069358Y00211988D01*
X00070029Y00212437D01*
X00071120Y00212654D01*
X00072211Y00212437D01*
X00073135Y00211819D01*
X00073584Y00211148D01*
X00073725Y00211054D01*
X00073789Y00210898D01*
X00084710Y00199977D01*
X00084710Y00175260D01*
Y00175260D01*
X00084852Y00174918D01*
X00085194Y00174093D01*
X00088560Y00170727D01*
X00065142Y00147308D01*
X00064524Y00146383D01*
X00064307Y00145293D01*
X00064307Y00145293D01*
Y00138557D01*
X00063056Y00138336D01*
X00061670Y00140410D01*
X00059988Y00141534D01*
X00059953Y00141639D01*
Y00142841D01*
X00059988Y00142946D01*
X00061670Y00144070D01*
X00063056Y00146144D01*
X00063543Y00148590D01*
X00063056Y00151036D01*
X00061670Y00153110D01*
X00059988Y00154234D01*
X00059953Y00154339D01*
Y00155541D01*
X00059988Y00155646D01*
X00061670Y00156770D01*
X00063056Y00158844D01*
X00063543Y00161290D01*
X00063056Y00163736D01*
X00061670Y00165810D01*
X00059988Y00166934D01*
X00059953Y00167039D01*
Y00168241D01*
X00059988Y00168346D01*
X00061670Y00169470D01*
X00063056Y00171544D01*
X00063543Y00173990D01*
X00063056Y00176436D01*
X00061670Y00178510D01*
X00059988Y00179634D01*
X00059953Y00179739D01*
Y00180941D01*
X00059988Y00181046D01*
X00061670Y00182170D01*
X00063056Y00184244D01*
X00063543Y00186690D01*
X00063056Y00189136D01*
X00061670Y00191210D01*
X00059596Y00192596D01*
X00057150Y00193083D01*
X00054704Y00192596D01*
X00052630Y00191210D01*
X00051244Y00189136D01*
X00050757Y00186690D01*
X00051244Y00184244D01*
X00052630Y00182170D01*
X00054312Y00181046D01*
X00054348Y00180941D01*
Y00179739D01*
X00054312Y00179634D01*
X00052630Y00178510D01*
X00051244Y00176436D01*
X00050757Y00173990D01*
X00051244Y00171544D01*
X00052630Y00169470D01*
X00054312Y00168346D01*
X00054348Y00168241D01*
Y00167039D01*
X00054312Y00166934D01*
X00052630Y00165810D01*
X00051244Y00163736D01*
X00050757Y00161290D01*
X00051244Y00158844D01*
X00052630Y00156770D01*
X00054312Y00155646D01*
X00054348Y00155541D01*
Y00154339D01*
X00054312Y00154234D01*
X00052630Y00153110D01*
X00051244Y00151036D01*
X00050757Y00148590D01*
X00051244Y00146144D01*
X00052630Y00144070D01*
X00054312Y00142946D01*
X00054348Y00142841D01*
Y00141639D01*
X00054312Y00141534D01*
X00052630Y00140410D01*
X00051244Y00138336D01*
X00050757Y00135890D01*
X00051244Y00133444D01*
X00052630Y00131370D01*
X00054704Y00129984D01*
X00057150Y00129497D01*
X00057752Y00129617D01*
X00058378Y00128447D01*
X00054700Y00124769D01*
X00045630D01*
X00042219Y00128180D01*
Y00148590D01*
X00042002Y00149680D01*
X00041384Y00150604D01*
X00041384Y00150604D01*
X00038074Y00153914D01*
X00037150Y00154532D01*
X00036060Y00154749D01*
X00036060Y00154749D01*
X00034476D01*
X00033958Y00155999D01*
X00032655Y00157697D01*
X00030957Y00159000D01*
X00028980Y00159819D01*
X00026858Y00160098D01*
X00013142D01*
X00011020Y00159819D01*
X00009043Y00159000D01*
X00007345Y00157697D01*
X00006042Y00155999D01*
X00005223Y00154022D01*
X00004944Y00151900D01*
X00005223Y00149778D01*
X00006042Y00147801D01*
X00007345Y00146103D01*
X00009043Y00144800D01*
X00011020Y00143981D01*
X00013142Y00143702D01*
X00026858D01*
X00028980Y00143981D01*
X00030957Y00144800D01*
X00032655Y00146103D01*
X00033958Y00147801D01*
X00034068Y00148067D01*
X00035566Y00148365D01*
X00036521Y00147410D01*
Y00128054D01*
X00035251Y00127528D01*
X00028684Y00134094D01*
X00027760Y00134712D01*
X00026670Y00134929D01*
X00026670Y00134929D01*
X00026302D01*
X00026065Y00135285D01*
X00024594Y00136267D01*
X00022860Y00136612D01*
X00021126Y00136267D01*
X00019655Y00135285D01*
X00018673Y00133814D01*
X00018328Y00132080D01*
X00018673Y00130346D01*
X00019655Y00128875D01*
X00021126Y00127893D01*
X00022860Y00127548D01*
X00024594Y00127893D01*
X00025933Y00128788D01*
X00041166Y00113556D01*
X00041166Y00113556D01*
X00042090Y00112938D01*
X00043180Y00112721D01*
X00043180Y00112721D01*
X00054682D01*
Y00103407D01*
X00067238D01*
Y00110896D01*
X00070881Y00114539D01*
X00071976Y00116177D01*
X00072360Y00118110D01*
X00071976Y00120043D01*
X00070881Y00121681D01*
X00069243Y00122776D01*
X00068789Y00122866D01*
X00068420Y00124081D01*
X00072081Y00127743D01*
X00073351Y00127217D01*
Y00121920D01*
X00073351Y00121920D01*
X00073568Y00120830D01*
X00074186Y00119906D01*
X00079266Y00114826D01*
X00079266Y00114826D01*
X00080190Y00114208D01*
X00080239Y00114198D01*
X00080615Y00113635D01*
X00082086Y00112653D01*
X00083820Y00112308D01*
X00085554Y00112653D01*
X00087025Y00113635D01*
X00088007Y00115106D01*
X00088352Y00116840D01*
X00088007Y00118574D01*
X00087025Y00120045D01*
X00085554Y00121027D01*
X00083820Y00121372D01*
X00082086Y00121027D01*
X00081508Y00120641D01*
X00079049Y00123100D01*
Y00135980D01*
X00079965Y00136896D01*
X00081106Y00136616D01*
Y00136616D01*
X00081106Y00136616D01*
X00094154D01*
Y00148664D01*
X00082099D01*
X00081573Y00149934D01*
X00093128Y00161489D01*
X00102461D01*
X00102947Y00160316D01*
X00102020Y00159389D01*
X00101600Y00159472D01*
X00099866Y00159127D01*
X00098395Y00158145D01*
X00097413Y00156674D01*
X00097068Y00154940D01*
X00097413Y00153206D01*
X00098395Y00151735D01*
X00099866Y00150753D01*
X00101600Y00150408D01*
X00103334Y00150753D01*
X00103675Y00150981D01*
X00105033Y00150666D01*
X00105120Y00150535D01*
X00106015Y00149195D01*
X00106034Y00149007D01*
X00105514Y00148486D01*
X00105030Y00147320D01*
Y00111535D01*
X00105514Y00110368D01*
X00109324Y00106558D01*
X00110490Y00106075D01*
X00130810Y00106075D01*
X00131976Y00106558D01*
X00135126Y00109708D01*
X00136396Y00109182D01*
Y00108921D01*
X00139587D01*
X00149941Y00098567D01*
X00149941Y00098567D01*
X00150929Y00097907D01*
X00151916Y00097247D01*
X00154245Y00096784D01*
X00154245Y00096784D01*
X00170444D01*
Y00087611D01*
X00168059Y00085226D01*
X00146304D01*
Y00087151D01*
X00137160D01*
Y00083686D01*
X00136109Y00082114D01*
X00135646Y00079785D01*
X00136109Y00077456D01*
X00137160Y00075883D01*
Y00072419D01*
X00146304D01*
Y00073054D01*
X00170580D01*
X00170580Y00073054D01*
X00172909Y00073517D01*
X00174883Y00074837D01*
X00180833Y00080787D01*
X00180833Y00080787D01*
X00182153Y00082761D01*
X00182616Y00085090D01*
Y00097388D01*
X00183598Y00098194D01*
X00184150Y00098084D01*
X00185884Y00098429D01*
X00186381Y00098761D01*
X00187651Y00098082D01*
Y00052070D01*
X00187651Y00052070D01*
X00187868Y00050980D01*
X00188486Y00050056D01*
X00198646Y00039896D01*
X00198646Y00039896D01*
X00199570Y00039278D01*
X00200660Y00039061D01*
X00219774D01*
X00226786Y00032049D01*
Y00020966D01*
X00238834D01*
Y00024641D01*
X00258756D01*
Y00021466D01*
X00268804D01*
Y00033514D01*
X00258756D01*
Y00030338D01*
X00238834D01*
Y00034014D01*
X00232879D01*
X00226059Y00040833D01*
X00226703Y00041985D01*
X00227330Y00041860D01*
X00228531D01*
X00228910Y00041607D01*
X00231140Y00041163D01*
X00233370Y00041607D01*
X00233750Y00041860D01*
X00236150D01*
X00236530Y00041607D01*
X00238760Y00041163D01*
X00240990Y00041607D01*
X00241369Y00041860D01*
X00252730D01*
X00253721Y00042057D01*
X00254561Y00042619D01*
X00257101Y00045159D01*
X00257663Y00045999D01*
X00257860Y00046990D01*
Y00048518D01*
X00257663Y00049509D01*
X00257352Y00049974D01*
Y00062738D01*
X00257155Y00063729D01*
X00256593Y00064569D01*
X00256438Y00064724D01*
Y00065282D01*
X00255881D01*
X00254561Y00066601D01*
X00253721Y00067163D01*
X00252730Y00067360D01*
X00229673D01*
X00227891Y00069141D01*
X00227136Y00069897D01*
X00227622Y00071070D01*
X00262890D01*
X00263881Y00071267D01*
X00264721Y00071829D01*
X00264825Y00071932D01*
X00271318Y00065439D01*
X00270832Y00064266D01*
X00265430D01*
Y00049534D01*
X00273339D01*
X00278681Y00044192D01*
Y00033514D01*
X00274756D01*
Y00021466D01*
X00284804D01*
Y00033514D01*
X00284379D01*
Y00035479D01*
X00285552Y00035965D01*
X00290934Y00030584D01*
X00292100Y00030100D01*
X00300990D01*
X00301815Y00030442D01*
X00302156Y00030584D01*
X00307927Y00036354D01*
X00309156Y00035787D01*
X00309094Y00035000D01*
X00309536Y00029383D01*
X00310852Y00023905D01*
X00313008Y00018699D01*
X00315952Y00013895D01*
X00319611Y00009611D01*
X00323895Y00005952D01*
X00327309Y00003860D01*
X00326951Y00002590D01*
X00053049D01*
X00052691Y00003860D01*
X00056105Y00005952D01*
X00060389Y00009611D01*
X00064048Y00013895D01*
X00066992Y00018699D01*
X00069148Y00023905D01*
X00070464Y00029383D01*
X00070906Y00035000D01*
X00070464Y00040617D01*
X00069148Y00046095D01*
X00066992Y00051301D01*
X00064048Y00056105D01*
X00060389Y00060389D01*
X00056105Y00064048D01*
X00051301Y00066992D01*
X00046095Y00069148D01*
X00040617Y00070464D01*
X00035000Y00070906D01*
X00029383Y00070464D01*
X00023905Y00069148D01*
X00018699Y00066992D01*
X00013895Y00064048D01*
X00009611Y00060389D01*
X00005952Y00056105D01*
X00003860Y00052691D01*
X00002590Y00053049D01*
Y00219691D01*
X00003860Y00219944D01*
X00003914Y00219814D01*
D02*
G37*
G36*
X00122145Y00149635D02*
X00126608Y00145171D01*
X00126278Y00143510D01*
X00126623Y00141776D01*
X00127605Y00140305D01*
X00129076Y00139323D01*
X00130810Y00138978D01*
X00132472Y00139308D01*
X00134620Y00137160D01*
Y00111535D01*
X00130810Y00107725D01*
X00110490Y00107725D01*
X00106680Y00111535D01*
Y00147320D01*
X00107558Y00148198D01*
X00109220Y00147868D01*
X00110954Y00148213D01*
X00112425Y00149195D01*
X00112718Y00149635D01*
X00122145Y00149635D01*
D02*
G37*
G36*
X00152400Y00238535D02*
X00154940Y00235995D01*
X00163830D01*
X00167640Y00232185D01*
Y00229645D01*
X00165097Y00227102D01*
X00164309Y00226945D01*
X00162839Y00225963D01*
X00162753Y00225835D01*
X00161532D01*
X00161447Y00225963D01*
X00159976Y00226945D01*
X00158242Y00227290D01*
X00157678Y00227178D01*
X00156693Y00227374D01*
X00156250D01*
X00155160Y00227157D01*
X00154236Y00226539D01*
X00153618Y00225615D01*
X00153401Y00224525D01*
X00153618Y00223435D01*
X00153793Y00223174D01*
X00153710Y00222758D01*
X00153823Y00222187D01*
X00149852Y00218215D01*
X00139700D01*
X00137160Y00218215D01*
X00135890Y00219485D01*
X00118110Y00219485D01*
X00115570Y00222025D01*
X00115570Y00233455D01*
X00118110Y00235995D01*
X00134620D01*
X00139395Y00240770D01*
X00140164Y00240923D01*
X00140392Y00241075D01*
X00149860D01*
X00152400Y00238535D01*
D02*
G37*
G36*
X00215850Y00090220D02*
Y00076200D01*
X00216047Y00075209D01*
X00216609Y00074369D01*
X00219149Y00071829D01*
X00219989Y00071267D01*
X00220980Y00071070D01*
X00222300D01*
X00226060Y00067310D01*
X00228600Y00064770D01*
X00252730D01*
X00254762Y00062738D01*
Y00048518D01*
X00255270D01*
Y00046990D01*
X00252730Y00044450D01*
X00227330D01*
X00223520Y00048260D01*
X00212090Y00059690D01*
X00211110Y00060670D01*
X00209860Y00062540D01*
X00207990Y00063790D01*
X00200660Y00071120D01*
Y00087630D01*
X00204470Y00091440D01*
X00214630D01*
X00215850Y00090220D01*
D02*
G37*
G36*
X00271780Y00090170D02*
X00274320Y00087630D01*
Y00077470D01*
X00275590Y00076200D01*
X00285750Y00066040D01*
X00303530D01*
X00307340Y00062230D01*
Y00038100D01*
X00300990Y00031750D01*
X00292100D01*
X00284480Y00039370D01*
Y00046990D01*
X00275590Y00055880D01*
Y00063500D01*
X00265991Y00073099D01*
X00266245Y00073353D01*
X00266807Y00074193D01*
X00267004Y00075184D01*
Y00088478D01*
X00267261Y00088650D01*
X00267823Y00089491D01*
X00267955Y00090155D01*
X00267970Y00090170D01*
X00271780Y00090170D01*
D02*
G37*
G36*
X00228600Y00361950D02*
X00247650Y00342900D01*
X00247650Y00334010D01*
X00245110Y00331470D01*
X00241519D01*
X00239250Y00333738D01*
X00238326Y00334356D01*
X00237236Y00334573D01*
X00237236Y00334573D01*
X00215556D01*
X00207754Y00342374D01*
X00206830Y00342992D01*
X00205740Y00343209D01*
X00205740Y00343209D01*
X00191026D01*
X00191026Y00343209D01*
X00189936Y00342992D01*
X00189012Y00342374D01*
X00189012Y00342374D01*
X00182933Y00336296D01*
X00175024D01*
Y00332740D01*
X00173990D01*
X00106680Y00332740D01*
X00101600Y00337820D01*
Y00345440D01*
Y00356870D01*
X00106680Y00361950D01*
X00123190Y00361950D01*
X00139700Y00345440D01*
X00191770D01*
X00193094Y00346764D01*
X00193820D01*
Y00347490D01*
X00194310Y00347980D01*
Y00360680D01*
X00195580Y00361950D01*
X00198120D01*
X00228600Y00361950D01*
D02*
G37*
G36*
X00152400Y00255270D02*
Y00247650D01*
X00149860Y00245110D01*
X00144780D01*
X00143510Y00243840D01*
X00142394Y00242724D01*
X00140392D01*
X00139947Y00242540D01*
X00139896Y00242530D01*
X00139843Y00242541D01*
X00139073Y00242388D01*
X00138673Y00242120D01*
X00138229Y00241936D01*
X00136322Y00240030D01*
X00135890D01*
X00133350Y00242570D01*
Y00246380D01*
X00134620Y00247650D01*
X00137160Y00250190D01*
Y00255270D01*
X00139700Y00257810D01*
X00149860D01*
X00152400Y00255270D01*
D02*
G37*
G36*
X00268311Y00124151D02*
X00258509Y00114350D01*
X00220980D01*
X00219989Y00114153D01*
X00219149Y00113591D01*
X00216609Y00111051D01*
X00216047Y00110211D01*
X00215850Y00109220D01*
Y00095082D01*
X00214630Y00094030D01*
X00204470D01*
X00203479Y00093833D01*
X00202639Y00093271D01*
X00198829Y00089461D01*
X00198267Y00088621D01*
X00198070Y00087630D01*
Y00071120D01*
X00198267Y00070129D01*
X00198829Y00069289D01*
X00206159Y00061959D01*
X00206371Y00061817D01*
X00206551Y00061637D01*
X00207993Y00060673D01*
X00208957Y00059231D01*
X00209137Y00059051D01*
X00209279Y00058839D01*
X00210259Y00057859D01*
X00221689Y00046429D01*
X00222408Y00045710D01*
X00221714Y00044608D01*
X00220954Y00044759D01*
X00220954Y00044759D01*
X00201840D01*
X00193349Y00053250D01*
Y00106680D01*
X00193349Y00106680D01*
X00193132Y00107770D01*
X00192514Y00108694D01*
Y00108695D01*
X00192994Y00110011D01*
X00193504Y00110113D01*
X00194975Y00111095D01*
X00195957Y00112566D01*
X00196302Y00114300D01*
X00195957Y00116034D01*
X00194975Y00117505D01*
Y00118715D01*
X00195957Y00120186D01*
X00196302Y00121920D01*
X00195957Y00123654D01*
X00195625Y00124151D01*
X00196304Y00125421D01*
X00267785D01*
X00268311Y00124151D01*
D02*
G37*
%LPC*%
G36*
X00033194Y00099604D02*
X00020146D01*
Y00094612D01*
X00020011Y00093935D01*
X00020146Y00093257D01*
Y00087556D01*
X00033194D01*
Y00089836D01*
X00039696D01*
Y00087661D01*
X00051744D01*
Y00089836D01*
X00054936D01*
Y00087661D01*
X00056841D01*
Y00083453D01*
X00056485Y00083215D01*
X00055503Y00081744D01*
X00055158Y00080010D01*
X00055503Y00078276D01*
X00056485Y00076805D01*
X00057956Y00075823D01*
X00059690Y00075478D01*
X00061424Y00075823D01*
X00062895Y00076805D01*
X00063877Y00078276D01*
X00064222Y00080010D01*
X00063877Y00081744D01*
X00062895Y00083215D01*
X00062539Y00083453D01*
Y00087661D01*
X00066984D01*
Y00097709D01*
X00054936D01*
Y00095534D01*
X00051744D01*
Y00097709D01*
X00039696D01*
Y00095534D01*
X00033194D01*
Y00099604D01*
D02*
G37*
G36*
X00146304Y00061951D02*
X00137160D01*
Y00047219D01*
X00145069D01*
X00152951Y00039337D01*
Y00033739D01*
X00149026D01*
Y00021691D01*
X00159074D01*
Y00033739D01*
X00158649D01*
Y00040517D01*
X00158649Y00040517D01*
X00158432Y00041607D01*
X00157814Y00042531D01*
X00157814Y00042531D01*
X00146304Y00054042D01*
Y00061951D01*
D02*
G37*
G36*
X00181610Y00062952D02*
X00179876Y00062607D01*
X00178405Y00061625D01*
X00177423Y00060154D01*
X00177078Y00058420D01*
X00177423Y00056686D01*
X00178405Y00055215D01*
X00179876Y00054233D01*
X00181610Y00053888D01*
X00183344Y00054233D01*
X00184815Y00055215D01*
X00185797Y00056686D01*
X00186142Y00058420D01*
X00185797Y00060154D01*
X00184815Y00061625D01*
X00183344Y00062607D01*
X00181610Y00062952D01*
D02*
G37*
G36*
X00138430Y00045172D02*
X00136696Y00044827D01*
X00135225Y00043845D01*
X00134243Y00042374D01*
X00133898Y00040640D01*
X00134005Y00040104D01*
X00133668Y00039600D01*
X00133451Y00038510D01*
X00133451Y00038510D01*
Y00033739D01*
X00133026D01*
Y00030564D01*
X00113104D01*
Y00034239D01*
X00101056D01*
Y00021191D01*
X00113104D01*
Y00024866D01*
X00133026D01*
Y00021691D01*
X00143074D01*
Y00033739D01*
X00139149D01*
Y00036251D01*
X00140164Y00036453D01*
X00141635Y00037435D01*
X00142617Y00038906D01*
X00142962Y00040640D01*
X00142617Y00042374D01*
X00141635Y00043845D01*
X00140164Y00044827D01*
X00138430Y00045172D01*
D02*
G37*
G36*
X00039370Y00083272D02*
X00037636Y00082927D01*
X00036165Y00081945D01*
X00035183Y00080474D01*
X00034838Y00078740D01*
X00035183Y00077006D01*
X00036165Y00075535D01*
X00037636Y00074553D01*
X00039370Y00074208D01*
X00041104Y00074553D01*
X00042575Y00075535D01*
X00043557Y00077006D01*
X00043902Y00078740D01*
X00043557Y00080474D01*
X00042575Y00081945D01*
X00041104Y00082927D01*
X00039370Y00083272D01*
D02*
G37*
G36*
X00100330Y00095245D02*
X00097902Y00094762D01*
X00097440Y00094453D01*
X00097096Y00094385D01*
X00096508Y00093992D01*
X00096022Y00093506D01*
X00095843Y00093386D01*
X00095724Y00093208D01*
X00093968Y00091452D01*
X00092722D01*
X00092134Y00091845D01*
X00091440Y00091983D01*
X00080010D01*
X00079316Y00091845D01*
X00078728Y00091452D01*
X00074918Y00087642D01*
X00074525Y00087054D01*
X00074387Y00086360D01*
Y00053340D01*
X00074525Y00052646D01*
X00074918Y00052058D01*
X00081268Y00045708D01*
X00081856Y00045315D01*
X00082550Y00045177D01*
X00125730D01*
X00126424Y00045315D01*
X00127012Y00045708D01*
X00128536Y00047232D01*
X00128929Y00047820D01*
X00129067Y00048514D01*
Y00059436D01*
X00128929Y00060130D01*
X00128536Y00060718D01*
X00127406Y00061848D01*
Y00062205D01*
X00127049D01*
X00127012Y00062242D01*
X00126424Y00062635D01*
X00125730Y00062773D01*
X00114580D01*
X00113966Y00064026D01*
X00114105Y00064227D01*
X00128270Y00064227D01*
X00128964Y00064365D01*
X00129552Y00064758D01*
X00132092Y00067298D01*
X00132485Y00067886D01*
X00132623Y00068580D01*
X00132623Y00090170D01*
X00132485Y00090864D01*
X00132092Y00091452D01*
X00129552Y00093992D01*
X00128964Y00094385D01*
X00128270Y00094523D01*
X00103116Y00094523D01*
X00102758Y00094762D01*
X00100330Y00095245D01*
D02*
G37*
G36*
X00280670Y00322407D02*
X00278217Y00322084D01*
X00275931Y00321137D01*
X00273967Y00319631D01*
X00272461Y00317668D01*
X00271514Y00315381D01*
X00271191Y00312928D01*
Y00299212D01*
X00271514Y00296759D01*
X00271703Y00296301D01*
Y00287795D01*
X00270960D01*
Y00279847D01*
X00270783Y00278505D01*
X00270960Y00277163D01*
Y00269215D01*
X00288540D01*
Y00275194D01*
X00289331Y00277104D01*
X00289637Y00279425D01*
Y00296301D01*
X00289826Y00296759D01*
X00290149Y00299212D01*
Y00312928D01*
X00289826Y00315381D01*
X00288879Y00317668D01*
X00287373Y00319631D01*
X00285410Y00321137D01*
X00283123Y00322084D01*
X00280670Y00322407D01*
D02*
G37*
G36*
X00240974Y00221814D02*
X00228926D01*
Y00219764D01*
X00211222D01*
X00210985Y00220119D01*
X00209514Y00221102D01*
X00207780Y00221447D01*
X00206046Y00221102D01*
X00204575Y00220119D01*
X00203593Y00218649D01*
X00203248Y00216915D01*
X00203593Y00215180D01*
X00204575Y00213710D01*
X00206046Y00212728D01*
X00207780Y00212383D01*
X00209514Y00212728D01*
X00210985Y00213710D01*
X00211222Y00214066D01*
X00228926D01*
Y00211766D01*
X00240974D01*
Y00221814D01*
D02*
G37*
G36*
X00197620Y00306358D02*
X00182380D01*
X00181686Y00306220D01*
X00181098Y00305827D01*
X00178558Y00303287D01*
X00178165Y00302699D01*
X00178027Y00302005D01*
Y00277875D01*
Y00272795D01*
Y00268985D01*
X00178165Y00268291D01*
X00178558Y00267703D01*
X00184908Y00261353D01*
X00185496Y00260960D01*
X00186190Y00260822D01*
X00193810D01*
X00194504Y00260960D01*
X00195092Y00261353D01*
X00201442Y00267703D01*
X00201835Y00268291D01*
X00201973Y00268985D01*
Y00277875D01*
Y00302005D01*
X00201835Y00302699D01*
X00201442Y00303287D01*
X00198902Y00305827D01*
X00198314Y00306220D01*
X00197620Y00306358D01*
D02*
G37*
G36*
X00298450Y00255992D02*
X00296716Y00255647D01*
X00295245Y00254665D01*
X00294263Y00253194D01*
X00293918Y00251460D01*
X00294263Y00249726D01*
X00295245Y00248255D01*
X00296716Y00247273D01*
X00298450Y00246928D01*
X00300184Y00247273D01*
X00301655Y00248255D01*
X00302637Y00249726D01*
X00302982Y00251460D01*
X00302637Y00253194D01*
X00301655Y00254665D01*
X00300184Y00255647D01*
X00298450Y00255992D01*
D02*
G37*
G36*
X00366858Y00160098D02*
X00353142D01*
X00351020Y00159819D01*
X00349043Y00159000D01*
X00347345Y00157697D01*
X00346042Y00155999D01*
X00345223Y00154022D01*
X00344944Y00151900D01*
X00345223Y00149778D01*
X00346042Y00147801D01*
X00347345Y00146103D01*
X00349043Y00144800D01*
X00351020Y00143981D01*
X00353142Y00143702D01*
X00366858D01*
X00368980Y00143981D01*
X00370957Y00144800D01*
X00372655Y00146103D01*
X00373958Y00147801D01*
X00374777Y00149778D01*
X00375056Y00151900D01*
X00374777Y00154022D01*
X00373958Y00155999D01*
X00372655Y00157697D01*
X00370957Y00159000D01*
X00368980Y00159819D01*
X00366858Y00160098D01*
D02*
G37*
G36*
X00237534Y00156129D02*
X00225486D01*
Y00155721D01*
X00219710D01*
X00217381Y00155258D01*
X00215407Y00153938D01*
X00214087Y00151964D01*
X00213624Y00149635D01*
X00214087Y00147306D01*
X00215407Y00145331D01*
X00217381Y00144012D01*
X00219710Y00143549D01*
X00225486D01*
Y00143081D01*
X00237534D01*
Y00149474D01*
X00237566Y00149635D01*
X00237534Y00149796D01*
Y00156129D01*
D02*
G37*
G36*
X00306070Y00321126D02*
X00303948Y00320847D01*
X00301971Y00320028D01*
X00300273Y00318725D01*
X00298970Y00317027D01*
X00298151Y00315050D01*
X00297872Y00312928D01*
Y00299212D01*
X00298151Y00297090D01*
X00298970Y00295113D01*
X00299984Y00293792D01*
Y00280685D01*
X00299984Y00280685D01*
X00300447Y00278356D01*
X00300476Y00278313D01*
Y00270231D01*
X00316024D01*
Y00286779D01*
X00312156D01*
Y00293792D01*
X00313170Y00295113D01*
X00313989Y00297090D01*
X00314268Y00299212D01*
Y00312928D01*
X00313989Y00315050D01*
X00313170Y00317027D01*
X00311867Y00318725D01*
X00310169Y00320028D01*
X00308192Y00320847D01*
X00306070Y00321126D01*
D02*
G37*
G36*
X00026858Y00185498D02*
X00013142D01*
X00011020Y00185219D01*
X00009043Y00184400D01*
X00007345Y00183097D01*
X00006042Y00181399D01*
X00005223Y00179422D01*
X00004944Y00177300D01*
X00005223Y00175178D01*
X00006042Y00173201D01*
X00007345Y00171503D01*
X00009043Y00170200D01*
X00011020Y00169381D01*
X00013142Y00169102D01*
X00026858D01*
X00028980Y00169381D01*
X00030957Y00170200D01*
X00032655Y00171503D01*
X00033958Y00173201D01*
X00034777Y00175178D01*
X00035056Y00177300D01*
X00034777Y00179422D01*
X00033958Y00181399D01*
X00032655Y00183097D01*
X00030957Y00184400D01*
X00028980Y00185219D01*
X00026858Y00185498D01*
D02*
G37*
%LPD*%
G36*
X00200160Y00302005D02*
Y00277875D01*
Y00268985D01*
X00193810Y00262635D01*
X00186190D01*
X00179840Y00268985D01*
Y00272795D01*
Y00277875D01*
Y00302005D01*
X00182380Y00304545D01*
X00197620D01*
X00200160Y00302005D01*
D02*
G37*
G36*
X00128270Y00092710D02*
X00130810Y00090170D01*
X00130810Y00068580D01*
X00128270Y00066040D01*
X00113030Y00066040D01*
X00098745D01*
X00095250Y00069535D01*
Y00090170D01*
X00097790Y00092710D01*
X00128270Y00092710D01*
D02*
G37*
G36*
X00093437Y00088173D02*
Y00069535D01*
X00093575Y00068841D01*
X00093968Y00068253D01*
X00097463Y00064758D01*
X00098051Y00064365D01*
X00098745Y00064227D01*
X00102143D01*
X00105410Y00060960D01*
X00125730D01*
X00127254Y00059436D01*
Y00048514D01*
X00125730Y00046990D01*
X00082550D01*
X00076200Y00053340D01*
Y00086360D01*
X00080010Y00090170D01*
X00091440D01*
X00093437Y00088173D01*
D02*
G37*
D10*
X00266700Y00237490D02*
X00301490Y00202700D01*
X00226060Y00278130D02*
X00266700Y00237490D01*
X00071120Y00209550D02*
X00080480Y00200190D01*
X00071120Y00209550D02*
Y00209804D01*
X00172502Y00218440D02*
Y00253583D01*
Y00218440D02*
X00185420Y00205522D01*
Y00190275D02*
Y00205522D01*
X00170180Y00168268D02*
Y00210873D01*
X00165862Y00215191D02*
X00170180Y00210873D01*
X00165862Y00215191D02*
X00166043Y00215372D01*
Y00222758D01*
X00161290Y00111760D02*
X00185420D01*
X00177800Y00128270D02*
X00318770D01*
X00326390Y00135890D01*
X00160790Y00193540D02*
X00162560Y00191770D01*
X00160790Y00193540D02*
Y00196500D01*
X00093980Y00316005D02*
X00109220Y00300765D01*
X00026670Y00093580D02*
X00027565Y00092685D01*
X00045720D01*
X00162219Y00229710D02*
Y00230088D01*
X00162371Y00230240D01*
X00149254Y00213589D02*
X00158242Y00222577D01*
Y00222758D01*
X00128524Y00154686D02*
X00165354Y00117856D01*
X00111506Y00154686D02*
X00128524D01*
X00106680Y00160020D02*
X00129540D01*
X00101600Y00154940D02*
X00106680Y00160020D01*
X00109220Y00152400D02*
X00111506Y00154686D01*
X00059690Y00091415D02*
X00060960Y00092685D01*
X00059690Y00080010D02*
Y00091415D01*
X00143100Y00282985D02*
X00172220Y00253865D01*
X00153883Y00230240D02*
X00162371D01*
X00153208Y00230915D02*
X00153883Y00230240D01*
X00149100Y00230915D02*
X00153208D01*
X00129540Y00160020D02*
X00167640Y00121920D01*
X00071220Y00143610D02*
X00091948Y00164338D01*
X00110998D01*
X00114300Y00167640D01*
X00124975Y00182140D02*
X00138205Y00168910D01*
X00120911Y00177314D02*
X00136935Y00161290D01*
X00022860Y00132080D02*
X00026670D01*
X00036060Y00151900D02*
X00039370Y00148590D01*
X00020000Y00151900D02*
X00036060D01*
X00039370Y00127000D02*
Y00148590D01*
Y00127000D02*
X00044450Y00121920D01*
X00026670Y00132080D02*
X00043180Y00115570D01*
X00055880D01*
X00105410Y00168910D02*
X00108585Y00172085D01*
X00020000Y00177300D02*
X00028710D01*
X00226060Y00278130D02*
Y00322200D01*
X00194310Y00314960D02*
X00198748Y00319398D01*
X00177800Y00314960D02*
X00194310D01*
X00241300Y00322200D02*
Y00327660D01*
X00287520Y00228100D02*
X00360000D01*
X00301490Y00202700D02*
X00360000D01*
X00178326Y00327660D02*
X00179596Y00328930D01*
X00139035Y00192150D02*
X00144780Y00197895D01*
X00136935Y00161290D02*
X00138430D01*
X00138205Y00168910D02*
X00138430D01*
X00235374Y00027490D02*
X00262030D01*
X00220954Y00041910D02*
X00235374Y00027490D01*
X00200660Y00041910D02*
X00220954D01*
X00341785Y00135890D02*
X00350900Y00126775D01*
X00326390Y00135890D02*
X00341785D01*
X00190500Y00052070D02*
X00200660Y00041910D01*
X00136300Y00038510D02*
X00138430Y00040640D01*
X00136300Y00027715D02*
Y00038510D01*
X00045720Y00092685D02*
X00060960D01*
X00281530Y00027490D02*
Y00045372D01*
X00270002Y00056900D02*
X00281530Y00045372D01*
X00107080Y00027715D02*
X00136300D01*
X00155800D02*
Y00040517D01*
X00141732Y00054585D02*
X00155800Y00040517D01*
X00171458Y00161073D02*
X00174412Y00164027D01*
X00186690Y00155455D02*
X00188730Y00153415D01*
X00106680Y00223295D02*
Y00227515D01*
Y00223295D02*
X00113030Y00216945D01*
X00144780Y00197895D02*
Y00207295D01*
Y00226595D02*
X00149100Y00230915D01*
X00137510Y00227965D02*
X00144780Y00235235D01*
X00137510Y00227965D02*
X00142180Y00223295D01*
X00144780D01*
Y00226595D01*
X00350900Y00111535D02*
Y00126775D01*
X00080480Y00179070D02*
Y00200190D01*
X00266700Y00248920D02*
X00287520Y00228100D01*
X00241300Y00274320D02*
Y00322200D01*
Y00274320D02*
X00266700Y00248920D01*
X00109220Y00351790D02*
Y00356645D01*
Y00351790D02*
X00121275Y00339735D01*
X00147320D01*
X00162560D01*
X00198748Y00347338D02*
Y00354130D01*
X00210130D01*
X00226060Y00338200D01*
X00241300D01*
X00138430Y00245110D02*
X00138655D01*
X00144780Y00251235D01*
X00172122Y00135127D02*
X00183425D01*
X00213173Y00164875D01*
X00076200Y00121920D02*
X00081280Y00116840D01*
X00083820D01*
X00191308Y00114300D02*
X00191770D01*
X00190500Y00052070D02*
Y00106680D01*
X00044450Y00121920D02*
X00055880D01*
X00067156Y00133196D01*
Y00145293D01*
X00090773Y00168910D01*
X00071220Y00130910D02*
Y00143610D01*
X00055880Y00115570D02*
X00071220Y00130910D01*
X00090773Y00168910D02*
X00105410D01*
X00167640Y00121920D02*
X00191770D01*
X00185420Y00111760D02*
X00190500Y00106680D01*
X00187752Y00117856D02*
X00191308Y00114300D01*
X00165354Y00117856D02*
X00187752D01*
X00144780Y00162468D02*
X00172122Y00135127D01*
X00144780Y00162468D02*
Y00171225D01*
X00151923Y00161073D02*
X00171458D01*
X00167049Y00165137D02*
X00170180Y00168268D01*
X00153606Y00165137D02*
X00167049D01*
X00153043Y00179473D02*
X00153297Y00179727D01*
Y00180461D01*
X00148979Y00164017D02*
X00151923Y00161073D01*
X00147320Y00186438D02*
Y00187735D01*
X00153043Y00165700D02*
X00153606Y00165137D01*
X00147320Y00186438D02*
X00153297Y00180461D01*
X00153043Y00165700D02*
Y00179473D01*
X00186690Y00155455D02*
Y00163830D01*
X00212860Y00190000D01*
X00219178D01*
X00211791Y00196500D02*
X00219178D01*
X00178562Y00143263D02*
Y00169377D01*
X00182626Y00149359D02*
Y00167335D01*
X00178562Y00143263D02*
X00181110Y00140715D01*
X00212185Y00203000D02*
X00219178D01*
X00174412Y00164027D02*
Y00170975D01*
X00212937Y00209500D02*
X00219178D01*
X00182626Y00149359D02*
X00184920Y00147065D01*
X00156250Y00224525D02*
X00156693D01*
X00182626Y00167335D02*
X00211791Y00196500D01*
X00178562Y00169377D02*
X00212185Y00203000D01*
X00174412Y00170975D02*
X00212937Y00209500D01*
X00139123Y00213589D02*
X00149254D01*
X00078740Y00226060D02*
Y00319437D01*
X00087217Y00327914D01*
X00090583D01*
X00090837Y00327660D01*
X00178326D01*
X00169164Y00323596D02*
X00177800Y00314960D01*
X00082804Y00227886D02*
Y00317754D01*
X00088646Y00323596D01*
X00169164D01*
X00093980Y00222457D02*
X00120857Y00195580D01*
X00121114D01*
X00139123Y00213589D01*
X00120857Y00195580D02*
X00120911Y00195526D01*
X00198748Y00319398D02*
Y00327660D01*
X00220600D01*
X00226060Y00322200D01*
X00205740Y00340360D02*
X00214376Y00331724D01*
X00237236D01*
X00241300Y00327660D01*
X00179596Y00328930D02*
X00191026Y00340360D01*
X00205740D01*
X00162560Y00339735D02*
X00184653D01*
X00189343Y00344424D01*
X00195834D01*
X00198748Y00347338D01*
X00270002Y00075438D02*
X00286150Y00059290D01*
X00294640D01*
X00298450Y00055480D01*
Y00038100D02*
Y00055480D01*
X00270002Y00075438D02*
Y00082100D01*
X00350900Y00091195D02*
Y00111535D01*
X00349650Y00089945D02*
X00350900Y00091195D01*
X00022860Y00093935D02*
X00024110Y00092685D01*
X00125730Y00229470D02*
X00136005D01*
X00137510Y00227965D01*
X00207780Y00216915D02*
X00234825D01*
X00234950Y00216790D01*
X00213173Y00164875D02*
X00274320D01*
X00076200Y00121920D02*
Y00137160D01*
X00081680Y00142640D01*
X00086360D01*
X00082804Y00227886D02*
X00114300Y00196390D01*
Y00167640D02*
Y00196390D01*
X00108585Y00172085D02*
Y00196215D01*
X00078740Y00226060D02*
X00108585Y00196215D01*
X00148979Y00164017D02*
Y00176138D01*
X00136405Y00179600D02*
X00144780Y00171225D01*
X00138682Y00186435D02*
X00148979Y00176138D01*
X00136405Y00179600D02*
Y00180630D01*
X00128323Y00192150D02*
X00139035D01*
X00130690Y00186435D02*
X00138682D01*
X00124975Y00188802D02*
X00128323Y00192150D01*
X00120911Y00177314D02*
Y00195526D01*
X00124975Y00182140D02*
Y00188802D01*
X00109220Y00260350D02*
Y00300765D01*
X00093980Y00222457D02*
Y00245110D01*
X00109220Y00260350D01*
D16*
X00228190Y00082100D02*
D03*
X00208690D02*
D03*
X00105000Y00079785D02*
D03*
X00085500D02*
D03*
D17*
X00350900Y00126775D02*
D03*
X00334900D02*
D03*
X00334900Y00111535D02*
D03*
X00350900D02*
D03*
X00141350Y00282985D02*
D03*
X00125350D02*
D03*
X00263780Y00027490D02*
D03*
X00279780D02*
D03*
X00138050Y00027715D02*
D03*
X00154050D02*
D03*
D18*
X00045720Y00108685D02*
D03*
Y00092685D02*
D03*
X00060960Y00092685D02*
D03*
Y00108685D02*
D03*
X00144780Y00223295D02*
D03*
Y00207295D02*
D03*
Y00235235D02*
D03*
Y00251235D02*
D03*
X00106680Y00229265D02*
D03*
Y00245265D02*
D03*
X00234950Y00216790D02*
D03*
Y00232790D02*
D03*
X00226060Y00322200D02*
D03*
Y00338200D02*
D03*
X00241300Y00322200D02*
D03*
Y00338200D02*
D03*
D19*
X00091840Y00194310D02*
D03*
X00078340D02*
D03*
X00091840Y00180340D02*
D03*
X00078340D02*
D03*
X00113430Y00129315D02*
D03*
X00099930D02*
D03*
X00113430Y00142240D02*
D03*
X00099930D02*
D03*
X00127870Y00128045D02*
D03*
X00141370D02*
D03*
X00113430Y00115345D02*
D03*
X00099930D02*
D03*
X00245010Y00149605D02*
D03*
X00231510D02*
D03*
X00349650Y00089945D02*
D03*
X00336150D02*
D03*
X00232810Y00027490D02*
D03*
X00219310D02*
D03*
X00107080Y00027715D02*
D03*
X00093580D02*
D03*
X00243440Y00199165D02*
D03*
X00256940D02*
D03*
D20*
X00087630Y00142640D02*
D03*
Y00129140D02*
D03*
X00026670Y00093580D02*
D03*
Y00107080D02*
D03*
X00125730Y00242970D02*
D03*
Y00229470D02*
D03*
X00162560Y00339735D02*
D03*
Y00353235D02*
D03*
X00147320Y00339735D02*
D03*
Y00353235D02*
D03*
X00294640Y00059290D02*
D03*
Y00072790D02*
D03*
X00160020Y00079140D02*
D03*
Y00065640D02*
D03*
D28*
X00250850Y00082100D02*
X00259080Y00090330D01*
X00176530Y00085090D02*
Y00102870D01*
X00306070Y00280685D02*
X00308250Y00278505D01*
X00306070Y00280685D02*
Y00306070D01*
X00102870Y00054610D02*
X00109220D01*
X00115570D01*
X00122022D01*
X00085500Y00070312D02*
X00101202Y00054610D01*
X00102870D01*
X00085500Y00070312D02*
Y00079785D01*
X00238760Y00054610D02*
X00248027D01*
X00231140D02*
X00238760D01*
X00208690Y00075790D02*
X00229870Y00054610D01*
X00208690Y00075790D02*
Y00082100D01*
X00141770Y00115345D02*
X00154245Y00102870D01*
X00176530D01*
X00110490Y00069850D02*
Y00074295D01*
X00100330Y00088900D02*
X00105000Y00084230D01*
Y00079785D02*
Y00084230D01*
X00259080Y00090330D02*
Y00099060D01*
X00228190Y00082100D02*
X00250850D01*
X00219710Y00149635D02*
X00231480D01*
X00091440Y00179070D02*
Y00194310D01*
X00304800Y00083400D02*
X00322355D01*
X00294640Y00073240D02*
X00304800Y00083400D01*
X00294640Y00072790D02*
Y00073240D01*
X00334900Y00091195D02*
Y00111535D01*
X00330150Y00091195D02*
X00334900D01*
X00322355Y00083400D02*
X00330150Y00091195D01*
X00160020Y00079140D02*
X00170580D01*
X00176530Y00085090D01*
X00142377Y00079140D02*
X00160020D01*
X00141732Y00079785D02*
X00142377Y00079140D01*
X00231140Y00184150D02*
X00243440Y00196450D01*
Y00199165D01*
D30*
X00280670Y00279425D02*
Y00306070D01*
X00279750Y00278505D02*
X00280670Y00279425D01*
D31*
X00020000Y00151900D02*
D03*
Y00177300D02*
D03*
Y00202700D02*
D03*
Y00228100D02*
D03*
X00360000D02*
D03*
Y00202700D02*
D03*
Y00177300D02*
D03*
Y00151900D02*
D03*
D32*
X00306070Y00306070D02*
D03*
X00280670D02*
D03*
D33*
X00057150Y00135890D02*
D03*
Y00148590D02*
D03*
Y00161290D02*
D03*
Y00173990D02*
D03*
Y00186690D02*
D03*
Y00199390D02*
D03*
Y00212090D02*
D03*
D34*
Y00224790D02*
D03*
D35*
X00266700Y00237490D02*
D03*
X00071120Y00209804D02*
D03*
X00116840Y00292100D02*
D03*
Y00262890D02*
D03*
X00172502Y00218440D02*
D03*
X00160020Y00203200D02*
D03*
X00161290Y00111760D02*
D03*
X00177800Y00128270D02*
D03*
X00166043Y00222758D02*
D03*
X00162560Y00191770D02*
D03*
X00182500Y00238500D02*
D03*
X00190000Y00246000D02*
D03*
X00197500Y00238500D02*
D03*
X00190000Y00231000D02*
D03*
X00162219Y00229710D02*
D03*
X00158242Y00222758D02*
D03*
X00120650Y00142240D02*
D03*
X00130810Y00143510D02*
D03*
X00101600Y00154940D02*
D03*
X00109220Y00152400D02*
D03*
X00059690Y00080010D02*
D03*
X00114300Y00179070D02*
D03*
X00081280Y00027940D02*
D03*
X00222250Y00355600D02*
D03*
X00129540Y00311150D02*
D03*
X00171450Y00360680D02*
D03*
X00071120Y00080010D02*
D03*
X00325120Y00102870D02*
D03*
X00250190Y00311150D02*
D03*
X00349250Y00279400D02*
D03*
X00019050Y00078740D02*
D03*
X00022860Y00132080D02*
D03*
X00147320Y00187735D02*
D03*
X00102870Y00177800D02*
D03*
X00138430Y00168910D02*
D03*
X00039370Y00078740D02*
D03*
X00184150Y00027940D02*
D03*
X00067310Y00118110D02*
D03*
X00259080Y00105410D02*
D03*
X00231140Y00046990D02*
D03*
Y00054610D02*
D03*
X00199390Y00058420D02*
D03*
X00205740D02*
D03*
X00238760Y00054610D02*
D03*
X00181610Y00058420D02*
D03*
X00238760Y00046990D02*
D03*
X00138430Y00040640D02*
D03*
X00208280Y00101600D02*
D03*
X00102870Y00054610D02*
D03*
X00109220D02*
D03*
X00115570D02*
D03*
X00259080Y00099060D02*
D03*
X00100330Y00088900D02*
D03*
X00110490D02*
D03*
Y00069850D02*
D03*
X00100330D02*
D03*
X00102870Y00292100D02*
D03*
Y00262890D02*
D03*
X00091440D02*
D03*
Y00292100D02*
D03*
X00113030Y00216945D02*
D03*
X00219710Y00149635D02*
D03*
X00138430Y00161290D02*
D03*
X00207780Y00216915D02*
D03*
X00194000Y00275336D02*
D03*
X00186000D02*
D03*
X00190000Y00268224D02*
D03*
X00182500Y00231005D02*
D03*
X00197500D02*
D03*
Y00246005D02*
D03*
X00182500D02*
D03*
X00190000Y00238505D02*
D03*
X00019050Y00279400D02*
D03*
X00138430Y00245110D02*
D03*
X00266700Y00248920D02*
D03*
X00298450Y00251460D02*
D03*
X00093980Y00316005D02*
D03*
X00109220Y00356645D02*
D03*
X00298450Y00038100D02*
D03*
X00083820Y00116840D02*
D03*
X00191770Y00114300D02*
D03*
X00198120Y00101600D02*
D03*
X00176530Y00102616D02*
D03*
X00184150D02*
D03*
X00191770Y00121920D02*
D03*
X00185420Y00190275D02*
D03*
X00231140Y00184150D02*
D03*
X00274320Y00165100D02*
D03*
X00136405Y00180630D02*
D03*
X00130690Y00186435D02*
D03*
X00107950Y00184150D02*
D03*
D36*
X00188730Y00153415D02*
D03*
X00184920Y00147065D02*
D03*
X00181110Y00140715D02*
D03*
D41*
X00273685Y00121285D02*
X00321663D01*
X00327153Y00126775D01*
X00060960Y00111760D02*
X00067310Y00118110D01*
X00060960Y00108685D02*
Y00111760D01*
X00259080Y00099060D02*
Y00106680D01*
X00327153Y00126775D02*
X00334900D01*
X00259080Y00106680D02*
X00273685Y00121285D01*
D43*
X00162030Y00293115D02*
D03*
X00190030D02*
D03*
D44*
X00179596Y00354130D02*
D03*
X00189248D02*
D03*
X00198748D02*
D03*
Y00328930D02*
D03*
X00179596D02*
D03*
X00270002Y00056900D02*
D03*
X00260350D02*
D03*
X00250850D02*
D03*
Y00082100D02*
D03*
X00270002D02*
D03*
X00141732Y00054585D02*
D03*
X00132080D02*
D03*
X00122580D02*
D03*
Y00079785D02*
D03*
X00141732D02*
D03*
D45*
X00308250Y00278505D02*
D03*
X00279750D02*
D03*
D46*
X00141770Y00115345D02*
D03*
X00127470D02*
D03*
D47*
X00160790Y00209500D02*
D03*
Y00203000D02*
D03*
Y00196500D02*
D03*
Y00190000D02*
D03*
Y00183396D02*
D03*
Y00176792D02*
D03*
Y00170442D02*
D03*
X00219178D02*
D03*
Y00176792D02*
D03*
Y00183396D02*
D03*
Y00190000D02*
D03*
Y00196500D02*
D03*
Y00203000D02*
D03*
Y00209500D02*
D03*
M02*
