G04 Layer_Physical_Order=1*
G04 Layer_Color=255*
%FSAX44Y44*%
%MOMM*%
G71*
G01*
G75*
%ADD10C,0.2540*%
%ADD11R,1.6002X3.5052*%
%ADD12R,1.0160X3.5052*%
%ADD13R,2.6670X2.6670*%
%ADD14R,0.3048X0.8500*%
%ADD15R,0.8500X0.3048*%
%ADD16R,0.9000X1.3500*%
%ADD17R,0.7000X0.9000*%
%ADD18R,0.9000X0.7000*%
%ADD19R,0.9000X1.0000*%
%ADD20R,1.0000X0.9000*%
%ADD21O,0.6000X1.4500*%
%ADD22R,3.2500X1.7000*%
%ADD23R,1.0000X1.7000*%
%ADD24R,1.1684X0.6096*%
%ADD25R,3.4000X1.8000*%
%ADD26O,1.5500X0.2500*%
%ADD27O,0.2500X1.5500*%
%ADD28C,0.8890*%
%ADD29C,0.3810*%
%ADD30C,1.2700*%
%ADD31O,2.7432X1.3716*%
%ADD32O,1.3716X2.7432*%
%ADD33C,1.0000*%
%ADD34R,1.0000X1.0000*%
%ADD35C,0.6350*%
%ADD36C,0.6096*%
G36*
X00149464Y00262738D02*
X00150590Y00261612D01*
X00151756Y00261129D01*
X00153584D01*
Y00259301D01*
X00154067Y00258134D01*
X00160894Y00251308D01*
X00162060Y00250825D01*
X00164668D01*
X00165834Y00251308D01*
X00166288Y00252403D01*
X00174252D01*
Y00252231D01*
X00175036D01*
X00175050Y00252197D01*
X00175141Y00252160D01*
Y00239775D01*
X00162060D01*
X00161099Y00238814D01*
X00159528D01*
X00159528Y00238814D01*
X00158438Y00238597D01*
X00157513Y00237979D01*
X00157513Y00237979D01*
X00154490Y00234955D01*
X00153872Y00234031D01*
X00153655Y00232941D01*
X00153655Y00232941D01*
Y00225805D01*
X00143010D01*
X00140470Y00228345D01*
Y00241127D01*
X00141635Y00241905D01*
X00142617Y00243376D01*
X00142962Y00245110D01*
X00142617Y00246844D01*
X00141635Y00248315D01*
X00140470Y00249093D01*
Y00261365D01*
X00143010Y00263905D01*
X00148980D01*
X00149464Y00262738D01*
D02*
G37*
G36*
X00148834Y00131617D02*
X00148643Y00130220D01*
X00147760Y00129706D01*
X00147325Y00129784D01*
X00146772Y00130153D01*
X00145690Y00130368D01*
X00144608Y00130153D01*
X00144055Y00129784D01*
X00143190Y00129629D01*
X00142325Y00129784D01*
X00141772Y00130153D01*
X00140690Y00130368D01*
X00139608Y00130153D01*
X00139425Y00130031D01*
X00137819Y00130328D01*
X00137793Y00130352D01*
X00137704Y00130484D01*
X00125839Y00142349D01*
X00125056Y00142873D01*
X00124837Y00143974D01*
X00123855Y00145445D01*
X00122384Y00146427D01*
X00120650Y00146772D01*
X00118916Y00146427D01*
X00117445Y00145445D01*
X00116463Y00143974D01*
X00116118Y00142240D01*
X00116463Y00140506D01*
X00117445Y00139035D01*
X00118916Y00138053D01*
X00119992Y00137839D01*
X00120195Y00137703D01*
X00121285Y00137486D01*
X00122645D01*
X00132841Y00127290D01*
Y00121040D01*
X00132862Y00120938D01*
Y00114540D01*
X00133077Y00113458D01*
X00133690Y00112540D01*
X00133788Y00110947D01*
X00131099Y00108259D01*
X00126784D01*
X00126257Y00109529D01*
X00127704Y00110976D01*
X00127704Y00110976D01*
X00128322Y00111900D01*
X00128539Y00112990D01*
Y00121040D01*
X00128518Y00121143D01*
Y00127540D01*
X00128303Y00128622D01*
X00127690Y00129540D01*
X00126772Y00130153D01*
X00125690Y00130368D01*
X00124608Y00130153D01*
X00124055Y00129784D01*
X00123190Y00129629D01*
X00122325Y00129784D01*
X00121772Y00130153D01*
X00120690Y00130368D01*
X00119608Y00130153D01*
X00119055Y00129784D01*
X00118190Y00129629D01*
X00117325Y00129784D01*
X00116772Y00130153D01*
X00115690Y00130368D01*
X00114608Y00130153D01*
X00114055Y00129784D01*
X00113190Y00129629D01*
X00112325Y00129784D01*
X00111772Y00130153D01*
X00110690Y00130368D01*
X00109608Y00130153D01*
X00109055Y00129784D01*
X00108190Y00129629D01*
X00107325Y00129784D01*
X00106772Y00130153D01*
X00105690Y00130368D01*
X00104608Y00130153D01*
X00104055Y00129784D01*
X00103190Y00129629D01*
X00102325Y00129784D01*
X00101772Y00130153D01*
X00100690Y00130368D01*
X00099608Y00130153D01*
X00099055Y00129784D01*
X00098190Y00129629D01*
X00097325Y00129784D01*
X00096772Y00130153D01*
X00095690Y00130368D01*
X00094608Y00130153D01*
X00093690Y00129540D01*
X00093077Y00128622D01*
X00092862Y00127540D01*
Y00114540D01*
X00091805Y00113345D01*
X00088358D01*
X00087679Y00114615D01*
X00088007Y00115106D01*
X00088352Y00116840D01*
X00088007Y00118574D01*
X00087025Y00120045D01*
X00085789Y00120871D01*
Y00130962D01*
X00089440D01*
X00090522Y00131177D01*
X00091440Y00131790D01*
X00092053Y00132708D01*
X00092268Y00133790D01*
X00092053Y00134872D01*
X00091440Y00135790D01*
X00090522Y00136403D01*
X00089440Y00136618D01*
X00083042D01*
X00082940Y00136639D01*
X00082837Y00136618D01*
X00076440D01*
X00075239Y00137674D01*
Y00139906D01*
X00076440Y00140962D01*
X00082837D01*
X00082940Y00140941D01*
X00100610D01*
X00100610Y00140941D01*
X00101700Y00141158D01*
X00102624Y00141776D01*
X00108800Y00147951D01*
X00109220Y00147868D01*
X00110954Y00148213D01*
X00112425Y00149195D01*
X00113407Y00150666D01*
X00113752Y00152400D01*
X00113407Y00154134D01*
X00112425Y00155605D01*
X00110954Y00156587D01*
X00109220Y00156932D01*
X00107486Y00156587D01*
X00107145Y00156359D01*
X00105787Y00156674D01*
X00105700Y00156805D01*
X00104805Y00158145D01*
X00103334Y00159127D01*
X00101600Y00159472D01*
X00099866Y00159127D01*
X00098395Y00158145D01*
X00097413Y00156674D01*
X00097068Y00154940D01*
X00097151Y00154520D01*
X00094270Y00151639D01*
X00092866D01*
X00092410Y00152238D01*
X00092093Y00152909D01*
X00092268Y00153790D01*
X00092053Y00154872D01*
X00091684Y00155425D01*
X00091529Y00156290D01*
X00091684Y00157155D01*
X00092053Y00157708D01*
X00092268Y00158790D01*
X00092053Y00159872D01*
X00091684Y00160425D01*
X00091529Y00161290D01*
X00091684Y00162155D01*
X00092053Y00162708D01*
X00092268Y00163790D01*
X00092093Y00164671D01*
X00092410Y00165342D01*
X00092866Y00165941D01*
X00114510D01*
X00148834Y00131617D01*
D02*
G37*
G36*
X00239530Y00261365D02*
Y00228345D01*
X00236990Y00225805D01*
X00220480D01*
Y00237235D01*
X00217940Y00239775D01*
X00204859D01*
Y00252184D01*
X00204892Y00252197D01*
X00204906Y00252231D01*
X00205548D01*
Y00252403D01*
X00213654D01*
X00214108Y00251308D01*
X00215274Y00250825D01*
X00217940D01*
X00219106Y00251308D01*
X00225932Y00258134D01*
X00226416Y00259301D01*
Y00261129D01*
X00228244D01*
X00229410Y00261612D01*
X00230536Y00262738D01*
X00231020Y00263905D01*
X00236990D01*
X00239530Y00261365D01*
D02*
G37*
G36*
X00229370Y00317245D02*
Y00281685D01*
Y00263905D01*
X00228244Y00262779D01*
X00224766D01*
Y00259301D01*
X00217940Y00252475D01*
X00215274D01*
Y00254053D01*
X00203726D01*
Y00253364D01*
X00201102D01*
Y00262129D01*
X00205114D01*
X00206280Y00262612D01*
X00210216Y00266548D01*
X00210700Y00267715D01*
X00210700Y00317245D01*
X00210588Y00317513D01*
X00212860Y00319785D01*
X00226830D01*
X00229370Y00317245D01*
D02*
G37*
G36*
X00201102Y00251714D02*
X00203209D01*
Y00239775D01*
X00203693Y00238608D01*
X00203726Y00238595D01*
Y00237957D01*
X00215274D01*
Y00238125D01*
X00217257D01*
X00218830Y00236552D01*
Y00230024D01*
X00215274D01*
X00214108Y00229541D01*
X00214085Y00229486D01*
X00204859D01*
X00203693Y00229003D01*
X00203209Y00227837D01*
Y00224721D01*
X00176216D01*
Y00227837D01*
Y00232917D01*
Y00237957D01*
Y00238570D01*
X00176307Y00238608D01*
X00176791Y00239775D01*
Y00251714D01*
X00178698D01*
X00179523Y00252056D01*
X00180348Y00251714D01*
X00183661D01*
X00183740Y00251747D01*
X00183822Y00251722D01*
X00184299Y00251977D01*
X00184938D01*
X00184988Y00251943D01*
X00185682Y00251805D01*
X00194198D01*
X00194892Y00251943D01*
X00194942Y00251977D01*
X00195581D01*
X00196057Y00251722D01*
X00196140Y00251747D01*
X00196219Y00251714D01*
X00199452D01*
X00200277Y00252056D01*
X00201102Y00251714D01*
D02*
G37*
G36*
X00218830Y00225805D02*
X00219314Y00224638D01*
X00220480Y00224155D01*
X00236990D01*
X00237815Y00224497D01*
X00238156Y00224638D01*
X00238686D01*
X00240030Y00223295D01*
Y00200435D01*
Y00191545D01*
X00237490Y00189005D01*
X00218440D01*
X00215900Y00191545D01*
Y00199165D01*
X00219710Y00202975D01*
X00219710Y00211865D01*
X00208280Y00223295D01*
X00205548D01*
Y00224721D01*
X00204859D01*
Y00227837D01*
X00215274D01*
Y00228375D01*
X00218830D01*
Y00225805D01*
D02*
G37*
G36*
X00167358Y00199916D02*
X00167358Y00199916D01*
X00168282Y00199298D01*
X00169372Y00199081D01*
X00169372Y00199081D01*
X00180364D01*
X00180682Y00198574D01*
X00180846Y00197811D01*
X00177691Y00194656D01*
X00177073Y00193732D01*
X00176856Y00192642D01*
X00176856Y00192642D01*
Y00185740D01*
X00172755Y00181639D01*
X00163440D01*
X00163337Y00181618D01*
X00156940D01*
X00156320Y00181495D01*
X00156300Y00181511D01*
X00155591Y00182636D01*
X00155655Y00182955D01*
X00155839Y00183399D01*
X00155774Y00183555D01*
X00155807Y00183721D01*
X00155794Y00183790D01*
X00155881Y00184229D01*
X00156129Y00184601D01*
X00156501Y00184849D01*
X00157102Y00184969D01*
X00160003D01*
X00160120Y00185017D01*
X00160243Y00184986D01*
X00160689Y00185253D01*
X00161170Y00185452D01*
X00161218Y00185569D01*
X00161327Y00185634D01*
X00161571Y00185962D01*
X00163337D01*
X00163440Y00185941D01*
X00163543Y00185962D01*
X00169940D01*
X00171022Y00186177D01*
X00171940Y00186790D01*
X00172553Y00187708D01*
X00172768Y00188790D01*
X00172553Y00189872D01*
X00171940Y00190790D01*
X00171022Y00191403D01*
X00169940Y00191618D01*
X00167216D01*
X00167092Y00191770D01*
X00166747Y00193504D01*
X00165765Y00194975D01*
X00165062Y00195444D01*
Y00195569D01*
X00165156Y00196041D01*
X00165062Y00196181D01*
Y00196350D01*
X00164729Y00196684D01*
X00164712Y00196767D01*
X00164712Y00196767D01*
X00164638Y00196817D01*
X00164511Y00197006D01*
X00164506Y00197018D01*
X00164497Y00197027D01*
X00164454Y00197091D01*
X00164391Y00197133D01*
X00163508Y00198016D01*
X00162341Y00198500D01*
X00154940D01*
X00154788Y00198437D01*
X00153518Y00199285D01*
Y00201437D01*
X00153539Y00201540D01*
Y00204120D01*
X00155485Y00206066D01*
X00161207D01*
X00167358Y00199916D01*
D02*
G37*
G36*
X00102841Y00229680D02*
Y00201540D01*
X00102862Y00201437D01*
Y00195040D01*
X00103077Y00193958D01*
X00103690Y00193040D01*
X00104608Y00192427D01*
X00105690Y00192212D01*
X00106772Y00192427D01*
X00107325Y00192796D01*
X00108190Y00192951D01*
X00109055Y00192796D01*
X00109608Y00192427D01*
X00110690Y00192212D01*
X00111772Y00192427D01*
X00112325Y00192796D01*
X00113190Y00192951D01*
X00114055Y00192796D01*
X00114371Y00192585D01*
X00114664Y00191585D01*
X00114696Y00191115D01*
X00111215Y00187634D01*
X00110737D01*
X00109684Y00188337D01*
X00107950Y00188682D01*
X00106216Y00188337D01*
X00104745Y00187355D01*
X00103855Y00186723D01*
X00103331Y00187059D01*
X00102811Y00187401D01*
X00102801Y00187399D01*
X00102792Y00187405D01*
X00102334Y00187487D01*
X00102185Y00187454D01*
X00102043Y00187513D01*
X00101585Y00187323D01*
X00101101Y00187217D01*
X00101018Y00187088D01*
X00100877Y00187030D01*
X00097894Y00184046D01*
X00097410Y00182880D01*
X00097410Y00173990D01*
X00097894Y00172824D01*
X00097905Y00172812D01*
X00097419Y00171639D01*
X00092866D01*
X00092410Y00172239D01*
X00092093Y00172909D01*
X00092268Y00173790D01*
X00092053Y00174872D01*
X00091684Y00175425D01*
X00091529Y00176290D01*
X00091684Y00177155D01*
X00092053Y00177708D01*
X00092268Y00178790D01*
X00092053Y00179872D01*
X00091684Y00180425D01*
X00091529Y00181290D01*
X00091684Y00182155D01*
X00092053Y00182708D01*
X00092268Y00183790D01*
X00092053Y00184872D01*
X00091684Y00185425D01*
X00091529Y00186290D01*
X00091684Y00187155D01*
X00092053Y00187708D01*
X00092268Y00188790D01*
X00092053Y00189872D01*
X00091440Y00190790D01*
X00090522Y00191403D01*
X00089440Y00191618D01*
X00083042D01*
X00082940Y00191639D01*
X00081630D01*
X00063151Y00210118D01*
X00063543Y00212090D01*
X00063056Y00214536D01*
X00062351Y00215591D01*
X00063030Y00216861D01*
X00076026D01*
Y00210276D01*
X00089074D01*
Y00211308D01*
X00090247Y00211794D01*
X00092841Y00209200D01*
Y00201540D01*
X00092862Y00201437D01*
Y00195040D01*
X00093077Y00193958D01*
X00093690Y00193040D01*
X00094608Y00192427D01*
X00095690Y00192212D01*
X00096772Y00192427D01*
X00097690Y00193040D01*
X00098303Y00193958D01*
X00098518Y00195040D01*
Y00201437D01*
X00098539Y00201540D01*
Y00210380D01*
X00098539Y00210380D01*
X00098322Y00211470D01*
X00097704Y00212394D01*
X00097704Y00212394D01*
X00091784Y00218314D01*
X00090860Y00218932D01*
X00089770Y00219149D01*
X00089074Y00220095D01*
Y00222324D01*
X00080555D01*
X00079436Y00223443D01*
X00079922Y00224616D01*
X00081824D01*
Y00237664D01*
X00082768Y00238451D01*
X00094070D01*
X00102841Y00229680D01*
D02*
G37*
G36*
X00163340Y00195852D02*
X00163340Y00195852D01*
X00163538Y00195719D01*
X00163042Y00194523D01*
X00162560Y00194619D01*
X00161470Y00194402D01*
X00160546Y00193784D01*
X00159928Y00192860D01*
X00159711Y00191770D01*
Y00190450D01*
X00159711Y00190450D01*
X00159928Y00189360D01*
X00160546Y00188436D01*
X00160690Y00188291D01*
X00160771Y00187888D01*
X00160534Y00187331D01*
X00160003Y00186618D01*
X00156940D01*
X00155858Y00186403D01*
X00154940Y00185790D01*
X00154327Y00184872D01*
X00154112Y00183790D01*
X00154189Y00183399D01*
X00147429Y00176639D01*
X00146050D01*
X00146027Y00176634D01*
X00146004Y00176639D01*
X00144914Y00176422D01*
X00143990Y00175804D01*
X00140835Y00172649D01*
X00140164Y00173097D01*
X00138430Y00173442D01*
X00136696Y00173097D01*
X00135225Y00172115D01*
X00134243Y00170644D01*
X00134151Y00170180D01*
X00118329Y00170180D01*
X00117704Y00170804D01*
X00116780Y00171422D01*
X00115690Y00171639D01*
X00115690Y00171639D01*
X00101411D01*
X00099060Y00173990D01*
X00099060Y00182880D01*
X00102043Y00185863D01*
X00102501Y00185781D01*
X00103461Y00184366D01*
X00103418Y00184150D01*
X00103763Y00182416D01*
X00104745Y00180945D01*
X00106216Y00179963D01*
X00107950Y00179618D01*
X00108608Y00179749D01*
X00109768Y00179070D01*
X00110113Y00177336D01*
X00111095Y00175865D01*
X00112566Y00174883D01*
X00114300Y00174538D01*
X00116034Y00174883D01*
X00117505Y00175865D01*
X00118487Y00177336D01*
X00118642Y00178113D01*
X00125294Y00184765D01*
X00126712Y00184387D01*
X00127485Y00183230D01*
X00128956Y00182248D01*
X00130690Y00181903D01*
X00131064Y00181977D01*
X00131962Y00181079D01*
X00131873Y00180630D01*
X00132218Y00178895D01*
X00133200Y00177425D01*
X00134671Y00176443D01*
X00136405Y00176098D01*
X00138139Y00176443D01*
X00139610Y00177425D01*
X00140592Y00178895D01*
X00140937Y00180630D01*
X00140592Y00182364D01*
X00139610Y00183834D01*
X00139254Y00184072D01*
Y00186690D01*
X00141796Y00186690D01*
X00142766Y00185721D01*
X00142766Y00185721D01*
X00143690Y00185103D01*
X00143739Y00185093D01*
X00144115Y00184530D01*
X00145586Y00183548D01*
X00147320Y00183203D01*
X00149054Y00183548D01*
X00150525Y00184530D01*
X00151507Y00186000D01*
X00151852Y00187735D01*
X00151507Y00189469D01*
X00150525Y00190940D01*
X00150475Y00190973D01*
X00150608Y00191736D01*
X00150857Y00192245D01*
X00151772Y00192427D01*
X00152690Y00193040D01*
X00153303Y00193958D01*
X00153518Y00195040D01*
Y00195428D01*
X00154940Y00196850D01*
X00162341D01*
X00163340Y00195852D01*
D02*
G37*
G36*
X00050880Y00228864D02*
Y00221057D01*
X00050708Y00220800D01*
X00050491Y00219710D01*
X00050708Y00218620D01*
X00051326Y00217696D01*
X00051734Y00217423D01*
X00052122Y00216020D01*
X00052097Y00215814D01*
X00051244Y00214536D01*
X00050757Y00212090D01*
X00051244Y00209644D01*
X00052630Y00207570D01*
X00054704Y00206184D01*
X00057150Y00205697D01*
X00059122Y00206089D01*
X00074433Y00190779D01*
X00073827Y00189872D01*
X00073612Y00188790D01*
X00073827Y00187708D01*
X00074196Y00187155D01*
X00074351Y00186290D01*
X00074196Y00185425D01*
X00073827Y00184872D01*
X00073612Y00183790D01*
X00073827Y00182708D01*
X00073733Y00182254D01*
X00073282Y00181237D01*
X00072636Y00180804D01*
X00072636Y00180804D01*
X00064594Y00172762D01*
X00063423Y00173388D01*
X00063543Y00173990D01*
X00063056Y00176436D01*
X00061670Y00178510D01*
X00059988Y00179634D01*
X00059953Y00179739D01*
Y00180941D01*
X00059988Y00181046D01*
X00061670Y00182170D01*
X00063056Y00184244D01*
X00063543Y00186690D01*
X00063056Y00189136D01*
X00061670Y00191210D01*
X00059596Y00192596D01*
X00057150Y00193083D01*
X00054704Y00192596D01*
X00052630Y00191210D01*
X00051673Y00191116D01*
X00048649Y00194140D01*
Y00228292D01*
X00049707Y00229350D01*
X00050880Y00228864D01*
D02*
G37*
G36*
X00168910Y00097790D02*
Y00059690D01*
X00175260Y00053340D01*
X00176756D01*
X00178087Y00052319D01*
X00179787Y00051615D01*
X00181610Y00051375D01*
X00183433Y00051615D01*
X00185133Y00052319D01*
X00186464Y00053340D01*
X00196706D01*
X00197160Y00053037D01*
X00199390Y00052593D01*
X00201620Y00053037D01*
X00202074Y00053340D01*
X00203056D01*
X00203510Y00053037D01*
X00205740Y00052593D01*
X00207970Y00053037D01*
X00208424Y00053340D01*
X00219710D01*
X00224790Y00058420D01*
X00226304Y00059934D01*
X00227620D01*
Y00061250D01*
X00228600Y00062230D01*
X00232380D01*
Y00059934D01*
X00242326D01*
X00243840Y00058420D01*
X00243840Y00046990D01*
X00237490Y00040640D01*
X00160020Y00040640D01*
X00151130Y00049530D01*
Y00061980D01*
X00151180Y00062230D01*
X00151180Y00097790D01*
X00151172Y00097831D01*
X00154940Y00101600D01*
X00165100D01*
X00168910Y00097790D01*
D02*
G37*
G36*
X00333539Y00376140D02*
X00329901Y00374633D01*
X00325451Y00371906D01*
X00321483Y00368517D01*
X00318093Y00364549D01*
X00315367Y00360099D01*
X00313370Y00355277D01*
X00312151Y00350203D01*
X00311742Y00345000D01*
X00312151Y00339797D01*
X00313370Y00334723D01*
X00315367Y00329901D01*
X00318093Y00325451D01*
X00321483Y00321483D01*
X00325451Y00318093D01*
X00329901Y00315367D01*
X00334723Y00313370D01*
X00339797Y00312151D01*
X00345000Y00311742D01*
X00350203Y00312151D01*
X00355277Y00313370D01*
X00360099Y00315367D01*
X00364549Y00318093D01*
X00368517Y00321483D01*
X00371906Y00325451D01*
X00374633Y00329901D01*
X00376140Y00333539D01*
X00377410Y00333287D01*
Y00053049D01*
X00376140Y00052691D01*
X00374048Y00056105D01*
X00370389Y00060389D01*
X00366105Y00064048D01*
X00361301Y00066992D01*
X00356096Y00069148D01*
X00350617Y00070464D01*
X00345000Y00070906D01*
X00339383Y00070464D01*
X00333904Y00069148D01*
X00328699Y00066992D01*
X00323895Y00064048D01*
X00319611Y00060389D01*
X00315952Y00056105D01*
X00313008Y00051301D01*
X00310852Y00046095D01*
X00309536Y00040617D01*
X00309094Y00035000D01*
X00309536Y00029383D01*
X00310852Y00023905D01*
X00313008Y00018699D01*
X00315952Y00013895D01*
X00319611Y00009611D01*
X00323895Y00005952D01*
X00327309Y00003860D01*
X00326951Y00002590D01*
X00273669D01*
X00273525Y00003800D01*
X00273525Y00003860D01*
Y00041900D01*
X00254475D01*
Y00003860D01*
X00254475Y00003800D01*
X00254331Y00002590D01*
X00125669D01*
X00125525Y00003800D01*
X00125525Y00003860D01*
Y00041601D01*
X00132932D01*
X00133898Y00040640D01*
X00134243Y00038906D01*
X00135225Y00037435D01*
X00136696Y00036453D01*
X00138430Y00036108D01*
X00140164Y00036453D01*
X00141635Y00037435D01*
X00142617Y00038906D01*
X00142962Y00040640D01*
X00142617Y00042374D01*
X00141635Y00043845D01*
X00140164Y00044827D01*
X00138430Y00045172D01*
X00138010Y00045089D01*
X00136634Y00046464D01*
X00136512Y00046546D01*
X00136552Y00047267D01*
X00136711Y00047940D01*
X00137172Y00048248D01*
X00147367Y00058443D01*
X00148540Y00057957D01*
Y00049530D01*
X00148737Y00048539D01*
X00149299Y00047699D01*
X00158189Y00038809D01*
X00159029Y00038247D01*
X00160020Y00038050D01*
X00237490Y00038050D01*
X00238481Y00038247D01*
X00239321Y00038809D01*
X00245671Y00045159D01*
X00246233Y00045999D01*
X00246430Y00046990D01*
X00246430Y00058420D01*
X00246233Y00059411D01*
X00246053Y00059680D01*
X00246604Y00060950D01*
X00246604D01*
X00246604Y00060950D01*
Y00099050D01*
X00243496D01*
Y00099431D01*
X00243230Y00100769D01*
X00242472Y00101903D01*
X00242472Y00101903D01*
X00242256Y00102119D01*
Y00116720D01*
X00243022Y00117865D01*
X00243373Y00119630D01*
Y00128130D01*
X00243022Y00129895D01*
X00242022Y00131392D01*
X00240525Y00132392D01*
X00238760Y00132743D01*
X00236995Y00132392D01*
X00235498Y00131392D01*
X00234499Y00129895D01*
X00234147Y00128130D01*
Y00119630D01*
X00234499Y00117865D01*
X00235264Y00116720D01*
Y00100671D01*
X00235334Y00100320D01*
X00234308Y00099050D01*
X00233396D01*
Y00065913D01*
X00232380Y00064820D01*
X00228600D01*
X00227874Y00064675D01*
X00226978Y00065160D01*
X00226604Y00065479D01*
Y00099050D01*
X00226223D01*
X00225737Y00100223D01*
X00228532Y00103019D01*
X00228532Y00103019D01*
X00228986Y00103699D01*
X00229290Y00104153D01*
X00229556Y00105491D01*
Y00116720D01*
X00230322Y00117865D01*
X00230673Y00119630D01*
Y00128130D01*
X00230322Y00129895D01*
X00229322Y00131392D01*
X00227825Y00132392D01*
X00226060Y00132743D01*
X00224295Y00132392D01*
X00222798Y00131392D01*
X00221798Y00129895D01*
X00221447Y00128130D01*
Y00119630D01*
X00221798Y00117865D01*
X00222564Y00116720D01*
Y00106939D01*
X00217528Y00101903D01*
X00216770Y00100769D01*
X00216504Y00099431D01*
Y00099050D01*
X00213396D01*
Y00060950D01*
X00221861D01*
X00222388Y00059680D01*
X00218637Y00055930D01*
X00208424D01*
X00208174Y00055880D01*
X00207919D01*
X00207683Y00055782D01*
X00207433Y00055733D01*
X00207221Y00055591D01*
X00206985Y00055493D01*
X00206959Y00055476D01*
X00205740Y00055233D01*
X00204521Y00055476D01*
X00204495Y00055493D01*
X00204259Y00055591D01*
X00204047Y00055733D01*
X00203797Y00055782D01*
X00203561Y00055880D01*
X00203306D01*
X00203056Y00055930D01*
X00202074D01*
X00201824Y00055880D01*
X00201569D01*
X00201333Y00055782D01*
X00201083Y00055733D01*
X00200871Y00055591D01*
X00200635Y00055493D01*
X00200609Y00055476D01*
X00199390Y00055233D01*
X00198171Y00055476D01*
X00198145Y00055493D01*
X00197909Y00055591D01*
X00197697Y00055733D01*
X00197447Y00055782D01*
X00197211Y00055880D01*
X00196956D01*
X00196706Y00055930D01*
X00190732D01*
X00190246Y00057103D01*
X00190396Y00057254D01*
X00190880Y00058420D01*
Y00105410D01*
X00191098Y00105736D01*
X00199090D01*
X00199090Y00105736D01*
X00200180Y00105953D01*
X00201105Y00106571D01*
X00210580Y00116046D01*
X00211595Y00115368D01*
X00213360Y00115017D01*
X00215125Y00115368D01*
X00216622Y00116368D01*
X00217621Y00117865D01*
X00217973Y00119630D01*
Y00128130D01*
X00217621Y00129895D01*
X00216622Y00131392D01*
X00215125Y00132392D01*
X00213360Y00132743D01*
X00211595Y00132392D01*
X00210098Y00131392D01*
X00209098Y00129895D01*
X00208747Y00128130D01*
Y00122271D01*
X00197910Y00111434D01*
X00196548D01*
X00196074Y00112320D01*
X00195984Y00112704D01*
X00196302Y00114300D01*
X00196295Y00114334D01*
X00203944Y00121983D01*
X00203944Y00121983D01*
X00204562Y00122908D01*
X00204779Y00123998D01*
X00204779Y00123998D01*
Y00129630D01*
X00210730Y00135581D01*
X00241300D01*
X00241300Y00135581D01*
X00242390Y00135798D01*
X00243314Y00136416D01*
X00253474Y00146576D01*
X00253474Y00146576D01*
X00254092Y00147500D01*
X00254309Y00148590D01*
Y00170592D01*
X00254722Y00170868D01*
X00255721Y00172365D01*
X00256073Y00174130D01*
Y00182630D01*
X00255721Y00184395D01*
X00254722Y00185892D01*
X00253225Y00186891D01*
X00251460Y00187243D01*
X00249695Y00186891D01*
X00248198Y00185892D01*
X00247199Y00184395D01*
X00246847Y00182630D01*
Y00174130D01*
X00247199Y00172365D01*
X00248198Y00170868D01*
X00248611Y00170592D01*
Y00149770D01*
X00240120Y00141279D01*
X00209550D01*
X00209550Y00141279D01*
X00208460Y00141062D01*
X00207536Y00140444D01*
X00199916Y00132824D01*
X00199298Y00131900D01*
X00199081Y00130810D01*
X00199081Y00130810D01*
Y00125178D01*
X00197175Y00123272D01*
X00196213Y00123563D01*
X00195879Y00123771D01*
X00194975Y00125125D01*
X00194619Y00125363D01*
Y00130900D01*
X00212499Y00148780D01*
X00213877Y00148362D01*
X00214087Y00147306D01*
X00215407Y00145331D01*
X00217381Y00144012D01*
X00219710Y00143549D01*
X00222039Y00144012D01*
X00224013Y00145331D01*
X00230363Y00151681D01*
X00230363Y00151681D01*
X00231683Y00153656D01*
X00232146Y00155985D01*
Y00178380D01*
X00232046Y00178883D01*
X00232752Y00179939D01*
X00232874Y00179963D01*
X00234345Y00180945D01*
X00235327Y00182416D01*
X00235672Y00184150D01*
X00235327Y00185884D01*
X00235193Y00186085D01*
X00235872Y00187355D01*
X00237490D01*
X00238315Y00187697D01*
X00238656Y00187838D01*
X00241196Y00190378D01*
X00241680Y00191545D01*
Y00200435D01*
Y00223295D01*
X00241196Y00224461D01*
X00240486Y00225172D01*
X00240376Y00226858D01*
X00240696Y00227178D01*
X00241180Y00228345D01*
Y00261365D01*
X00240838Y00262190D01*
X00240696Y00262531D01*
X00238156Y00265071D01*
X00236990Y00265554D01*
X00231020D01*
Y00281685D01*
Y00317245D01*
X00230678Y00318070D01*
X00230536Y00318411D01*
X00227996Y00320951D01*
X00226830Y00321434D01*
X00212860D01*
X00212035Y00321093D01*
X00211694Y00320951D01*
X00210320Y00319578D01*
X00209050D01*
X00207676Y00320951D01*
X00206510Y00321434D01*
X00193810D01*
X00192985Y00321093D01*
X00192644Y00320951D01*
X00190830Y00319137D01*
X00190000Y00318492D01*
X00189170Y00319137D01*
X00187356Y00320951D01*
X00186190Y00321434D01*
X00173490D01*
X00172665Y00321093D01*
X00172324Y00320951D01*
X00170315Y00318943D01*
X00168306Y00320951D01*
X00167140Y00321434D01*
X00153170D01*
X00152345Y00321093D01*
X00152004Y00320951D01*
X00149464Y00318411D01*
X00148980Y00317245D01*
Y00265554D01*
X00143010D01*
X00142185Y00265213D01*
X00141844Y00265071D01*
X00139304Y00262531D01*
X00138820Y00261365D01*
Y00249963D01*
X00138430Y00249642D01*
X00136696Y00249297D01*
X00135225Y00248315D01*
X00134243Y00246844D01*
X00133898Y00245110D01*
X00134243Y00243376D01*
X00135225Y00241905D01*
X00136696Y00240923D01*
X00138430Y00240578D01*
X00138820Y00240257D01*
Y00228345D01*
X00139162Y00227520D01*
X00139304Y00227178D01*
X00141844Y00224638D01*
X00143010Y00224155D01*
X00152889D01*
X00153743Y00222921D01*
X00153710Y00222758D01*
X00154028Y00221162D01*
X00153938Y00220778D01*
X00153464Y00219892D01*
X00116407D01*
X00116235Y00220149D01*
X00114764Y00221132D01*
X00113030Y00221477D01*
X00111296Y00221132D01*
X00109825Y00220149D01*
X00109809Y00220125D01*
X00108539Y00220510D01*
Y00230860D01*
X00108322Y00231950D01*
X00107704Y00232874D01*
X00107704Y00232874D01*
X00097264Y00243314D01*
X00096340Y00243932D01*
X00095250Y00244149D01*
X00095250Y00244149D01*
X00057628D01*
X00057628Y00244149D01*
X00056538Y00243932D01*
X00055613Y00243314D01*
X00055613Y00243314D01*
X00043786Y00231486D01*
X00043168Y00230562D01*
X00042951Y00229472D01*
X00042951Y00229472D01*
Y00192960D01*
X00042951Y00192960D01*
X00043168Y00191870D01*
X00043786Y00190946D01*
X00050056Y00184676D01*
X00050980Y00184058D01*
X00051427Y00183969D01*
X00052630Y00182170D01*
X00054312Y00181046D01*
X00054348Y00180941D01*
Y00179739D01*
X00054312Y00179634D01*
X00052630Y00178510D01*
X00051513Y00176839D01*
X00049530D01*
X00048440Y00176622D01*
X00047516Y00176004D01*
X00047516Y00176004D01*
X00039801Y00168290D01*
X00038844Y00168384D01*
X00038844Y00168384D01*
X00033978Y00173250D01*
X00034777Y00175178D01*
X00035056Y00177300D01*
X00034777Y00179422D01*
X00033958Y00181399D01*
X00032655Y00183097D01*
X00030957Y00184400D01*
X00028980Y00185219D01*
X00026858Y00185498D01*
X00013142D01*
X00011020Y00185219D01*
X00009043Y00184400D01*
X00007345Y00183097D01*
X00006042Y00181399D01*
X00005223Y00179422D01*
X00004944Y00177300D01*
X00005223Y00175178D01*
X00006042Y00173201D01*
X00007345Y00171503D01*
X00009043Y00170200D01*
X00011020Y00169381D01*
X00013142Y00169102D01*
X00026858D01*
X00028980Y00169381D01*
X00029553Y00169618D01*
X00033981Y00165190D01*
Y00158055D01*
X00032711Y00157624D01*
X00032655Y00157697D01*
X00030957Y00159000D01*
X00028980Y00159819D01*
X00026858Y00160098D01*
X00013142D01*
X00011020Y00159819D01*
X00009043Y00159000D01*
X00007345Y00157697D01*
X00006042Y00155999D01*
X00005223Y00154022D01*
X00004944Y00151900D01*
X00005223Y00149778D01*
X00006042Y00147801D01*
X00007345Y00146103D01*
X00009043Y00144800D01*
X00011020Y00143981D01*
X00013142Y00143702D01*
X00026858D01*
X00028980Y00143981D01*
X00030957Y00144800D01*
X00032655Y00146103D01*
X00032711Y00146176D01*
X00033981Y00145745D01*
Y00139610D01*
X00029300Y00134929D01*
X00026302D01*
X00026065Y00135285D01*
X00024594Y00136267D01*
X00022860Y00136612D01*
X00021126Y00136267D01*
X00019655Y00135285D01*
X00018673Y00133814D01*
X00018328Y00132080D01*
X00018673Y00130346D01*
X00019655Y00128875D01*
X00021126Y00127893D01*
X00022860Y00127548D01*
X00024594Y00127893D01*
X00026065Y00128875D01*
X00026302Y00129231D01*
X00030480D01*
X00030480Y00129231D01*
X00031570Y00129448D01*
X00032494Y00130066D01*
X00037054Y00134625D01*
X00038227Y00134139D01*
Y00102434D01*
X00038227Y00102434D01*
X00038444Y00101344D01*
X00039062Y00100420D01*
X00042061Y00097421D01*
X00042346Y00096194D01*
X00042346D01*
X00042346Y00096194D01*
Y00085176D01*
X00042346Y00085176D01*
Y00085171D01*
Y00085045D01*
X00042346Y00084984D01*
Y00084955D01*
Y00084954D01*
X00042346Y00084954D01*
X00042346Y00084953D01*
Y00084953D01*
Y00084953D01*
X00042338Y00084947D01*
X00042329Y00084939D01*
X00042327Y00084938D01*
X00042316Y00084929D01*
X00042302Y00084917D01*
X00042298Y00084915D01*
X00042296Y00084913D01*
X00042293Y00084911D01*
X00042293Y00084910D01*
X00042274Y00084904D01*
X00042246Y00084894D01*
X00042227Y00084888D01*
X00042198Y00084878D01*
X00042179Y00084871D01*
X00042091Y00084841D01*
X00041995Y00084808D01*
X00041992Y00084807D01*
X00041982Y00084804D01*
X00041929Y00084786D01*
X00041904Y00084777D01*
X00041900Y00084776D01*
X00041899Y00084775D01*
X00041899Y00084775D01*
X00041899Y00084775D01*
X00041724Y00084715D01*
X00041724D01*
X00041076Y00084493D01*
X00036394Y00089175D01*
Y00096194D01*
X00026346D01*
Y00084146D01*
X00033365D01*
X00035926Y00081586D01*
X00035183Y00080474D01*
X00034838Y00078740D01*
X00035183Y00077006D01*
X00036165Y00075535D01*
X00037636Y00074553D01*
X00039370Y00074208D01*
X00041104Y00074553D01*
X00042575Y00075535D01*
X00043557Y00077006D01*
X00043902Y00078740D01*
X00043557Y00080474D01*
X00042575Y00081945D01*
X00042216Y00082184D01*
X00042167Y00082431D01*
X00042478Y00083631D01*
X00042478Y00083631D01*
X00042937Y00084146D01*
X00042937Y00084146D01*
X00042940D01*
X00042973D01*
X00043035Y00084146D01*
X00043035Y00084146D01*
X00043051D01*
X00043053D01*
X00043060Y00084146D01*
X00043241Y00084146D01*
X00043241Y00084146D01*
X00043241D01*
X00043281Y00084146D01*
X00043282D01*
X00052394D01*
Y00096194D01*
X00052352D01*
X00051866Y00097367D01*
X00062146Y00107647D01*
X00068802D01*
X00069329Y00106377D01*
X00057676Y00094724D01*
X00057058Y00093800D01*
X00056841Y00092710D01*
X00056841Y00092710D01*
Y00083453D01*
X00056485Y00083215D01*
X00055503Y00081744D01*
X00055158Y00080010D01*
X00055503Y00078276D01*
X00056485Y00076805D01*
X00057956Y00075823D01*
X00059690Y00075478D01*
X00061424Y00075823D01*
X00062895Y00076805D01*
X00063877Y00078276D01*
X00064222Y00080010D01*
X00063877Y00081744D01*
X00062895Y00083215D01*
X00062539Y00083453D01*
Y00091530D01*
X00073570Y00102561D01*
X00081633D01*
X00082119Y00101388D01*
X00077996Y00097264D01*
X00077378Y00096340D01*
X00077161Y00095250D01*
X00077161Y00095250D01*
Y00057150D01*
X00077161Y00057150D01*
X00077378Y00056060D01*
X00077996Y00055136D01*
X00090696Y00042436D01*
X00090696Y00042436D01*
X00091620Y00041818D01*
X00092710Y00041601D01*
X00092710Y00041601D01*
X00105577D01*
X00106475Y00040703D01*
Y00003860D01*
X00106475Y00003800D01*
X00106331Y00002590D01*
X00053049D01*
X00052691Y00003860D01*
X00056105Y00005952D01*
X00060389Y00009611D01*
X00064048Y00013895D01*
X00066992Y00018699D01*
X00069148Y00023905D01*
X00070464Y00029383D01*
X00070906Y00035000D01*
X00070464Y00040617D01*
X00069148Y00046095D01*
X00066992Y00051301D01*
X00064048Y00056105D01*
X00060389Y00060389D01*
X00056105Y00064048D01*
X00051301Y00066992D01*
X00046095Y00069148D01*
X00040617Y00070464D01*
X00035000Y00070906D01*
X00029383Y00070464D01*
X00023905Y00069148D01*
X00018699Y00066992D01*
X00013895Y00064048D01*
X00009611Y00060389D01*
X00005952Y00056105D01*
X00003860Y00052691D01*
X00002590Y00053049D01*
Y00333287D01*
X00003860Y00333539D01*
X00005367Y00329901D01*
X00008094Y00325451D01*
X00011483Y00321483D01*
X00015451Y00318093D01*
X00019901Y00315367D01*
X00024723Y00313370D01*
X00029797Y00312151D01*
X00035000Y00311742D01*
X00040203Y00312151D01*
X00045277Y00313370D01*
X00050099Y00315367D01*
X00054549Y00318093D01*
X00058517Y00321483D01*
X00061906Y00325451D01*
X00064633Y00329901D01*
X00066630Y00334723D01*
X00067849Y00339797D01*
X00068258Y00345000D01*
X00067849Y00350203D01*
X00066630Y00355277D01*
X00064633Y00360099D01*
X00061906Y00364549D01*
X00058517Y00368517D01*
X00054549Y00371906D01*
X00050099Y00374633D01*
X00046461Y00376140D01*
X00046714Y00377410D01*
X00126331D01*
X00126475Y00376200D01*
X00126475Y00376140D01*
Y00338100D01*
X00145525D01*
Y00376140D01*
X00145525Y00376200D01*
X00145669Y00377410D01*
X00234331D01*
X00234475Y00376200D01*
X00234475Y00376140D01*
Y00338100D01*
X00253525D01*
Y00376140D01*
X00253525Y00376200D01*
X00253669Y00377410D01*
X00333287D01*
X00333539Y00376140D01*
D02*
G37*
G36*
X00173881Y00106571D02*
X00174805Y00105953D01*
X00175895Y00105736D01*
X00188904D01*
X00189230Y00105410D01*
Y00058420D01*
X00186740Y00055930D01*
X00186464D01*
X00186131Y00055864D01*
X00185793Y00055841D01*
X00185640Y00055766D01*
X00185473Y00055733D01*
X00185191Y00055544D01*
X00184887Y00055395D01*
X00183827Y00054581D01*
X00182757Y00054138D01*
X00181978Y00054035D01*
X00181242D01*
X00180463Y00054138D01*
X00179393Y00054581D01*
X00178333Y00055395D01*
X00178029Y00055544D01*
X00177747Y00055733D01*
X00177580Y00055766D01*
X00177427Y00055841D01*
X00177089Y00055864D01*
X00176756Y00055930D01*
X00176333D01*
X00171500Y00060763D01*
Y00097790D01*
X00171450Y00098040D01*
Y00105410D01*
X00172672Y00106632D01*
X00173881Y00106571D01*
D02*
G37*
G36*
X00148590Y00097790D02*
X00148590Y00062230D01*
X00135890Y00049530D01*
X00100330D01*
X00097790Y00052070D01*
Y00057150D01*
X00102870Y00062230D01*
X00121920D01*
X00130810Y00071120D01*
X00130810Y00097790D01*
X00131258Y00098238D01*
X00133962D01*
X00135152Y00098475D01*
X00136160Y00099149D01*
X00138611Y00101600D01*
X00144780D01*
X00148590Y00097790D01*
D02*
G37*
G36*
X00200160Y00277875D02*
Y00272795D01*
X00196350Y00268985D01*
X00195080Y00267715D01*
Y00264915D01*
X00194198Y00264033D01*
X00194198D01*
Y00253618D01*
X00185682D01*
Y00264033D01*
X00184920D01*
Y00267715D01*
X00183650Y00268985D01*
X00179840Y00272795D01*
Y00277875D01*
X00182380Y00280415D01*
X00197620D01*
X00200160Y00277875D01*
D02*
G37*
G36*
X00188730Y00317245D02*
Y00282228D01*
X00182380D01*
X00181686Y00282090D01*
X00181098Y00281697D01*
X00178558Y00279157D01*
X00178165Y00278569D01*
X00178027Y00277875D01*
Y00272795D01*
X00178165Y00272101D01*
X00178558Y00271513D01*
X00182368Y00267703D01*
X00182368Y00267703D01*
X00183107Y00266964D01*
Y00264033D01*
X00183245Y00263339D01*
X00183638Y00262751D01*
X00183869Y00262597D01*
Y00253618D01*
X00183661Y00253364D01*
X00180348D01*
Y00263779D01*
X00174886D01*
X00170950Y00267715D01*
X00170950Y00317245D01*
X00173490Y00319785D01*
X00186190D01*
X00188730Y00317245D01*
D02*
G37*
G36*
X00169412Y00317513D02*
X00169300Y00317245D01*
X00169300Y00267715D01*
X00169642Y00266890D01*
X00169783Y00266548D01*
X00173720Y00262612D01*
X00174886Y00262129D01*
X00178698D01*
Y00253364D01*
X00176216D01*
Y00254053D01*
X00164668D01*
Y00252475D01*
X00162060D01*
X00155234Y00259301D01*
Y00262779D01*
X00151756D01*
X00150630Y00263905D01*
Y00317245D01*
X00153170Y00319785D01*
X00167140D01*
X00169412Y00317513D01*
D02*
G37*
G36*
X00209050Y00317245D02*
X00209050Y00267715D01*
X00205114Y00263779D01*
X00199452D01*
Y00253364D01*
X00196219D01*
X00196011Y00253618D01*
Y00263282D01*
X00196362Y00263633D01*
X00196755Y00264221D01*
X00196893Y00264915D01*
Y00266964D01*
X00197632Y00267703D01*
X00201442Y00271513D01*
X00201835Y00272101D01*
X00201973Y00272795D01*
Y00277875D01*
X00201835Y00278569D01*
X00201442Y00279157D01*
X00198902Y00281697D01*
X00198314Y00282090D01*
X00197620Y00282228D01*
X00191270D01*
Y00314705D01*
Y00317245D01*
X00193810Y00319785D01*
X00206510D01*
X00209050Y00317245D01*
D02*
G37*
%LPC*%
G36*
X00298450Y00042632D02*
X00296716Y00042287D01*
X00295245Y00041305D01*
X00294263Y00039834D01*
X00293918Y00038100D01*
X00294263Y00036366D01*
X00295245Y00034895D01*
X00296716Y00033913D01*
X00298450Y00033568D01*
X00300184Y00033913D01*
X00301655Y00034895D01*
X00302637Y00036366D01*
X00302982Y00038100D01*
X00302637Y00039834D01*
X00301655Y00041305D01*
X00300184Y00042287D01*
X00298450Y00042632D01*
D02*
G37*
G36*
X00366858Y00160098D02*
X00353142D01*
X00351020Y00159819D01*
X00349043Y00159000D01*
X00347345Y00157697D01*
X00346042Y00155999D01*
X00345223Y00154022D01*
X00344944Y00151900D01*
X00345223Y00149778D01*
X00346042Y00147801D01*
X00347345Y00146103D01*
X00349043Y00144800D01*
X00351020Y00143981D01*
X00353142Y00143702D01*
X00366858D01*
X00368980Y00143981D01*
X00370957Y00144800D01*
X00372655Y00146103D01*
X00373958Y00147801D01*
X00374777Y00149778D01*
X00375056Y00151900D01*
X00374777Y00154022D01*
X00373958Y00155999D01*
X00372655Y00157697D01*
X00370957Y00159000D01*
X00368980Y00159819D01*
X00366858Y00160098D01*
D02*
G37*
G36*
X00251460Y00132743D02*
X00249695Y00132392D01*
X00248198Y00131392D01*
X00247199Y00129895D01*
X00246847Y00128130D01*
Y00127721D01*
X00245837Y00126209D01*
X00245374Y00123880D01*
X00245837Y00121551D01*
X00246847Y00120039D01*
Y00119630D01*
X00247199Y00117865D01*
X00248198Y00116368D01*
X00249695Y00115368D01*
X00251460Y00115017D01*
X00253225Y00115368D01*
X00253922Y00115834D01*
X00266320D01*
X00266631Y00115896D01*
X00271344D01*
Y00118695D01*
X00271943Y00119591D01*
X00272406Y00121920D01*
X00271943Y00124249D01*
X00271344Y00125145D01*
Y00127944D01*
X00266631D01*
X00266320Y00128006D01*
X00256073D01*
Y00128130D01*
X00255721Y00129895D01*
X00254722Y00131392D01*
X00253225Y00132392D01*
X00251460Y00132743D01*
D02*
G37*
G36*
X00268250Y00347472D02*
X00265929Y00347166D01*
X00263767Y00346270D01*
X00263473Y00346045D01*
X00261210D01*
Y00343934D01*
X00260485Y00342988D01*
X00259589Y00340826D01*
X00259283Y00338505D01*
Y00313410D01*
X00259589Y00311089D01*
X00260485Y00308927D01*
X00261910Y00307070D01*
X00269250Y00299730D01*
X00271107Y00298305D01*
X00271322Y00298215D01*
X00271514Y00296759D01*
X00272461Y00294473D01*
X00273967Y00292509D01*
X00275931Y00291003D01*
X00278217Y00290056D01*
X00280670Y00289733D01*
X00283123Y00290056D01*
X00285410Y00291003D01*
X00287373Y00292509D01*
X00288879Y00294473D01*
X00289826Y00296759D01*
X00290149Y00299212D01*
Y00312928D01*
X00289826Y00315381D01*
X00288879Y00317668D01*
X00287373Y00319631D01*
X00285410Y00321137D01*
X00283123Y00322084D01*
X00280670Y00322407D01*
X00278487Y00322120D01*
X00277217Y00322862D01*
Y00331981D01*
X00287774D01*
Y00335656D01*
X00292775D01*
X00301758Y00326673D01*
X00301272Y00325500D01*
X00298450D01*
X00297284Y00325016D01*
X00292204Y00319936D01*
X00291720Y00318770D01*
Y00294640D01*
X00292062Y00293815D01*
X00292204Y00293474D01*
X00299548Y00286130D01*
X00299021Y00284860D01*
X00287020D01*
X00286195Y00284518D01*
X00285854Y00284376D01*
X00283314Y00281836D01*
X00282830Y00280670D01*
Y00276860D01*
X00283172Y00276035D01*
X00283314Y00275694D01*
X00285854Y00273154D01*
X00287020Y00272670D01*
X00297767D01*
X00297792Y00272646D01*
X00298907Y00272183D01*
X00299340Y00271138D01*
Y00267342D01*
X00298907Y00266297D01*
X00298133Y00265976D01*
X00297792Y00265834D01*
X00297767Y00265810D01*
X00285750D01*
X00284584Y00265326D01*
X00283314Y00264056D01*
X00282830Y00262890D01*
Y00251460D01*
X00283172Y00250635D01*
X00283314Y00250294D01*
X00285370Y00248237D01*
Y00223531D01*
X00284604Y00222155D01*
X00284584Y00222146D01*
X00280774Y00218336D01*
X00280290Y00217170D01*
Y00195580D01*
X00280774Y00194414D01*
X00282830Y00192357D01*
X00282830Y00166992D01*
X00281560Y00166466D01*
X00278623Y00169403D01*
X00276649Y00170723D01*
X00274320Y00171186D01*
X00271991Y00170723D01*
X00270017Y00169403D01*
X00268697Y00167429D01*
X00268234Y00165100D01*
X00268697Y00162771D01*
X00270017Y00160797D01*
X00271904Y00158909D01*
Y00156074D01*
X00271466D01*
Y00136026D01*
X00283320D01*
X00283348Y00135960D01*
X00289664Y00129643D01*
X00290488Y00129302D01*
X00290830Y00129160D01*
X00290830D01*
X00311150Y00129160D01*
X00312316Y00129644D01*
X00318632Y00135960D01*
X00319116Y00137126D01*
Y00155992D01*
X00319150Y00156074D01*
Y00163147D01*
X00336446Y00180444D01*
X00336930Y00181610D01*
Y00299720D01*
X00336446Y00300886D01*
X00312316Y00325016D01*
X00311150Y00325500D01*
X00309735D01*
X00308919Y00326390D01*
X00308702Y00327480D01*
X00308084Y00328404D01*
X00308084Y00328404D01*
X00295970Y00340519D01*
X00295045Y00341137D01*
X00293955Y00341354D01*
X00293955Y00341354D01*
X00287774D01*
Y00345029D01*
X00275726D01*
X00275290Y00346045D01*
Y00346045D01*
X00273027D01*
X00272733Y00346270D01*
X00270571Y00347166D01*
X00268250Y00347472D01*
D02*
G37*
G36*
X00259080Y00111237D02*
X00256850Y00110793D01*
X00254960Y00109530D01*
X00253697Y00107640D01*
X00253253Y00105410D01*
X00253697Y00103180D01*
X00254328Y00102235D01*
X00253697Y00101290D01*
X00253253Y00099060D01*
X00253697Y00096830D01*
X00254960Y00094940D01*
X00256850Y00093677D01*
X00259080Y00093233D01*
X00261310Y00093677D01*
X00263200Y00094940D01*
X00264463Y00096830D01*
X00264907Y00099060D01*
X00264463Y00101290D01*
X00263832Y00102235D01*
X00264463Y00103180D01*
X00264907Y00105410D01*
X00264463Y00107640D01*
X00263200Y00109530D01*
X00261310Y00110793D01*
X00259080Y00111237D01*
D02*
G37*
G36*
X00125730Y00297498D02*
X00085090D01*
X00084396Y00297360D01*
X00083808Y00296967D01*
X00077458Y00290617D01*
X00077065Y00290029D01*
X00076927Y00289335D01*
Y00276635D01*
Y00265430D01*
X00077065Y00264736D01*
X00077458Y00264148D01*
X00083808Y00257798D01*
X00084396Y00257405D01*
X00085090Y00257267D01*
X00122534Y00257267D01*
X00123228Y00257405D01*
X00123816Y00257798D01*
X00124714Y00258696D01*
X00125107Y00259284D01*
X00125245Y00259978D01*
Y00261220D01*
X00129683D01*
X00130377Y00261358D01*
X00130965Y00261751D01*
X00133362Y00264148D01*
X00133755Y00264736D01*
X00133893Y00265430D01*
Y00289335D01*
X00133755Y00290029D01*
X00133362Y00290617D01*
X00127012Y00296967D01*
X00126424Y00297360D01*
X00125730Y00297498D01*
D02*
G37*
G36*
X00275336Y00283312D02*
X00260604D01*
Y00275403D01*
X00257066Y00271864D01*
X00256448Y00270940D01*
X00256231Y00269850D01*
X00256231Y00269850D01*
Y00245110D01*
X00256231Y00245110D01*
X00256448Y00244020D01*
X00257066Y00243096D01*
X00262251Y00237910D01*
X00262168Y00237490D01*
X00262513Y00235756D01*
X00263495Y00234285D01*
X00264966Y00233303D01*
X00266700Y00232958D01*
X00268434Y00233303D01*
X00269905Y00234285D01*
X00270887Y00235756D01*
X00271232Y00237490D01*
X00270887Y00239224D01*
X00269905Y00240695D01*
X00268434Y00241677D01*
X00266700Y00242022D01*
X00266280Y00241939D01*
X00264735Y00243484D01*
X00265360Y00244654D01*
X00266700Y00244388D01*
X00268434Y00244733D01*
X00269905Y00245715D01*
X00270887Y00247186D01*
X00271232Y00248920D01*
X00270887Y00250654D01*
X00270819Y00250757D01*
Y00255016D01*
X00275336D01*
Y00264160D01*
X00261929D01*
Y00268670D01*
X00267427Y00274168D01*
X00275336D01*
Y00283312D01*
D02*
G37*
G36*
X00222250Y00360132D02*
X00220516Y00359787D01*
X00219045Y00358805D01*
X00218063Y00357334D01*
X00217718Y00355600D01*
X00218063Y00353866D01*
X00219045Y00352395D01*
X00220516Y00351413D01*
X00222250Y00351068D01*
X00223984Y00351413D01*
X00225455Y00352395D01*
X00226437Y00353866D01*
X00226782Y00355600D01*
X00226437Y00357334D01*
X00225455Y00358805D01*
X00223984Y00359787D01*
X00222250Y00360132D01*
D02*
G37*
G36*
X00109220Y00362731D02*
X00106891Y00362267D01*
X00104917Y00360948D01*
X00103597Y00358974D01*
X00103134Y00356645D01*
Y00350589D01*
X00102696D01*
Y00340541D01*
X00105441D01*
X00105567Y00340348D01*
X00105014Y00339244D01*
X00081055D01*
X00079888Y00338761D01*
X00075034Y00333906D01*
X00074550Y00332740D01*
Y00322355D01*
X00075034Y00321188D01*
X00085194Y00311028D01*
X00086360Y00310545D01*
X00105410Y00310545D01*
X00106235Y00310887D01*
X00106576Y00311028D01*
X00116736Y00321188D01*
X00117220Y00322355D01*
Y00333785D01*
X00116736Y00334951D01*
X00112926Y00338761D01*
X00112478Y00339607D01*
X00112469Y00340325D01*
X00112702Y00340541D01*
X00114744D01*
Y00343588D01*
X00114843Y00343736D01*
X00115306Y00346065D01*
Y00356645D01*
X00114843Y00358974D01*
X00113523Y00360948D01*
X00111549Y00362267D01*
X00109220Y00362731D01*
D02*
G37*
G36*
X00366858Y00236298D02*
X00353142D01*
X00351020Y00236019D01*
X00349043Y00235200D01*
X00347345Y00233897D01*
X00346042Y00232199D01*
X00345223Y00230222D01*
X00344944Y00228100D01*
X00345223Y00225978D01*
X00346042Y00224001D01*
X00347345Y00222303D01*
X00349043Y00221000D01*
X00351020Y00220181D01*
X00353142Y00219902D01*
X00366858D01*
X00368980Y00220181D01*
X00370957Y00221000D01*
X00372655Y00222303D01*
X00373958Y00224001D01*
X00374777Y00225978D01*
X00375056Y00228100D01*
X00374777Y00230222D01*
X00373958Y00232199D01*
X00372655Y00233897D01*
X00370957Y00235200D01*
X00368980Y00236019D01*
X00366858Y00236298D01*
D02*
G37*
G36*
X00026858D02*
X00013142D01*
X00011020Y00236019D01*
X00009043Y00235200D01*
X00007345Y00233897D01*
X00006042Y00232199D01*
X00005223Y00230222D01*
X00004944Y00228100D01*
X00005223Y00225978D01*
X00006042Y00224001D01*
X00007345Y00222303D01*
X00009043Y00221000D01*
X00011020Y00220181D01*
X00013142Y00219902D01*
X00026858D01*
X00028980Y00220181D01*
X00030957Y00221000D01*
X00032655Y00222303D01*
X00033958Y00224001D01*
X00034777Y00225978D01*
X00035056Y00228100D01*
X00034777Y00230222D01*
X00033958Y00232199D01*
X00032655Y00233897D01*
X00030957Y00235200D01*
X00028980Y00236019D01*
X00026858Y00236298D01*
D02*
G37*
G36*
X00366858Y00210898D02*
X00353142D01*
X00351020Y00210619D01*
X00349043Y00209800D01*
X00347345Y00208497D01*
X00346042Y00206799D01*
X00345223Y00204822D01*
X00344944Y00202700D01*
X00345223Y00200578D01*
X00346042Y00198601D01*
X00347345Y00196903D01*
X00349043Y00195600D01*
X00351020Y00194781D01*
X00353142Y00194502D01*
X00366858D01*
X00368980Y00194781D01*
X00370957Y00195600D01*
X00372655Y00196903D01*
X00373958Y00198601D01*
X00374777Y00200578D01*
X00375056Y00202700D01*
X00374777Y00204822D01*
X00373958Y00206799D01*
X00372655Y00208497D01*
X00370957Y00209800D01*
X00368980Y00210619D01*
X00366858Y00210898D01*
D02*
G37*
%LPD*%
G36*
X00115570Y00333785D02*
Y00322355D01*
X00105410Y00312195D01*
X00086360Y00312195D01*
X00076200Y00322355D01*
Y00332740D01*
X00081055Y00337595D01*
X00111760D01*
X00115570Y00333785D01*
D02*
G37*
G36*
X00335280Y00299720D02*
Y00181610D01*
X00317500Y00163830D01*
Y00156074D01*
X00317466D01*
Y00137126D01*
X00311150Y00130810D01*
X00290830Y00130810D01*
X00284514Y00137126D01*
Y00156074D01*
X00284514D01*
X00284480Y00156108D01*
X00284480Y00193040D01*
X00281940Y00195580D01*
Y00217170D01*
X00285750Y00220980D01*
X00298450Y00220980D01*
X00299546Y00222076D01*
X00299794D01*
Y00222324D01*
X00302260Y00224790D01*
X00303530Y00226060D01*
Y00252511D01*
X00304274Y00253256D01*
X00304892Y00254180D01*
X00305109Y00255270D01*
X00305109Y00255270D01*
Y00275590D01*
X00305109Y00275590D01*
X00304892Y00276680D01*
X00304274Y00277604D01*
X00304274Y00277604D01*
X00303530Y00278349D01*
Y00283210D01*
Y00284480D01*
X00293370Y00294640D01*
Y00318770D01*
X00298450Y00323850D01*
X00311150D01*
X00335280Y00299720D01*
D02*
G37*
G36*
X00301880Y00281050D02*
Y00278349D01*
X00302364Y00277182D01*
X00302993Y00276553D01*
X00303338Y00276036D01*
X00303459Y00275428D01*
Y00255432D01*
X00303338Y00254823D01*
X00302993Y00254307D01*
X00302364Y00253678D01*
X00301880Y00252511D01*
Y00226743D01*
X00301094Y00225956D01*
X00301094Y00225956D01*
X00298628Y00223490D01*
X00298555Y00223315D01*
X00298380Y00223242D01*
X00297767Y00222630D01*
X00287921Y00222630D01*
X00287020Y00223531D01*
Y00248920D01*
X00284480Y00251460D01*
Y00262890D01*
X00285750Y00264160D01*
X00298450D01*
X00298958Y00264668D01*
X00300536D01*
Y00266246D01*
X00300990Y00266700D01*
Y00271780D01*
X00300536Y00272234D01*
Y00273812D01*
X00298958D01*
X00298450Y00274320D01*
X00287020D01*
X00284480Y00276860D01*
Y00280670D01*
X00287020Y00283210D01*
X00299720D01*
X00301880Y00281050D01*
D02*
G37*
G36*
X00132080Y00289335D02*
Y00265430D01*
X00129683Y00263033D01*
X00123432D01*
Y00259978D01*
X00122534Y00259080D01*
X00085090Y00259080D01*
X00078740Y00265430D01*
Y00276635D01*
Y00289335D01*
X00085090Y00295685D01*
X00125730D01*
X00132080Y00289335D01*
D02*
G37*
D10*
X00181110Y00140715D02*
G03*
X00173686Y00143790I-00007424J-00007424D01*
G01*
X00184920Y00147065D02*
G03*
X00180755Y00148790I-00004165J-00004165D01*
G01*
X00188730Y00153415D02*
G03*
X00187824Y00153790I-00000906J-00000906D01*
G01*
X00259080Y00245110D02*
X00266700Y00237490D01*
X00259080Y00245110D02*
Y00269850D01*
X00057150Y00212090D02*
X00080450Y00188790D01*
X00082940D01*
X00172502Y00218440D02*
X00176793D01*
X00113128Y00217043D02*
X00165754D01*
X00172739Y00210058D01*
X00149396Y00212979D02*
X00164071D01*
X00171056Y00205994D01*
X00154305Y00208915D02*
X00162387D01*
X00169372Y00201930D01*
X00176793Y00218440D02*
X00176793Y00218440D01*
X00172739Y00210058D02*
X00178204D01*
X00171056Y00205994D02*
X00179888D01*
X00169372Y00201930D02*
X00181571D01*
X00160020Y00203200D02*
X00165354Y00197866D01*
X00113030Y00216945D02*
X00113128Y00217043D01*
X00145690Y00209273D02*
X00149396Y00212979D01*
X00150690Y00205300D02*
X00154305Y00208915D01*
X00176793Y00218947D02*
X00177300D01*
X00154550Y00121040D02*
X00161290Y00114300D01*
Y00111760D02*
Y00114300D01*
X00165100Y00128270D02*
X00177800D01*
X00165354Y00197866D02*
X00174244D01*
X00165833Y00222562D02*
X00166029Y00222758D01*
X00166043D01*
X00162560Y00190450D02*
Y00191770D01*
X00156504Y00224496D02*
Y00232941D01*
Y00224496D02*
X00158242Y00222758D01*
X00135690Y00121040D02*
Y00128470D01*
X00123825Y00140335D02*
X00135690Y00128470D01*
X00121285Y00140335D02*
X00123825D01*
X00120650Y00140970D02*
Y00142240D01*
Y00140970D02*
X00121285Y00140335D01*
X00095450Y00148790D02*
X00101600Y00154940D01*
X00082940Y00148790D02*
X00095450D01*
X00100610Y00143790D02*
X00109220Y00152400D01*
X00059690Y00092710D02*
X00072390Y00105410D01*
X00059690Y00080010D02*
Y00092710D01*
X00166370Y00222025D02*
X00170150Y00225805D01*
X00165833Y00222562D02*
X00166370Y00222025D01*
X00180340Y00079660D02*
X00184150Y00083470D01*
Y00102870D01*
X00176530Y00083470D02*
Y00102870D01*
X00057150Y00161290D02*
X00074650Y00178790D01*
X00082940D01*
X00108585Y00184785D02*
X00112395D01*
X00107950Y00184150D02*
X00108585Y00184785D01*
X00112395D02*
X00120690Y00193080D01*
X00114300Y00179070D02*
X00115570D01*
X00124975Y00188475D01*
X00162560Y00190450D02*
X00163830Y00189180D01*
X00045800Y00192960D02*
X00052070Y00186690D01*
X00057150D01*
X00022860Y00132080D02*
X00030480D01*
X00020000Y00177300D02*
X00025900D01*
X00360000Y00227920D02*
Y00228100D01*
X00089770Y00216300D02*
X00095690Y00210380D01*
Y00201540D02*
Y00210380D01*
X00082550Y00216300D02*
X00089770D01*
X00053340Y00219710D02*
X00079140D01*
X00213360Y00122855D02*
Y00123880D01*
X00199090Y00108585D02*
X00213360Y00122855D01*
X00241300Y00138430D02*
X00251460Y00148590D01*
Y00178380D01*
X00191770Y00132080D02*
X00213360Y00153670D01*
Y00178380D01*
X00135690Y00201540D02*
X00136405Y00200825D01*
X00144780Y00187735D02*
X00147320D01*
X00140690Y00191825D02*
Y00201540D01*
Y00191825D02*
X00144780Y00187735D01*
X00141124Y00168910D02*
X00146004Y00173790D01*
X00138430Y00168910D02*
X00141124D01*
X00146050Y00173790D02*
X00163440D01*
X00082940Y00117720D02*
Y00133790D01*
X00031370Y00090170D02*
X00039370Y00082170D01*
Y00078740D02*
Y00082170D01*
X00082940Y00168790D02*
X00115690D01*
X00209550Y00138430D02*
X00241300D01*
X00201930Y00130810D02*
X00209550Y00138430D01*
X00201930Y00123998D02*
Y00130810D01*
X00082940Y00143790D02*
X00100610D01*
X00293955Y00338505D02*
X00306070Y00326390D01*
Y00306070D02*
Y00326390D01*
X00281750Y00338505D02*
X00293955D01*
X00047370Y00096140D02*
Y00096900D01*
Y00090170D02*
Y00096140D01*
X00163440Y00129930D02*
X00165100Y00128270D01*
X00163440Y00129930D02*
Y00133790D01*
X00150690Y00121040D02*
X00154550D01*
X00134620Y00044450D02*
X00138430Y00040640D01*
X00092710Y00044450D02*
X00134620D01*
X00080010Y00057150D02*
X00092710Y00044450D01*
X00175260Y00186055D02*
Y00196850D01*
X00172995Y00183790D02*
X00175260Y00186055D01*
X00163440Y00183790D02*
X00172995D01*
X00163440Y00138790D02*
X00174668D01*
X00115690Y00201540D02*
Y00214285D01*
X00113030Y00216945D02*
X00115690Y00214285D01*
X00163440Y00188790D02*
X00163830Y00189180D01*
X00163440Y00178790D02*
X00173935D01*
X00192540Y00196595D02*
X00200160Y00204215D01*
X00192540Y00168655D02*
Y00196595D01*
X00200160Y00204215D02*
X00225120D01*
X00182675Y00158790D02*
X00192540Y00168655D01*
X00163440Y00158790D02*
X00182675D01*
X00201430Y00153132D02*
Y00190625D01*
X00162590Y00230885D02*
X00170442D01*
X00205748Y00218947D02*
X00207780Y00216915D01*
X00202500Y00218947D02*
X00205748D01*
X00163440Y00163790D02*
X00176715D01*
X00163440Y00148790D02*
X00180755D01*
X00163440Y00153790D02*
X00187824D01*
X00201430Y00190625D02*
X00206130Y00195325D01*
X00163440Y00143790D02*
X00173686D01*
X00209500Y00225805D02*
X00220930Y00214375D01*
X00228070D01*
X00120690Y00193080D02*
Y00201540D01*
X00124975Y00200825D02*
X00125690Y00201540D01*
X00267970Y00250190D02*
Y00259588D01*
X00266700Y00248920D02*
X00267970Y00250190D01*
X00259080Y00269850D02*
X00267970Y00278740D01*
X00293770Y00228600D02*
Y00242570D01*
Y00258988D01*
X00298450Y00254308D01*
X00293170Y00278740D02*
X00299110D01*
X00302260Y00275590D01*
Y00255270D02*
Y00275590D01*
X00298450Y00251460D02*
X00302260Y00255270D01*
X00306070Y00306070D02*
X00320040Y00292100D01*
Y00224790D02*
Y00292100D01*
X00304800Y00209550D02*
X00320040Y00224790D01*
X00304800Y00146050D02*
Y00209550D01*
X00045800Y00192960D02*
Y00229472D01*
X00073260Y00225590D02*
Y00231140D01*
Y00225590D02*
X00079140Y00219710D01*
X00082550Y00216300D01*
X00057628Y00241300D02*
X00095250D01*
X00105690Y00201540D02*
Y00230860D01*
X00174668Y00138790D02*
X00178331Y00135127D01*
X00183425D01*
X00201430Y00153132D01*
X00082940Y00117720D02*
X00083820Y00116840D01*
X00115690Y00168790D02*
X00175895Y00108585D01*
X00145690Y00113074D02*
Y00121040D01*
X00125690Y00112990D02*
Y00121040D01*
X00080010Y00057150D02*
Y00095250D01*
X00140690Y00113821D02*
Y00121040D01*
X00047370Y00096900D02*
X00060966Y00110496D01*
X00123196D01*
X00125690Y00112990D01*
X00072390Y00105410D02*
X00132279D01*
X00140690Y00113821D01*
X00080010Y00095250D02*
X00086106Y00101346D01*
X00133962D01*
X00145690Y00113074D01*
X00041076Y00102434D02*
X00047370Y00096140D01*
X00025900Y00177300D02*
X00036830Y00166370D01*
X00030480Y00132080D02*
X00036830Y00138430D01*
Y00166370D01*
X00191770Y00114300D02*
X00192232D01*
X00175895Y00108585D02*
X00199090D01*
X00191770Y00121920D02*
Y00132080D01*
X00192232Y00114300D02*
X00201930Y00123998D01*
X00049530Y00173990D02*
X00057150D01*
X00041076Y00102434D02*
Y00165536D01*
X00049530Y00173990D01*
X00075721Y00153790D02*
X00082940D01*
X00072390Y00150459D02*
X00075721Y00153790D01*
X00047370Y00109220D02*
X00072390Y00134240D01*
Y00150459D01*
X00057150Y00148590D02*
X00072350Y00163790D01*
X00082940D01*
X00074974Y00158790D02*
X00082940D01*
X00066040Y00149856D02*
X00074974Y00158790D01*
X00057150Y00135890D02*
X00066040Y00144780D01*
Y00149856D01*
X00197500Y00210200D02*
Y00218947D01*
X00183053Y00195990D02*
X00183290D01*
X00197500Y00210200D01*
X00192500Y00212859D02*
Y00218947D01*
X00174244Y00197866D02*
X00175260Y00196850D01*
X00181618Y00213472D02*
Y00218947D01*
X00182380D01*
X00186698Y00218185D02*
X00187460Y00218947D01*
X00181571Y00201930D02*
X00192500Y00212859D01*
X00179888Y00205994D02*
X00186698Y00212804D01*
Y00218185D01*
X00178204Y00210058D02*
X00181618Y00213472D01*
X00156504Y00232941D02*
X00159528Y00235965D01*
X00170442D01*
X00176715Y00163790D02*
X00185420Y00172495D01*
X00173935Y00178790D02*
X00179705Y00184560D01*
X00185420Y00172495D02*
Y00190275D01*
X00179705Y00184560D02*
Y00192642D01*
X00183053Y00195990D01*
X00150690Y00201540D02*
Y00205300D01*
X00145690Y00201540D02*
Y00209273D01*
X00138430Y00161290D02*
X00140970D01*
X00148470Y00168790D01*
X00163440D01*
X00095250Y00241300D02*
X00105690Y00230860D01*
X00045800Y00229472D02*
X00057628Y00241300D01*
X00231140Y00183460D02*
Y00184150D01*
X00226060Y00178380D02*
X00231140Y00183460D01*
X00136405Y00180630D02*
Y00200825D01*
X00124975Y00188475D02*
Y00200825D01*
X00130690Y00186435D02*
Y00201540D01*
D11*
X00116000Y00022850D02*
D03*
X00264000D02*
D03*
X00244000Y00357150D02*
D03*
X00136000D02*
D03*
D12*
X00240000Y00080000D02*
D03*
X00220000D02*
D03*
X00200000D02*
D03*
X00180000D02*
D03*
X00160000D02*
D03*
X00140000D02*
D03*
X00160000Y00300000D02*
D03*
X00180000D02*
D03*
X00200000D02*
D03*
X00220000D02*
D03*
D13*
X00190000Y00238505D02*
D03*
D14*
X00202500Y00218947D02*
D03*
X00197500D02*
D03*
X00192500D02*
D03*
X00187460D02*
D03*
X00182380D02*
D03*
X00177300D02*
D03*
Y00258005D02*
D03*
X00182380D02*
D03*
X00187460D02*
D03*
X00192500D02*
D03*
X00197500D02*
D03*
X00202500D02*
D03*
D15*
X00170442Y00225805D02*
D03*
Y00230885D02*
D03*
Y00235965D02*
D03*
Y00241005D02*
D03*
Y00246005D02*
D03*
Y00251005D02*
D03*
X00209500D02*
D03*
Y00246005D02*
D03*
Y00241005D02*
D03*
Y00235965D02*
D03*
Y00230885D02*
D03*
Y00225805D02*
D03*
D16*
X00230790Y00254505D02*
D03*
X00250290D02*
D03*
X00230790Y00235505D02*
D03*
X00250290D02*
D03*
X00149210Y00254505D02*
D03*
X00129710D02*
D03*
X00149210Y00235505D02*
D03*
X00129710D02*
D03*
D17*
X00031370Y00109220D02*
D03*
X00047370D02*
D03*
X00266320Y00121920D02*
D03*
X00282320D02*
D03*
X00206130Y00195325D02*
D03*
X00222130D02*
D03*
X00250070D02*
D03*
X00234070D02*
D03*
X00047370Y00090170D02*
D03*
X00031370D02*
D03*
D18*
X00108720Y00329565D02*
D03*
Y00345565D02*
D03*
D19*
X00075800Y00231140D02*
D03*
X00089300D02*
D03*
X00268250Y00338505D02*
D03*
X00281750D02*
D03*
X00233280Y00214630D02*
D03*
X00246780D02*
D03*
X00293770Y00228600D02*
D03*
X00280270D02*
D03*
X00293770Y00242570D02*
D03*
X00280270D02*
D03*
D20*
X00082550Y00216300D02*
D03*
Y00202800D02*
D03*
X00091440Y00344570D02*
D03*
Y00331070D02*
D03*
D21*
X00213360Y00123880D02*
D03*
X00226060D02*
D03*
X00238760D02*
D03*
X00251460D02*
D03*
X00213360Y00178380D02*
D03*
X00226060D02*
D03*
X00238760D02*
D03*
X00251460D02*
D03*
D22*
X00300990Y00209550D02*
D03*
D23*
X00323990Y00146050D02*
D03*
X00300990D02*
D03*
X00277990D02*
D03*
D24*
X00293170Y00259588D02*
D03*
Y00269240D02*
D03*
Y00278740D02*
D03*
X00267970D02*
D03*
Y00259588D02*
D03*
D25*
X00050490Y00278130D02*
D03*
X00106990D02*
D03*
D26*
X00082940Y00133790D02*
D03*
Y00138790D02*
D03*
Y00143790D02*
D03*
Y00148790D02*
D03*
Y00153790D02*
D03*
Y00158790D02*
D03*
Y00163790D02*
D03*
Y00168790D02*
D03*
Y00173790D02*
D03*
Y00178790D02*
D03*
Y00183790D02*
D03*
Y00188790D02*
D03*
X00163440D02*
D03*
Y00183790D02*
D03*
Y00178790D02*
D03*
Y00173790D02*
D03*
Y00168790D02*
D03*
Y00163790D02*
D03*
Y00158790D02*
D03*
Y00153790D02*
D03*
Y00148790D02*
D03*
Y00143790D02*
D03*
Y00138790D02*
D03*
Y00133790D02*
D03*
D27*
X00095690Y00201540D02*
D03*
X00100690D02*
D03*
X00105690D02*
D03*
X00110690D02*
D03*
X00115690D02*
D03*
X00120690D02*
D03*
X00125690D02*
D03*
X00130690D02*
D03*
X00135690D02*
D03*
X00140690D02*
D03*
X00145690D02*
D03*
X00150690D02*
D03*
Y00121040D02*
D03*
X00145690D02*
D03*
X00140690D02*
D03*
X00135690D02*
D03*
X00130690D02*
D03*
X00125690D02*
D03*
X00120690D02*
D03*
X00115690D02*
D03*
X00110690D02*
D03*
X00105690D02*
D03*
X00100690D02*
D03*
X00095690D02*
D03*
D28*
X00253420Y00121920D02*
X00266320D01*
X00251460Y00123880D02*
X00253420Y00121920D01*
X00226060Y00155985D02*
Y00178380D01*
X00188885Y00046990D02*
X00231140D01*
X00187614Y00048260D02*
X00188885Y00046990D01*
X00186345D02*
X00187614Y00048260D01*
X00171450Y00046990D02*
X00186345D01*
X00160000Y00058440D02*
X00171450Y00046990D01*
X00181610Y00058420D02*
Y00078390D01*
X00180340Y00079660D02*
X00181610Y00078390D01*
X00160000Y00058440D02*
Y00080000D01*
X00128270Y00054610D02*
X00140000Y00066340D01*
Y00080000D01*
X00115570Y00054610D02*
X00128270D01*
X00219710Y00149635D02*
X00226060Y00155985D01*
X00228070Y00201265D02*
X00234010Y00195325D01*
X00228070Y00201265D02*
Y00214375D01*
X00222130Y00195325D02*
X00228070Y00201265D01*
X00234010Y00195325D02*
X00234070D01*
X00109220Y00346065D02*
Y00356645D01*
X00274320Y00165100D02*
X00277990Y00161430D01*
Y00146050D02*
Y00161430D01*
D29*
X00240000Y00080000D02*
Y00099431D01*
X00238760Y00100671D02*
X00240000Y00099431D01*
X00238760Y00100671D02*
Y00123880D01*
X00220000Y00080000D02*
Y00099431D01*
X00226060Y00105491D01*
Y00123880D01*
D30*
X00268250Y00313410D02*
Y00338505D01*
Y00313410D02*
X00275590Y00306070D01*
X00280670D01*
D31*
X00020000Y00151900D02*
D03*
Y00177300D02*
D03*
Y00202700D02*
D03*
Y00228100D02*
D03*
X00360000D02*
D03*
Y00202700D02*
D03*
Y00177300D02*
D03*
Y00151900D02*
D03*
D32*
X00306070Y00306070D02*
D03*
X00280670D02*
D03*
D33*
X00057150Y00135890D02*
D03*
Y00148590D02*
D03*
Y00161290D02*
D03*
Y00173990D02*
D03*
Y00186690D02*
D03*
Y00199390D02*
D03*
Y00212090D02*
D03*
D34*
Y00224790D02*
D03*
D35*
X00266700Y00237490D02*
D03*
X00071120Y00209804D02*
D03*
X00116840Y00292100D02*
D03*
Y00262890D02*
D03*
X00172502Y00218440D02*
D03*
X00160020Y00203200D02*
D03*
X00161290Y00111760D02*
D03*
X00177800Y00128270D02*
D03*
X00166043Y00222758D02*
D03*
X00162560Y00191770D02*
D03*
X00182500Y00238500D02*
D03*
X00190000Y00246000D02*
D03*
X00197500Y00238500D02*
D03*
X00190000Y00231000D02*
D03*
X00162219Y00229710D02*
D03*
X00158242Y00222758D02*
D03*
X00120650Y00142240D02*
D03*
X00130810Y00143510D02*
D03*
X00101600Y00154940D02*
D03*
X00109220Y00152400D02*
D03*
X00059690Y00080010D02*
D03*
X00114300Y00179070D02*
D03*
X00081280Y00027940D02*
D03*
X00222250Y00355600D02*
D03*
X00129540Y00311150D02*
D03*
X00171450Y00360680D02*
D03*
X00071120Y00080010D02*
D03*
X00325120Y00102870D02*
D03*
X00250190Y00311150D02*
D03*
X00349250Y00279400D02*
D03*
X00019050Y00078740D02*
D03*
X00022860Y00132080D02*
D03*
X00147320Y00187735D02*
D03*
X00102870Y00177800D02*
D03*
X00138430Y00168910D02*
D03*
X00039370Y00078740D02*
D03*
X00184150Y00027940D02*
D03*
X00067310Y00118110D02*
D03*
X00259080Y00105410D02*
D03*
X00231140Y00046990D02*
D03*
Y00054610D02*
D03*
X00199390Y00058420D02*
D03*
X00205740D02*
D03*
X00238760Y00054610D02*
D03*
X00181610Y00058420D02*
D03*
X00238760Y00046990D02*
D03*
X00138430Y00040640D02*
D03*
X00208280Y00101600D02*
D03*
X00102870Y00054610D02*
D03*
X00109220D02*
D03*
X00115570D02*
D03*
X00259080Y00099060D02*
D03*
X00100330Y00088900D02*
D03*
X00110490D02*
D03*
Y00069850D02*
D03*
X00100330D02*
D03*
X00102870Y00292100D02*
D03*
Y00262890D02*
D03*
X00091440D02*
D03*
Y00292100D02*
D03*
X00113030Y00216945D02*
D03*
X00219710Y00149635D02*
D03*
X00138430Y00161290D02*
D03*
X00207780Y00216915D02*
D03*
X00194000Y00275336D02*
D03*
X00186000D02*
D03*
X00190000Y00268224D02*
D03*
X00182500Y00231005D02*
D03*
X00197500D02*
D03*
Y00246005D02*
D03*
X00182500D02*
D03*
X00190000Y00238505D02*
D03*
X00019050Y00279400D02*
D03*
X00138430Y00245110D02*
D03*
X00266700Y00248920D02*
D03*
X00298450Y00251460D02*
D03*
X00093980Y00316005D02*
D03*
X00109220Y00356645D02*
D03*
X00298450Y00038100D02*
D03*
X00083820Y00116840D02*
D03*
X00191770Y00114300D02*
D03*
X00198120Y00101600D02*
D03*
X00176530Y00102616D02*
D03*
X00184150D02*
D03*
X00191770Y00121920D02*
D03*
X00185420Y00190275D02*
D03*
X00231140Y00184150D02*
D03*
X00274320Y00165100D02*
D03*
X00136405Y00180630D02*
D03*
X00130690Y00186435D02*
D03*
X00107950Y00184150D02*
D03*
D36*
X00188730Y00153415D02*
D03*
X00184920Y00147065D02*
D03*
X00181110Y00140715D02*
D03*
M02*
