G04 Layer_Color=20142*
%FSAX44Y44*%
%MOMM*%
G71*
G01*
G75*
%ADD55R,1.8034X3.7084*%
%ADD56R,1.2192X3.7084*%
%ADD57R,2.8702X2.8702*%
%ADD58R,0.5080X1.0532*%
%ADD59R,1.0532X0.5080*%
%ADD60R,1.1032X1.5532*%
%ADD61R,0.9032X1.1032*%
%ADD62R,1.1032X0.9032*%
%ADD63R,1.1032X1.2032*%
%ADD64R,1.2032X1.1032*%
%ADD65O,0.8032X1.6532*%
%ADD66R,3.4532X1.9032*%
%ADD67R,1.2032X1.9032*%
%ADD68R,1.3716X0.8128*%
%ADD69R,3.6032X2.0032*%
%ADD70O,1.7532X0.4532*%
%ADD71O,0.4532X1.7532*%
%ADD72O,2.9464X1.5748*%
%ADD73O,1.5748X2.9464*%
%ADD74C,1.2032*%
%ADD75R,1.2032X1.2032*%
%ADD76C,0.8382*%
%ADD77C,0.8128*%
D55*
X00116000Y00022850D02*
D03*
X00264000D02*
D03*
X00244000Y00357150D02*
D03*
X00136000D02*
D03*
D56*
X00240000Y00080000D02*
D03*
X00220000D02*
D03*
X00200000D02*
D03*
X00180000D02*
D03*
X00160000D02*
D03*
X00140000D02*
D03*
X00160000Y00300000D02*
D03*
X00180000D02*
D03*
X00200000D02*
D03*
X00220000D02*
D03*
D57*
X00190000Y00238505D02*
D03*
D58*
X00202500Y00218947D02*
D03*
X00197500D02*
D03*
X00192500D02*
D03*
X00187460D02*
D03*
X00182380D02*
D03*
X00177300D02*
D03*
Y00258005D02*
D03*
X00182380D02*
D03*
X00187460D02*
D03*
X00192500D02*
D03*
X00197500D02*
D03*
X00202500D02*
D03*
D59*
X00170442Y00225805D02*
D03*
Y00230885D02*
D03*
Y00235965D02*
D03*
Y00241005D02*
D03*
Y00246005D02*
D03*
Y00251005D02*
D03*
X00209500D02*
D03*
Y00246005D02*
D03*
Y00241005D02*
D03*
Y00235965D02*
D03*
Y00230885D02*
D03*
Y00225805D02*
D03*
D60*
X00230790Y00254505D02*
D03*
X00250290D02*
D03*
X00230790Y00235505D02*
D03*
X00250290D02*
D03*
X00149210Y00254505D02*
D03*
X00129710D02*
D03*
X00149210Y00235505D02*
D03*
X00129710D02*
D03*
D61*
X00031370Y00109220D02*
D03*
X00047370D02*
D03*
X00266320Y00121920D02*
D03*
X00282320D02*
D03*
X00206130Y00195325D02*
D03*
X00222130D02*
D03*
X00250070D02*
D03*
X00234070D02*
D03*
X00047370Y00090170D02*
D03*
X00031370D02*
D03*
D62*
X00108720Y00329565D02*
D03*
Y00345565D02*
D03*
D63*
X00075800Y00231140D02*
D03*
X00089300D02*
D03*
X00268250Y00338505D02*
D03*
X00281750D02*
D03*
X00233280Y00214630D02*
D03*
X00246780D02*
D03*
X00293770Y00228600D02*
D03*
X00280270D02*
D03*
X00293770Y00242570D02*
D03*
X00280270D02*
D03*
D64*
X00082550Y00216300D02*
D03*
Y00202800D02*
D03*
X00091440Y00344570D02*
D03*
Y00331070D02*
D03*
D65*
X00213360Y00123880D02*
D03*
X00226060D02*
D03*
X00238760D02*
D03*
X00251460D02*
D03*
X00213360Y00178380D02*
D03*
X00226060D02*
D03*
X00238760D02*
D03*
X00251460D02*
D03*
D66*
X00300990Y00209550D02*
D03*
D67*
X00323990Y00146050D02*
D03*
X00300990D02*
D03*
X00277990D02*
D03*
D68*
X00293170Y00259588D02*
D03*
Y00269240D02*
D03*
Y00278740D02*
D03*
X00267970D02*
D03*
Y00259588D02*
D03*
D69*
X00050490Y00278130D02*
D03*
X00106990D02*
D03*
D70*
X00082940Y00133790D02*
D03*
Y00138790D02*
D03*
Y00143790D02*
D03*
Y00148790D02*
D03*
Y00153790D02*
D03*
Y00158790D02*
D03*
Y00163790D02*
D03*
Y00168790D02*
D03*
Y00173790D02*
D03*
Y00178790D02*
D03*
Y00183790D02*
D03*
Y00188790D02*
D03*
X00163440D02*
D03*
Y00183790D02*
D03*
Y00178790D02*
D03*
Y00173790D02*
D03*
Y00168790D02*
D03*
Y00163790D02*
D03*
Y00158790D02*
D03*
Y00153790D02*
D03*
Y00148790D02*
D03*
Y00143790D02*
D03*
Y00138790D02*
D03*
Y00133790D02*
D03*
D71*
X00095690Y00201540D02*
D03*
X00100690D02*
D03*
X00105690D02*
D03*
X00110690D02*
D03*
X00115690D02*
D03*
X00120690D02*
D03*
X00125690D02*
D03*
X00130690D02*
D03*
X00135690D02*
D03*
X00140690D02*
D03*
X00145690D02*
D03*
X00150690D02*
D03*
Y00121040D02*
D03*
X00145690D02*
D03*
X00140690D02*
D03*
X00135690D02*
D03*
X00130690D02*
D03*
X00125690D02*
D03*
X00120690D02*
D03*
X00115690D02*
D03*
X00110690D02*
D03*
X00105690D02*
D03*
X00100690D02*
D03*
X00095690D02*
D03*
D72*
X00020000Y00151900D02*
D03*
Y00177300D02*
D03*
Y00202700D02*
D03*
Y00228100D02*
D03*
X00360000D02*
D03*
Y00202700D02*
D03*
Y00177300D02*
D03*
Y00151900D02*
D03*
D73*
X00306070Y00306070D02*
D03*
X00280670D02*
D03*
D74*
X00057150Y00135890D02*
D03*
Y00148590D02*
D03*
Y00161290D02*
D03*
Y00173990D02*
D03*
Y00186690D02*
D03*
Y00199390D02*
D03*
Y00212090D02*
D03*
D75*
Y00224790D02*
D03*
D76*
X00266700Y00237490D02*
D03*
X00071120Y00209804D02*
D03*
X00116840Y00292100D02*
D03*
Y00262890D02*
D03*
X00172502Y00218440D02*
D03*
X00160020Y00203200D02*
D03*
X00161290Y00111760D02*
D03*
X00177800Y00128270D02*
D03*
X00166043Y00222758D02*
D03*
X00162560Y00191770D02*
D03*
X00182500Y00238500D02*
D03*
X00190000Y00246000D02*
D03*
X00197500Y00238500D02*
D03*
X00190000Y00231000D02*
D03*
X00162219Y00229710D02*
D03*
X00158242Y00222758D02*
D03*
X00120650Y00142240D02*
D03*
X00130810Y00143510D02*
D03*
X00101600Y00154940D02*
D03*
X00109220Y00152400D02*
D03*
X00059690Y00080010D02*
D03*
X00114300Y00179070D02*
D03*
X00081280Y00027940D02*
D03*
X00222250Y00355600D02*
D03*
X00129540Y00311150D02*
D03*
X00171450Y00360680D02*
D03*
X00071120Y00080010D02*
D03*
X00325120Y00102870D02*
D03*
X00250190Y00311150D02*
D03*
X00349250Y00279400D02*
D03*
X00019050Y00078740D02*
D03*
X00022860Y00132080D02*
D03*
X00147320Y00187735D02*
D03*
X00102870Y00177800D02*
D03*
X00138430Y00168910D02*
D03*
X00039370Y00078740D02*
D03*
X00184150Y00027940D02*
D03*
X00067310Y00118110D02*
D03*
X00259080Y00105410D02*
D03*
X00231140Y00046990D02*
D03*
Y00054610D02*
D03*
X00199390Y00058420D02*
D03*
X00205740D02*
D03*
X00238760Y00054610D02*
D03*
X00181610Y00058420D02*
D03*
X00238760Y00046990D02*
D03*
X00138430Y00040640D02*
D03*
X00208280Y00101600D02*
D03*
X00102870Y00054610D02*
D03*
X00109220D02*
D03*
X00115570D02*
D03*
X00259080Y00099060D02*
D03*
X00100330Y00088900D02*
D03*
X00110490D02*
D03*
Y00069850D02*
D03*
X00100330D02*
D03*
X00102870Y00292100D02*
D03*
Y00262890D02*
D03*
X00091440D02*
D03*
Y00292100D02*
D03*
X00113030Y00216945D02*
D03*
X00219710Y00149635D02*
D03*
X00138430Y00161290D02*
D03*
X00207780Y00216915D02*
D03*
X00194000Y00275336D02*
D03*
X00186000D02*
D03*
X00190000Y00268224D02*
D03*
X00182500Y00231005D02*
D03*
X00197500D02*
D03*
Y00246005D02*
D03*
X00182500D02*
D03*
X00190000Y00238505D02*
D03*
X00019050Y00279400D02*
D03*
X00138430Y00245110D02*
D03*
X00266700Y00248920D02*
D03*
X00298450Y00251460D02*
D03*
X00093980Y00316005D02*
D03*
X00109220Y00356645D02*
D03*
X00298450Y00038100D02*
D03*
X00083820Y00116840D02*
D03*
X00191770Y00114300D02*
D03*
X00198120Y00101600D02*
D03*
X00176530Y00102616D02*
D03*
X00184150D02*
D03*
X00191770Y00121920D02*
D03*
X00185420Y00190275D02*
D03*
X00231140Y00184150D02*
D03*
X00274320Y00165100D02*
D03*
X00136405Y00180630D02*
D03*
X00130690Y00186435D02*
D03*
X00107950Y00184150D02*
D03*
D77*
X00188730Y00153415D02*
D03*
X00184920Y00147065D02*
D03*
X00181110Y00140715D02*
D03*
M02*
