G04 Layer_Color=7318015*
%FSAX44Y44*%
%MOMM*%
G71*
G01*
G75*
%ADD11R,1.6002X3.5052*%
%ADD12R,1.0160X3.5052*%
%ADD13R,2.6670X2.6670*%
%ADD14R,0.3048X0.8500*%
%ADD15R,0.8500X0.3048*%
%ADD16R,0.9000X1.3500*%
%ADD17R,0.7000X0.9000*%
%ADD18R,0.9000X0.7000*%
%ADD19R,0.9000X1.0000*%
%ADD20R,1.0000X0.9000*%
%ADD21O,0.6000X1.4500*%
%ADD22R,3.2500X1.7000*%
%ADD23R,1.0000X1.7000*%
%ADD24R,1.1684X0.6096*%
%ADD25R,3.4000X1.8000*%
%ADD26O,1.5500X0.2500*%
%ADD27O,0.2500X1.5500*%
D11*
X00116000Y00022850D02*
D03*
X00264000D02*
D03*
X00244000Y00357150D02*
D03*
X00136000D02*
D03*
D12*
X00240000Y00080000D02*
D03*
X00220000D02*
D03*
X00200000D02*
D03*
X00180000D02*
D03*
X00160000D02*
D03*
X00140000D02*
D03*
X00160000Y00300000D02*
D03*
X00180000D02*
D03*
X00200000D02*
D03*
X00220000D02*
D03*
D13*
X00190000Y00238505D02*
D03*
D14*
X00202500Y00218947D02*
D03*
X00197500D02*
D03*
X00192500D02*
D03*
X00187460D02*
D03*
X00182380D02*
D03*
X00177300D02*
D03*
Y00258005D02*
D03*
X00182380D02*
D03*
X00187460D02*
D03*
X00192500D02*
D03*
X00197500D02*
D03*
X00202500D02*
D03*
D15*
X00170442Y00225805D02*
D03*
Y00230885D02*
D03*
Y00235965D02*
D03*
Y00241005D02*
D03*
Y00246005D02*
D03*
Y00251005D02*
D03*
X00209500D02*
D03*
Y00246005D02*
D03*
Y00241005D02*
D03*
Y00235965D02*
D03*
Y00230885D02*
D03*
Y00225805D02*
D03*
D16*
X00230790Y00254505D02*
D03*
X00250290D02*
D03*
X00230790Y00235505D02*
D03*
X00250290D02*
D03*
X00149210Y00254505D02*
D03*
X00129710D02*
D03*
X00149210Y00235505D02*
D03*
X00129710D02*
D03*
D17*
X00031370Y00109220D02*
D03*
X00047370D02*
D03*
X00266320Y00121920D02*
D03*
X00282320D02*
D03*
X00206130Y00195325D02*
D03*
X00222130D02*
D03*
X00250070D02*
D03*
X00234070D02*
D03*
X00047370Y00090170D02*
D03*
X00031370D02*
D03*
D18*
X00108720Y00329565D02*
D03*
Y00345565D02*
D03*
D19*
X00075800Y00231140D02*
D03*
X00089300D02*
D03*
X00268250Y00338505D02*
D03*
X00281750D02*
D03*
X00233280Y00214630D02*
D03*
X00246780D02*
D03*
X00293770Y00228600D02*
D03*
X00280270D02*
D03*
X00293770Y00242570D02*
D03*
X00280270D02*
D03*
D20*
X00082550Y00216300D02*
D03*
Y00202800D02*
D03*
X00091440Y00344570D02*
D03*
Y00331070D02*
D03*
D21*
X00213360Y00123880D02*
D03*
X00226060D02*
D03*
X00238760D02*
D03*
X00251460D02*
D03*
X00213360Y00178380D02*
D03*
X00226060D02*
D03*
X00238760D02*
D03*
X00251460D02*
D03*
D22*
X00300990Y00209550D02*
D03*
D23*
X00323990Y00146050D02*
D03*
X00300990D02*
D03*
X00277990D02*
D03*
D24*
X00293170Y00259588D02*
D03*
Y00269240D02*
D03*
Y00278740D02*
D03*
X00267970D02*
D03*
Y00259588D02*
D03*
D25*
X00050490Y00278130D02*
D03*
X00106990D02*
D03*
D26*
X00082940Y00133790D02*
D03*
Y00138790D02*
D03*
Y00143790D02*
D03*
Y00148790D02*
D03*
Y00153790D02*
D03*
Y00158790D02*
D03*
Y00163790D02*
D03*
Y00168790D02*
D03*
Y00173790D02*
D03*
Y00178790D02*
D03*
Y00183790D02*
D03*
Y00188790D02*
D03*
X00163440D02*
D03*
Y00183790D02*
D03*
Y00178790D02*
D03*
Y00173790D02*
D03*
Y00168790D02*
D03*
Y00163790D02*
D03*
Y00158790D02*
D03*
Y00153790D02*
D03*
Y00148790D02*
D03*
Y00143790D02*
D03*
Y00138790D02*
D03*
Y00133790D02*
D03*
D27*
X00095690Y00201540D02*
D03*
X00100690D02*
D03*
X00105690D02*
D03*
X00110690D02*
D03*
X00115690D02*
D03*
X00120690D02*
D03*
X00125690D02*
D03*
X00130690D02*
D03*
X00135690D02*
D03*
X00140690D02*
D03*
X00145690D02*
D03*
X00150690D02*
D03*
Y00121040D02*
D03*
X00145690D02*
D03*
X00140690D02*
D03*
X00135690D02*
D03*
X00130690D02*
D03*
X00125690D02*
D03*
X00120690D02*
D03*
X00115690D02*
D03*
X00110690D02*
D03*
X00105690D02*
D03*
X00100690D02*
D03*
X00095690D02*
D03*
M02*
