G04 Layer_Physical_Order=3*
G04 Layer_Color=553216*
%FSAX44Y44*%
%MOMM*%
G71*
G01*
G75*
%ADD37C,1.0160*%
%ADD38C,1.9304*%
%ADD39C,1.6160*%
%ADD40C,1.3208*%
%ADD41C,0.6350*%
%ADD42C,0.5080*%
G36*
X00347940Y00049783D02*
X00350768Y00048925D01*
X00353374Y00047532D01*
X00355658Y00045658D01*
X00357532Y00043374D01*
X00358925Y00040768D01*
X00359783Y00037940D01*
X00360073Y00035000D01*
X00359783Y00032059D01*
X00358925Y00029232D01*
X00357532Y00026626D01*
X00355658Y00024342D01*
X00353374Y00022468D01*
X00350768Y00021075D01*
X00347940Y00020217D01*
X00345737Y00020000D01*
X00344263D01*
X00342060Y00020217D01*
X00339232Y00021075D01*
X00336626Y00022468D01*
X00334342Y00024342D01*
X00332468Y00026626D01*
X00331075Y00029232D01*
X00330217Y00032059D01*
X00329927Y00035000D01*
X00330217Y00037940D01*
X00331075Y00040768D01*
X00332468Y00043374D01*
X00334342Y00045658D01*
X00336626Y00047532D01*
X00339232Y00048925D01*
X00342060Y00049783D01*
X00344263Y00050000D01*
X00345737D01*
X00347940Y00049783D01*
D02*
G37*
G36*
X00037940D02*
X00040768Y00048925D01*
X00043374Y00047532D01*
X00045658Y00045658D01*
X00047532Y00043374D01*
X00048925Y00040768D01*
X00049783Y00037940D01*
X00050072Y00035000D01*
X00049783Y00032059D01*
X00048925Y00029232D01*
X00047532Y00026626D01*
X00045658Y00024342D01*
X00043374Y00022468D01*
X00040768Y00021075D01*
X00037940Y00020217D01*
X00035737Y00020000D01*
X00034263D01*
X00032059Y00020217D01*
X00029232Y00021075D01*
X00026626Y00022468D01*
X00024342Y00024342D01*
X00022468Y00026626D01*
X00021075Y00029232D01*
X00020217Y00032059D01*
X00019927Y00035000D01*
X00020217Y00037940D01*
X00021075Y00040768D01*
X00022468Y00043374D01*
X00024342Y00045658D01*
X00026626Y00047532D01*
X00029232Y00048925D01*
X00032059Y00049783D01*
X00034263Y00050000D01*
X00035737D01*
X00037940Y00049783D01*
D02*
G37*
G36*
X00347940Y00359783D02*
X00350768Y00358925D01*
X00353374Y00357532D01*
X00355658Y00355658D01*
X00357532Y00353374D01*
X00358925Y00350768D01*
X00359783Y00347940D01*
X00360073Y00345000D01*
X00359783Y00342060D01*
X00358925Y00339232D01*
X00357532Y00336626D01*
X00355658Y00334342D01*
X00353374Y00332468D01*
X00350768Y00331075D01*
X00347940Y00330217D01*
X00345737Y00330000D01*
X00344263D01*
X00342060Y00330217D01*
X00339232Y00331075D01*
X00336626Y00332468D01*
X00334342Y00334342D01*
X00332468Y00336626D01*
X00331075Y00339232D01*
X00330217Y00342060D01*
X00329927Y00345000D01*
X00330217Y00347940D01*
X00331075Y00350768D01*
X00332468Y00353374D01*
X00334342Y00355658D01*
X00336626Y00357532D01*
X00339232Y00358925D01*
X00342060Y00359783D01*
X00344263Y00360000D01*
X00345737D01*
X00347940Y00359783D01*
D02*
G37*
G36*
X00037940D02*
X00040768Y00358925D01*
X00043374Y00357532D01*
X00045658Y00355658D01*
X00047532Y00353374D01*
X00048925Y00350768D01*
X00049783Y00347940D01*
X00050072Y00345000D01*
X00049783Y00342060D01*
X00048925Y00339232D01*
X00047532Y00336626D01*
X00045658Y00334342D01*
X00043374Y00332468D01*
X00040768Y00331075D01*
X00037940Y00330217D01*
X00035737Y00330000D01*
X00034263D01*
X00032059Y00330217D01*
X00029232Y00331075D01*
X00026626Y00332468D01*
X00024342Y00334342D01*
X00022468Y00336626D01*
X00021075Y00339232D01*
X00020217Y00342060D01*
X00019927Y00345000D01*
X00020217Y00347940D01*
X00021075Y00350768D01*
X00022468Y00353374D01*
X00024342Y00355658D01*
X00026626Y00357532D01*
X00029232Y00358925D01*
X00032059Y00359783D01*
X00034263Y00360000D01*
X00035737D01*
X00037940Y00359783D01*
D02*
G37*
D37*
X00035737Y00050000D02*
X00037940Y00049783D01*
X00040768Y00048925D01*
X00043374Y00047532D01*
X00045658Y00045658D01*
X00047532Y00043374D01*
X00048925Y00040768D01*
X00049783Y00037940D01*
X00050072Y00035000D01*
X00049783Y00032059D02*
X00050072Y00035000D01*
X00048925Y00029232D02*
X00049783Y00032059D01*
X00047532Y00026626D02*
X00048925Y00029232D01*
X00045658Y00024342D02*
X00047532Y00026626D01*
X00043374Y00022468D02*
X00045658Y00024342D01*
X00040768Y00021075D02*
X00043374Y00022468D01*
X00037940Y00020217D02*
X00040768Y00021075D01*
X00035737Y00020000D02*
X00037940Y00020217D01*
X00034263Y00020000D02*
X00035737D01*
X00032059Y00020217D02*
X00034263Y00020000D01*
X00029232Y00021075D02*
X00032059Y00020217D01*
X00026626Y00022468D02*
X00029232Y00021075D01*
X00024342Y00024342D02*
X00026626Y00022468D01*
X00022468Y00026626D02*
X00024342Y00024342D01*
X00021075Y00029232D02*
X00022468Y00026626D01*
X00020217Y00032059D02*
X00021075Y00029232D01*
X00019927Y00035000D02*
X00020217Y00032059D01*
X00019927Y00035000D02*
X00020217Y00037940D01*
X00021075Y00040768D01*
X00022468Y00043374D01*
X00024342Y00045658D01*
X00026626Y00047532D01*
X00029232Y00048925D01*
X00032059Y00049783D01*
X00034263Y00050000D01*
X00035737D01*
X00345737D02*
X00347940Y00049783D01*
X00350768Y00048925D01*
X00353374Y00047532D01*
X00355658Y00045658D01*
X00357532Y00043374D01*
X00358925Y00040768D01*
X00359783Y00037940D01*
X00360073Y00035000D01*
X00359783Y00032059D02*
X00360073Y00035000D01*
X00358925Y00029232D02*
X00359783Y00032059D01*
X00357532Y00026626D02*
X00358925Y00029232D01*
X00355658Y00024342D02*
X00357532Y00026626D01*
X00353374Y00022468D02*
X00355658Y00024342D01*
X00350768Y00021075D02*
X00353374Y00022468D01*
X00347940Y00020217D02*
X00350768Y00021075D01*
X00345737Y00020000D02*
X00347940Y00020217D01*
X00344263Y00020000D02*
X00345737D01*
X00342060Y00020217D02*
X00344263Y00020000D01*
X00339232Y00021075D02*
X00342060Y00020217D01*
X00336626Y00022468D02*
X00339232Y00021075D01*
X00334342Y00024342D02*
X00336626Y00022468D01*
X00332468Y00026626D02*
X00334342Y00024342D01*
X00331075Y00029232D02*
X00332468Y00026626D01*
X00330217Y00032059D02*
X00331075Y00029232D01*
X00329927Y00035000D02*
X00330217Y00032059D01*
X00329927Y00035000D02*
X00330217Y00037940D01*
X00331075Y00040768D01*
X00332468Y00043374D01*
X00334342Y00045658D01*
X00336626Y00047532D01*
X00339232Y00048925D01*
X00342060Y00049783D01*
X00344263Y00050000D01*
X00345737D01*
X00035737Y00360000D02*
X00037940Y00359783D01*
X00040768Y00358925D01*
X00043374Y00357532D01*
X00045658Y00355658D01*
X00047532Y00353374D01*
X00048925Y00350768D01*
X00049783Y00347940D01*
X00050072Y00345000D01*
X00049783Y00342060D02*
X00050072Y00345000D01*
X00048925Y00339232D02*
X00049783Y00342060D01*
X00047532Y00336626D02*
X00048925Y00339232D01*
X00045658Y00334342D02*
X00047532Y00336626D01*
X00043374Y00332468D02*
X00045658Y00334342D01*
X00040768Y00331075D02*
X00043374Y00332468D01*
X00037940Y00330217D02*
X00040768Y00331075D01*
X00035737Y00330000D02*
X00037940Y00330217D01*
X00034263Y00330000D02*
X00035737D01*
X00032059Y00330217D02*
X00034263Y00330000D01*
X00029232Y00331075D02*
X00032059Y00330217D01*
X00026626Y00332468D02*
X00029232Y00331075D01*
X00024342Y00334342D02*
X00026626Y00332468D01*
X00022468Y00336626D02*
X00024342Y00334342D01*
X00021075Y00339232D02*
X00022468Y00336626D01*
X00020217Y00342060D02*
X00021075Y00339232D01*
X00019927Y00345000D02*
X00020217Y00342060D01*
X00019927Y00345000D02*
X00020217Y00347940D01*
X00021075Y00350768D01*
X00022468Y00353374D01*
X00024342Y00355658D01*
X00026626Y00357532D01*
X00029232Y00358925D01*
X00032059Y00359783D01*
X00034263Y00360000D01*
X00035737D01*
X00345737D02*
X00347940Y00359783D01*
X00350768Y00358925D01*
X00353374Y00357532D01*
X00355658Y00355658D01*
X00357532Y00353374D01*
X00358925Y00350768D01*
X00359783Y00347940D01*
X00360073Y00345000D01*
X00359783Y00342060D02*
X00360073Y00345000D01*
X00358925Y00339232D02*
X00359783Y00342060D01*
X00357532Y00336626D02*
X00358925Y00339232D01*
X00355658Y00334342D02*
X00357532Y00336626D01*
X00353374Y00332468D02*
X00355658Y00334342D01*
X00350768Y00331075D02*
X00353374Y00332468D01*
X00347940Y00330217D02*
X00350768Y00331075D01*
X00345737Y00330000D02*
X00347940Y00330217D01*
X00344263Y00330000D02*
X00345737D01*
X00342060Y00330217D02*
X00344263Y00330000D01*
X00339232Y00331075D02*
X00342060Y00330217D01*
X00336626Y00332468D02*
X00339232Y00331075D01*
X00334342Y00334342D02*
X00336626Y00332468D01*
X00332468Y00336626D02*
X00334342Y00334342D01*
X00331075Y00339232D02*
X00332468Y00336626D01*
X00330217Y00342060D02*
X00331075Y00339232D01*
X00329927Y00345000D02*
X00330217Y00342060D01*
X00329927Y00345000D02*
X00330217Y00347940D01*
X00331075Y00350768D01*
X00332468Y00353374D01*
X00334342Y00355658D01*
X00336626Y00357532D01*
X00339232Y00358925D01*
X00342060Y00359783D01*
X00344263Y00360000D01*
X00345737D01*
X00346375Y00380000D02*
X00350492Y00379676D01*
X00033625Y00380000D02*
X00346375D01*
X00029508Y00379676D02*
X00033625Y00380000D01*
X00024151Y00378390D02*
X00029508Y00379676D01*
X00019061Y00376282D02*
X00024151Y00378390D01*
X00014364Y00373403D02*
X00019061Y00376282D01*
X00010175Y00369825D02*
X00014364Y00373403D01*
X00006597Y00365636D02*
X00010175Y00369825D01*
X00003718Y00360939D02*
X00006597Y00365636D01*
X00001610Y00355849D02*
X00003718Y00360939D01*
X00000324Y00350492D02*
X00001610Y00355849D01*
X-00000000Y00346375D02*
X00000324Y00350492D01*
X-00000000Y00345000D02*
Y00346375D01*
Y00035000D02*
Y00345000D01*
Y00033625D02*
Y00035000D01*
Y00033625D02*
X00000324Y00029508D01*
X00001610Y00024151D01*
X00003718Y00019061D01*
X00006597Y00014364D01*
X00010175Y00010175D01*
X00014364Y00006597D01*
X00019061Y00003718D01*
X00024151Y00001610D01*
X00029508Y00000324D01*
X00033625Y-00000000D01*
X00346375D01*
X00350492Y00000324D01*
X00355849Y00001610D01*
X00360939Y00003718D01*
X00365636Y00006597D01*
X00369825Y00010175D01*
X00373403Y00014364D01*
X00376282Y00019061D01*
X00378390Y00024151D01*
X00379676Y00029508D01*
X00380000Y00033625D01*
Y00035000D01*
Y00345000D01*
Y00346375D01*
X00379676Y00350492D02*
X00380000Y00346375D01*
X00378390Y00355849D02*
X00379676Y00350492D01*
X00376282Y00360939D02*
X00378390Y00355849D01*
X00373403Y00365636D02*
X00376282Y00360939D01*
X00369825Y00369825D02*
X00373403Y00365636D01*
X00365636Y00373403D02*
X00369825Y00369825D01*
X00360939Y00376282D02*
X00365636Y00373403D01*
X00355849Y00378390D02*
X00360939Y00376282D01*
X00350492Y00379676D02*
X00355849Y00378390D01*
D38*
X00020000Y00151900D02*
D03*
Y00177300D02*
D03*
Y00202700D02*
D03*
X00360000Y00228100D02*
D03*
Y00202700D02*
D03*
Y00177300D02*
D03*
X00306070Y00306070D02*
D03*
D39*
X00057150Y00135890D02*
D03*
Y00148590D02*
D03*
Y00161290D02*
D03*
Y00173990D02*
D03*
Y00186690D02*
D03*
Y00199390D02*
D03*
Y00212090D02*
D03*
Y00224790D02*
D03*
D40*
X00266700Y00237490D02*
D03*
X00071120Y00209804D02*
D03*
X00172502Y00218440D02*
D03*
X00160020Y00203200D02*
D03*
X00161290Y00111760D02*
D03*
X00177800Y00128270D02*
D03*
X00166043Y00222758D02*
D03*
X00182500Y00238500D02*
D03*
X00190000Y00246000D02*
D03*
X00197500Y00238500D02*
D03*
X00190000Y00231000D02*
D03*
X00162219Y00229710D02*
D03*
X00158242Y00222758D02*
D03*
X00120650Y00142240D02*
D03*
X00130810Y00143510D02*
D03*
X00101600Y00154940D02*
D03*
X00109220Y00152400D02*
D03*
X00059690Y00080010D02*
D03*
X00114300Y00179070D02*
D03*
X00081280Y00027940D02*
D03*
X00129540Y00311150D02*
D03*
X00171450Y00360680D02*
D03*
X00071120Y00080010D02*
D03*
X00325120Y00102870D02*
D03*
X00250190Y00311150D02*
D03*
X00349250Y00279400D02*
D03*
X00019050Y00078740D02*
D03*
X00022860Y00132080D02*
D03*
X00147320Y00187735D02*
D03*
X00138430Y00168910D02*
D03*
X00184150Y00027940D02*
D03*
X00231140Y00046990D02*
D03*
Y00054610D02*
D03*
X00199390Y00058420D02*
D03*
X00205740D02*
D03*
X00238760Y00054610D02*
D03*
Y00046990D02*
D03*
X00138430Y00040640D02*
D03*
X00208280Y00101600D02*
D03*
X00102870Y00054610D02*
D03*
X00109220D02*
D03*
X00115570D02*
D03*
X00188730Y00153415D02*
D03*
X00184920Y00147065D02*
D03*
X00113030Y00216945D02*
D03*
X00138430Y00161290D02*
D03*
X00207780Y00216915D02*
D03*
X00182500Y00231005D02*
D03*
X00197500D02*
D03*
Y00246005D02*
D03*
X00182500D02*
D03*
X00190000Y00238505D02*
D03*
X00019050Y00279400D02*
D03*
X00266700Y00248920D02*
D03*
X00093980Y00316005D02*
D03*
X00181110Y00140715D02*
D03*
X00191770Y00114300D02*
D03*
X00198120Y00101600D02*
D03*
X00191770Y00121920D02*
D03*
X00185420Y00190275D02*
D03*
X00274320Y00165100D02*
D03*
X00136405Y00180630D02*
D03*
X00130690Y00186435D02*
D03*
X00107950Y00184150D02*
D03*
D41*
X00073000Y00119505D02*
Y00240505D01*
X00064000Y00297505D02*
X00148000D01*
X00195000D01*
X00209000Y00283505D01*
Y00265505D02*
Y00283505D01*
X00085000Y00252505D02*
X00148000D01*
X00073000Y00240505D02*
X00085000Y00252505D01*
X00073000Y00119505D02*
X00091000Y00101505D01*
X00126000D01*
X00138000Y00089505D01*
Y00070505D02*
Y00089505D01*
X00127000Y00059505D02*
X00138000Y00070505D01*
X00081000Y00059505D02*
X00127000D01*
X00029000Y00111505D02*
X00081000Y00059505D01*
X00029000Y00262505D02*
X00064000Y00297505D01*
X00029000Y00111505D02*
Y00262505D01*
X00196000Y00252505D02*
X00209000Y00265505D01*
X00148000Y00252505D02*
X00196000D01*
D42*
X00320040Y00326165D02*
X00340360Y00305845D01*
Y00140745D02*
Y00305845D01*
Y00087405D02*
Y00140745D01*
X00330200Y00077245D02*
X00340360Y00087405D01*
X00308610Y00055655D02*
X00330200Y00077245D01*
X00224790Y00055655D02*
X00308610D01*
X00210820Y00069625D02*
X00224790Y00055655D01*
X00210820Y00069625D02*
Y00095025D01*
X00227330Y00111535D01*
X00280670D01*
X00307340Y00138205D01*
Y00262665D01*
X00285750Y00284255D02*
X00307340Y00262665D01*
X00275590Y00284255D02*
X00285750D01*
X00260350Y00299495D02*
X00275590Y00284255D01*
X00260350Y00299495D02*
Y00319815D01*
X00266700Y00326165D01*
X00320040D01*
M02*
