G04 Layer_Color=13434879*
%FSAX44Y44*%
%MOMM*%
G71*
G01*
G75*
%ADD48C,0.1270*%
%ADD84C,0.1693*%
D48*
X00014920Y00146820D02*
Y00156980D01*
X00025080D01*
Y00146820D01*
X00014920D01*
Y00172220D02*
Y00182380D01*
X00025080D01*
Y00172220D01*
X00014920D01*
Y00197620D02*
Y00207780D01*
X00025080D01*
Y00197620D01*
X00014920D01*
Y00223020D02*
Y00233180D01*
X00025080D01*
Y00223020D01*
X00014920D01*
X00354920D02*
Y00233180D01*
X00365080D01*
Y00223020D01*
X00354920D01*
Y00197620D02*
Y00207780D01*
X00365080D01*
Y00197620D01*
X00354920D01*
Y00172220D02*
Y00182380D01*
X00365080D01*
Y00172220D01*
X00354920D01*
Y00146820D02*
Y00156980D01*
X00365080D01*
Y00146820D01*
X00354920D01*
X00300990Y00300990D02*
Y00311150D01*
X00311150D01*
Y00300990D01*
X00300990D01*
X00275590D02*
Y00311150D01*
X00285750D01*
Y00300990D01*
X00275590D01*
X00266700Y00232410D02*
X00261620Y00242570D01*
X00271780D01*
X00266700Y00232410D01*
X00071120Y00204724D02*
X00066040Y00214884D01*
X00076200D01*
X00071120Y00204724D01*
X00116840Y00287020D02*
X00111760Y00297180D01*
X00121920D01*
X00116840Y00287020D01*
Y00257810D02*
X00111760Y00267970D01*
X00121920D01*
X00116840Y00257810D01*
X00172502Y00213360D02*
X00167421Y00223520D01*
X00177582D01*
X00172502Y00213360D01*
X00160020Y00198120D02*
X00154940Y00208280D01*
X00165100D01*
X00160020Y00198120D01*
X00161290Y00106680D02*
X00156210Y00116840D01*
X00166370D01*
X00161290Y00106680D01*
X00177800Y00123190D02*
X00172720Y00133350D01*
X00182880D01*
X00177800Y00123190D01*
X00166043Y00217678D02*
X00160963Y00227838D01*
X00171123D01*
X00166043Y00217678D01*
X00162560Y00186690D02*
X00157480Y00196850D01*
X00167640D01*
X00162560Y00186690D01*
X00182500Y00233420D02*
X00177420Y00243580D01*
X00187580D01*
X00182500Y00233420D01*
X00190000Y00240920D02*
X00184920Y00251080D01*
X00195080D01*
X00190000Y00240920D01*
X00197500Y00233420D02*
X00192420Y00243580D01*
X00202580D01*
X00197500Y00233420D01*
X00190000Y00225920D02*
X00184920Y00236080D01*
X00195080D01*
X00190000Y00225920D01*
X00162219Y00224630D02*
X00157139Y00234790D01*
X00167299D01*
X00162219Y00224630D01*
X00158242Y00217678D02*
X00153162Y00227838D01*
X00163322D01*
X00158242Y00217678D01*
X00120650Y00137160D02*
X00115570Y00147320D01*
X00125730D01*
X00120650Y00137160D01*
X00130810Y00138430D02*
X00125730Y00148590D01*
X00135890D01*
X00130810Y00138430D01*
X00101600Y00149860D02*
X00096520Y00160020D01*
X00106680D01*
X00101600Y00149860D01*
X00109220Y00147320D02*
X00104140Y00157480D01*
X00114300D01*
X00109220Y00147320D01*
X00059690Y00074930D02*
X00054610Y00085090D01*
X00064770D01*
X00059690Y00074930D01*
X00114300Y00173990D02*
X00109220Y00184150D01*
X00119380D01*
X00114300Y00173990D01*
X00081280Y00022860D02*
X00076200Y00033020D01*
X00086360D01*
X00081280Y00022860D01*
X00222250Y00350520D02*
X00217170Y00360680D01*
X00227330D01*
X00222250Y00350520D01*
X00129540Y00306070D02*
X00124460Y00316230D01*
X00134620D01*
X00129540Y00306070D01*
X00171450Y00355600D02*
X00166370Y00365760D01*
X00176530D01*
X00171450Y00355600D01*
X00071120Y00074930D02*
X00066040Y00085090D01*
X00076200D01*
X00071120Y00074930D01*
X00325120Y00097790D02*
X00320040Y00107950D01*
X00330200D01*
X00325120Y00097790D01*
X00250190Y00306070D02*
X00245110Y00316230D01*
X00255270D01*
X00250190Y00306070D01*
X00349250Y00274320D02*
X00344170Y00284480D01*
X00354330D01*
X00349250Y00274320D01*
X00019050Y00073660D02*
X00013970Y00083820D01*
X00024130D01*
X00019050Y00073660D01*
X00022860Y00127000D02*
X00017780Y00137160D01*
X00027940D01*
X00022860Y00127000D01*
X00147320Y00182655D02*
X00142240Y00192815D01*
X00152400D01*
X00147320Y00182655D01*
X00102870Y00172720D02*
X00097790Y00182880D01*
X00107950D01*
X00102870Y00172720D01*
X00138430Y00163830D02*
X00133350Y00173990D01*
X00143510D01*
X00138430Y00163830D01*
X00039370Y00073660D02*
X00034290Y00083820D01*
X00044450D01*
X00039370Y00073660D01*
X00184150Y00022860D02*
X00179070Y00033020D01*
X00189230D01*
X00184150Y00022860D01*
X00067310Y00113030D02*
X00062230Y00123190D01*
X00072390D01*
X00067310Y00113030D01*
X00259080Y00100330D02*
X00254000Y00110490D01*
X00264160D01*
X00259080Y00100330D01*
X00231140Y00041910D02*
X00226060Y00052070D01*
X00236220D01*
X00231140Y00041910D01*
Y00049530D02*
X00226060Y00059690D01*
X00236220D01*
X00231140Y00049530D01*
X00199390Y00053340D02*
X00194310Y00063500D01*
X00204470D01*
X00199390Y00053340D01*
X00205740D02*
X00200660Y00063500D01*
X00210820D01*
X00205740Y00053340D01*
X00238760Y00049530D02*
X00233680Y00059690D01*
X00243840D01*
X00238760Y00049530D01*
X00181610Y00053340D02*
X00176530Y00063500D01*
X00186690D01*
X00181610Y00053340D01*
X00238760Y00041910D02*
X00233680Y00052070D01*
X00243840D01*
X00238760Y00041910D01*
X00138430Y00035560D02*
X00133350Y00045720D01*
X00143510D01*
X00138430Y00035560D01*
X00208280Y00096520D02*
X00203200Y00106680D01*
X00213360D01*
X00208280Y00096520D01*
X00102870Y00049530D02*
X00097790Y00059690D01*
X00107950D01*
X00102870Y00049530D01*
X00109220D02*
X00104140Y00059690D01*
X00114300D01*
X00109220Y00049530D01*
X00115570D02*
X00110490Y00059690D01*
X00120650D01*
X00115570Y00049530D01*
X00259080Y00093980D02*
X00254000Y00104140D01*
X00264160D01*
X00259080Y00093980D01*
X00100330Y00083820D02*
X00095250Y00093980D01*
X00105410D01*
X00100330Y00083820D01*
X00110490D02*
X00105410Y00093980D01*
X00115570D01*
X00110490Y00083820D01*
Y00064770D02*
X00105410Y00074930D01*
X00115570D01*
X00110490Y00064770D01*
X00100330D02*
X00095250Y00074930D01*
X00105410D01*
X00100330Y00064770D01*
X00188730Y00148335D02*
X00183650Y00158495D01*
X00193810D01*
X00188730Y00148335D01*
X00184920Y00141985D02*
X00179840Y00152145D01*
X00190000D01*
X00184920Y00141985D01*
X00102870Y00287020D02*
X00097790Y00297180D01*
X00107950D01*
X00102870Y00287020D01*
Y00257810D02*
X00097790Y00267970D01*
X00107950D01*
X00102870Y00257810D01*
X00091440D02*
X00086360Y00267970D01*
X00096520D01*
X00091440Y00257810D01*
Y00287020D02*
X00086360Y00297180D01*
X00096520D01*
X00091440Y00287020D01*
X00113030Y00211865D02*
X00107950Y00222025D01*
X00118110D01*
X00113030Y00211865D01*
X00219710Y00144555D02*
X00214630Y00154715D01*
X00224790D01*
X00219710Y00144555D01*
X00138430Y00156210D02*
X00133350Y00166370D01*
X00143510D01*
X00138430Y00156210D01*
X00207780Y00211835D02*
X00202700Y00221995D01*
X00212860D01*
X00207780Y00211835D01*
X00194000Y00270256D02*
X00188920Y00280416D01*
X00199080D01*
X00194000Y00270256D01*
X00186000D02*
X00180920Y00280416D01*
X00191080D01*
X00186000Y00270256D01*
X00190000Y00263144D02*
X00184920Y00273304D01*
X00195080D01*
X00190000Y00263144D01*
X00182500Y00225925D02*
X00177420Y00236085D01*
X00187580D01*
X00182500Y00225925D01*
X00197500D02*
X00192420Y00236085D01*
X00202580D01*
X00197500Y00225925D01*
Y00240925D02*
X00192420Y00251085D01*
X00202580D01*
X00197500Y00240925D01*
X00182500D02*
X00177420Y00251085D01*
X00187580D01*
X00182500Y00240925D01*
X00190000Y00233425D02*
X00184920Y00243585D01*
X00195080D01*
X00190000Y00233425D01*
X00019050Y00274320D02*
X00013970Y00284480D01*
X00024130D01*
X00019050Y00274320D01*
X00138430Y00240030D02*
X00133350Y00250190D01*
X00143510D01*
X00138430Y00240030D01*
X00266700Y00243840D02*
X00261620Y00254000D01*
X00271780D01*
X00266700Y00243840D01*
X00298450Y00246380D02*
X00293370Y00256540D01*
X00303530D01*
X00298450Y00246380D01*
X00093980Y00310925D02*
X00088900Y00321085D01*
X00099060D01*
X00093980Y00310925D01*
X00109220Y00351565D02*
X00104140Y00361725D01*
X00114300D01*
X00109220Y00351565D01*
X00298450Y00033020D02*
X00293370Y00043180D01*
X00303530D01*
X00298450Y00033020D01*
X00181110Y00135635D02*
X00176030Y00145795D01*
X00186190D01*
X00181110Y00135635D01*
X00083820Y00111760D02*
X00078740Y00121920D01*
X00088900D01*
X00083820Y00111760D01*
X00191770Y00109220D02*
X00186690Y00119380D01*
X00196850D01*
X00191770Y00109220D01*
X00198120Y00096520D02*
X00193040Y00106680D01*
X00203200D01*
X00198120Y00096520D01*
X00176530Y00097536D02*
X00171450Y00107696D01*
X00181610D01*
X00176530Y00097536D01*
X00184150D02*
X00179070Y00107696D01*
X00189230D01*
X00184150Y00097536D01*
X00191770Y00116840D02*
X00186690Y00127000D01*
X00196850D01*
X00191770Y00116840D01*
X00185420Y00185195D02*
X00180340Y00195355D01*
X00190500D01*
X00185420Y00185195D01*
X00231140Y00179070D02*
X00226060Y00189230D01*
X00236220D01*
X00231140Y00179070D01*
X00274320Y00160020D02*
X00269240Y00170180D01*
X00279400D01*
X00274320Y00160020D01*
X00136405Y00175550D02*
X00131325Y00185710D01*
X00141485D01*
X00136405Y00175550D01*
X00130690Y00181355D02*
X00125610Y00191515D01*
X00135770D01*
X00130690Y00181355D01*
X00107950Y00179070D02*
X00102870Y00189230D01*
X00113030D01*
X00107950Y00179070D01*
D84*
X00062230Y00135890D02*
G03*
X00062230Y00135890I-00005080J00000000D01*
G01*
Y00148590D02*
G03*
X00062230Y00148590I-00005080J00000000D01*
G01*
Y00161290D02*
G03*
X00062230Y00161290I-00005080J00000000D01*
G01*
Y00173990D02*
G03*
X00062230Y00173990I-00005080J00000000D01*
G01*
Y00186690D02*
G03*
X00062230Y00186690I-00005080J00000000D01*
G01*
Y00199390D02*
G03*
X00062230Y00199390I-00005080J00000000D01*
G01*
Y00212090D02*
G03*
X00062230Y00212090I-00005080J00000000D01*
G01*
Y00224790D02*
G03*
X00062230Y00224790I-00005080J00000000D01*
G01*
M02*
