G04 Layer_Color=16770453*
%FSAX44Y44*%
%MOMM*%
G71*
G01*
G75*
%ADD16R,0.9000X1.3500*%
%ADD17R,0.7000X0.9000*%
%ADD18R,0.9000X0.7000*%
%ADD19R,0.9000X1.0000*%
%ADD20R,1.0000X0.9000*%
%ADD43R,1.3000X1.8000*%
%ADD44R,0.6096X1.1684*%
%ADD45R,1.2500X1.3500*%
%ADD46R,0.7700X0.9800*%
%ADD47R,0.9906X0.3048*%
D16*
X00228190Y00082100D02*
D03*
X00208690D02*
D03*
X00105000Y00079785D02*
D03*
X00085500D02*
D03*
D17*
X00350900Y00126775D02*
D03*
X00334900D02*
D03*
X00334900Y00111535D02*
D03*
X00350900D02*
D03*
X00141350Y00282985D02*
D03*
X00125350D02*
D03*
X00263780Y00027490D02*
D03*
X00279780D02*
D03*
X00138050Y00027715D02*
D03*
X00154050D02*
D03*
D18*
X00045720Y00108685D02*
D03*
Y00092685D02*
D03*
X00060960Y00092685D02*
D03*
Y00108685D02*
D03*
X00144780Y00223295D02*
D03*
Y00207295D02*
D03*
Y00235235D02*
D03*
Y00251235D02*
D03*
X00106680Y00229265D02*
D03*
Y00245265D02*
D03*
X00234950Y00216790D02*
D03*
Y00232790D02*
D03*
X00226060Y00322200D02*
D03*
Y00338200D02*
D03*
X00241300Y00322200D02*
D03*
Y00338200D02*
D03*
D19*
X00091840Y00194310D02*
D03*
X00078340D02*
D03*
X00091840Y00180340D02*
D03*
X00078340D02*
D03*
X00113430Y00129315D02*
D03*
X00099930D02*
D03*
X00113430Y00142240D02*
D03*
X00099930D02*
D03*
X00127870Y00128045D02*
D03*
X00141370D02*
D03*
X00113430Y00115345D02*
D03*
X00099930D02*
D03*
X00245010Y00149605D02*
D03*
X00231510D02*
D03*
X00349650Y00089945D02*
D03*
X00336150D02*
D03*
X00232810Y00027490D02*
D03*
X00219310D02*
D03*
X00107080Y00027715D02*
D03*
X00093580D02*
D03*
X00243440Y00199165D02*
D03*
X00256940D02*
D03*
D20*
X00087630Y00142640D02*
D03*
Y00129140D02*
D03*
X00026670Y00093580D02*
D03*
Y00107080D02*
D03*
X00125730Y00242970D02*
D03*
Y00229470D02*
D03*
X00162560Y00339735D02*
D03*
Y00353235D02*
D03*
X00147320Y00339735D02*
D03*
Y00353235D02*
D03*
X00294640Y00059290D02*
D03*
Y00072790D02*
D03*
X00160020Y00079140D02*
D03*
Y00065640D02*
D03*
D43*
X00162030Y00293115D02*
D03*
X00190030D02*
D03*
D44*
X00179596Y00354130D02*
D03*
X00189248D02*
D03*
X00198748D02*
D03*
Y00328930D02*
D03*
X00179596D02*
D03*
X00270002Y00056900D02*
D03*
X00260350D02*
D03*
X00250850D02*
D03*
Y00082100D02*
D03*
X00270002D02*
D03*
X00141732Y00054585D02*
D03*
X00132080D02*
D03*
X00122580D02*
D03*
Y00079785D02*
D03*
X00141732D02*
D03*
D45*
X00308250Y00278505D02*
D03*
X00279750D02*
D03*
D46*
X00141770Y00115345D02*
D03*
X00127470D02*
D03*
D47*
X00160790Y00209500D02*
D03*
Y00203000D02*
D03*
Y00196500D02*
D03*
Y00190000D02*
D03*
Y00183396D02*
D03*
Y00176792D02*
D03*
Y00170442D02*
D03*
X00219178D02*
D03*
Y00176792D02*
D03*
Y00183396D02*
D03*
Y00190000D02*
D03*
Y00196500D02*
D03*
Y00203000D02*
D03*
Y00209500D02*
D03*
M02*
