G04 Layer_Color=8150272*
%FSAX44Y44*%
%MOMM*%
G71*
G01*
G75*
%ADD60R,1.1032X1.5532*%
%ADD61R,0.9032X1.1032*%
%ADD62R,1.1032X0.9032*%
%ADD63R,1.1032X1.2032*%
%ADD64R,1.2032X1.1032*%
%ADD72O,2.9464X1.5748*%
%ADD73O,1.5748X2.9464*%
%ADD74C,1.2032*%
%ADD75R,1.2032X1.2032*%
%ADD76C,0.8382*%
%ADD77C,0.8128*%
%ADD78R,1.5032X2.0032*%
%ADD79R,0.8128X1.3716*%
%ADD80R,1.4532X1.5532*%
%ADD81R,0.9732X1.1832*%
%ADD82R,1.1938X0.5080*%
D60*
X00228190Y00082100D02*
D03*
X00208690D02*
D03*
X00105000Y00079785D02*
D03*
X00085500D02*
D03*
D61*
X00350900Y00126775D02*
D03*
X00334900D02*
D03*
X00334900Y00111535D02*
D03*
X00350900D02*
D03*
X00141350Y00282985D02*
D03*
X00125350D02*
D03*
X00263780Y00027490D02*
D03*
X00279780D02*
D03*
X00138050Y00027715D02*
D03*
X00154050D02*
D03*
D62*
X00045720Y00108685D02*
D03*
Y00092685D02*
D03*
X00060960Y00092685D02*
D03*
Y00108685D02*
D03*
X00144780Y00223295D02*
D03*
Y00207295D02*
D03*
Y00235235D02*
D03*
Y00251235D02*
D03*
X00106680Y00229265D02*
D03*
Y00245265D02*
D03*
X00234950Y00216790D02*
D03*
Y00232790D02*
D03*
X00226060Y00322200D02*
D03*
Y00338200D02*
D03*
X00241300Y00322200D02*
D03*
Y00338200D02*
D03*
D63*
X00091840Y00194310D02*
D03*
X00078340D02*
D03*
X00091840Y00180340D02*
D03*
X00078340D02*
D03*
X00113430Y00129315D02*
D03*
X00099930D02*
D03*
X00113430Y00142240D02*
D03*
X00099930D02*
D03*
X00127870Y00128045D02*
D03*
X00141370D02*
D03*
X00113430Y00115345D02*
D03*
X00099930D02*
D03*
X00245010Y00149605D02*
D03*
X00231510D02*
D03*
X00349650Y00089945D02*
D03*
X00336150D02*
D03*
X00232810Y00027490D02*
D03*
X00219310D02*
D03*
X00107080Y00027715D02*
D03*
X00093580D02*
D03*
X00243440Y00199165D02*
D03*
X00256940D02*
D03*
D64*
X00087630Y00142640D02*
D03*
Y00129140D02*
D03*
X00026670Y00093580D02*
D03*
Y00107080D02*
D03*
X00125730Y00242970D02*
D03*
Y00229470D02*
D03*
X00162560Y00339735D02*
D03*
Y00353235D02*
D03*
X00147320Y00339735D02*
D03*
Y00353235D02*
D03*
X00294640Y00059290D02*
D03*
Y00072790D02*
D03*
X00160020Y00079140D02*
D03*
Y00065640D02*
D03*
D72*
X00020000Y00151900D02*
D03*
Y00177300D02*
D03*
Y00202700D02*
D03*
Y00228100D02*
D03*
X00360000D02*
D03*
Y00202700D02*
D03*
Y00177300D02*
D03*
Y00151900D02*
D03*
D73*
X00306070Y00306070D02*
D03*
X00280670D02*
D03*
D74*
X00057150Y00135890D02*
D03*
Y00148590D02*
D03*
Y00161290D02*
D03*
Y00173990D02*
D03*
Y00186690D02*
D03*
Y00199390D02*
D03*
Y00212090D02*
D03*
D75*
Y00224790D02*
D03*
D76*
X00266700Y00237490D02*
D03*
X00071120Y00209804D02*
D03*
X00116840Y00292100D02*
D03*
Y00262890D02*
D03*
X00172502Y00218440D02*
D03*
X00160020Y00203200D02*
D03*
X00161290Y00111760D02*
D03*
X00177800Y00128270D02*
D03*
X00166043Y00222758D02*
D03*
X00162560Y00191770D02*
D03*
X00182500Y00238500D02*
D03*
X00190000Y00246000D02*
D03*
X00197500Y00238500D02*
D03*
X00190000Y00231000D02*
D03*
X00162219Y00229710D02*
D03*
X00158242Y00222758D02*
D03*
X00120650Y00142240D02*
D03*
X00130810Y00143510D02*
D03*
X00101600Y00154940D02*
D03*
X00109220Y00152400D02*
D03*
X00059690Y00080010D02*
D03*
X00114300Y00179070D02*
D03*
X00081280Y00027940D02*
D03*
X00222250Y00355600D02*
D03*
X00129540Y00311150D02*
D03*
X00171450Y00360680D02*
D03*
X00071120Y00080010D02*
D03*
X00325120Y00102870D02*
D03*
X00250190Y00311150D02*
D03*
X00349250Y00279400D02*
D03*
X00019050Y00078740D02*
D03*
X00022860Y00132080D02*
D03*
X00147320Y00187735D02*
D03*
X00102870Y00177800D02*
D03*
X00138430Y00168910D02*
D03*
X00039370Y00078740D02*
D03*
X00184150Y00027940D02*
D03*
X00067310Y00118110D02*
D03*
X00259080Y00105410D02*
D03*
X00231140Y00046990D02*
D03*
Y00054610D02*
D03*
X00199390Y00058420D02*
D03*
X00205740D02*
D03*
X00238760Y00054610D02*
D03*
X00181610Y00058420D02*
D03*
X00238760Y00046990D02*
D03*
X00138430Y00040640D02*
D03*
X00208280Y00101600D02*
D03*
X00102870Y00054610D02*
D03*
X00109220D02*
D03*
X00115570D02*
D03*
X00259080Y00099060D02*
D03*
X00100330Y00088900D02*
D03*
X00110490D02*
D03*
Y00069850D02*
D03*
X00100330D02*
D03*
X00102870Y00292100D02*
D03*
Y00262890D02*
D03*
X00091440D02*
D03*
Y00292100D02*
D03*
X00113030Y00216945D02*
D03*
X00219710Y00149635D02*
D03*
X00138430Y00161290D02*
D03*
X00207780Y00216915D02*
D03*
X00194000Y00275336D02*
D03*
X00186000D02*
D03*
X00190000Y00268224D02*
D03*
X00182500Y00231005D02*
D03*
X00197500D02*
D03*
Y00246005D02*
D03*
X00182500D02*
D03*
X00190000Y00238505D02*
D03*
X00019050Y00279400D02*
D03*
X00138430Y00245110D02*
D03*
X00266700Y00248920D02*
D03*
X00298450Y00251460D02*
D03*
X00093980Y00316005D02*
D03*
X00109220Y00356645D02*
D03*
X00298450Y00038100D02*
D03*
X00083820Y00116840D02*
D03*
X00191770Y00114300D02*
D03*
X00198120Y00101600D02*
D03*
X00176530Y00102616D02*
D03*
X00184150D02*
D03*
X00191770Y00121920D02*
D03*
X00185420Y00190275D02*
D03*
X00231140Y00184150D02*
D03*
X00274320Y00165100D02*
D03*
X00136405Y00180630D02*
D03*
X00130690Y00186435D02*
D03*
X00107950Y00184150D02*
D03*
D77*
X00188730Y00153415D02*
D03*
X00184920Y00147065D02*
D03*
X00181110Y00140715D02*
D03*
D78*
X00162030Y00293115D02*
D03*
X00190030D02*
D03*
D79*
X00179596Y00354130D02*
D03*
X00189248D02*
D03*
X00198748D02*
D03*
Y00328930D02*
D03*
X00179596D02*
D03*
X00270002Y00056900D02*
D03*
X00260350D02*
D03*
X00250850D02*
D03*
Y00082100D02*
D03*
X00270002D02*
D03*
X00141732Y00054585D02*
D03*
X00132080D02*
D03*
X00122580D02*
D03*
Y00079785D02*
D03*
X00141732D02*
D03*
D80*
X00308250Y00278505D02*
D03*
X00279750D02*
D03*
D81*
X00141770Y00115345D02*
D03*
X00127470D02*
D03*
D82*
X00160790Y00209500D02*
D03*
Y00203000D02*
D03*
Y00196500D02*
D03*
Y00190000D02*
D03*
Y00183396D02*
D03*
Y00176792D02*
D03*
Y00170442D02*
D03*
X00219178D02*
D03*
Y00176792D02*
D03*
Y00183396D02*
D03*
Y00190000D02*
D03*
Y00196500D02*
D03*
Y00203000D02*
D03*
Y00209500D02*
D03*
M02*
