G04 Layer_Color=128*
%FSAX44Y44*%
%MOMM*%
G71*
G01*
G75*
%ADD48C,0.1270*%
D48*
X00015428Y00151900D02*
X00024572D01*
X00020000Y00147328D02*
Y00156472D01*
X00015428Y00177300D02*
X00024572D01*
X00020000Y00172728D02*
Y00181872D01*
X00015428Y00202700D02*
X00024572D01*
X00020000Y00198128D02*
Y00207272D01*
X00015428Y00228100D02*
X00024572D01*
X00020000Y00223528D02*
Y00232672D01*
X00355428Y00228100D02*
X00364572D01*
X00360000Y00223528D02*
Y00232672D01*
X00355428Y00202700D02*
X00364572D01*
X00360000Y00198128D02*
Y00207272D01*
X00355428Y00177300D02*
X00364572D01*
X00360000Y00172728D02*
Y00181872D01*
X00355428Y00151900D02*
X00364572D01*
X00360000Y00147328D02*
Y00156472D01*
X00301498Y00306070D02*
X00310642D01*
X00306070Y00301498D02*
Y00310642D01*
X00276098Y00306070D02*
X00285242D01*
X00280670Y00301498D02*
Y00310642D01*
X00054150Y00135890D02*
X00060150D01*
X00057150Y00132890D02*
Y00138890D01*
X00054150Y00148590D02*
X00060150D01*
X00057150Y00145590D02*
Y00151590D01*
X00054150Y00161290D02*
X00060150D01*
X00057150Y00158290D02*
Y00164290D01*
X00054150Y00173990D02*
X00060150D01*
X00057150Y00170990D02*
Y00176990D01*
X00054150Y00186690D02*
X00060150D01*
X00057150Y00183690D02*
Y00189690D01*
X00054150Y00199390D02*
X00060150D01*
X00057150Y00196390D02*
Y00202390D01*
X00054150Y00212090D02*
X00060150D01*
X00057150Y00209090D02*
Y00215090D01*
X00054150Y00224790D02*
X00060150D01*
X00057150Y00221790D02*
Y00227790D01*
X00265176Y00237490D02*
X00268224D01*
X00266700Y00235966D02*
Y00239014D01*
X00069596Y00209804D02*
X00072644D01*
X00071120Y00208280D02*
Y00211328D01*
X00115316Y00292100D02*
X00118364D01*
X00116840Y00290576D02*
Y00293624D01*
X00115316Y00262890D02*
X00118364D01*
X00116840Y00261366D02*
Y00264414D01*
X00170977Y00218440D02*
X00174025D01*
X00172502Y00216916D02*
Y00219964D01*
X00158496Y00203200D02*
X00161544D01*
X00160020Y00201676D02*
Y00204724D01*
X00159766Y00111760D02*
X00162814D01*
X00161290Y00110236D02*
Y00113284D01*
X00176276Y00128270D02*
X00179324D01*
X00177800Y00126746D02*
Y00129794D01*
X00164519Y00222758D02*
X00167567D01*
X00166043Y00221234D02*
Y00224282D01*
X00161036Y00191770D02*
X00164084D01*
X00162560Y00190246D02*
Y00193294D01*
X00180976Y00238500D02*
X00184024D01*
X00182500Y00236976D02*
Y00240024D01*
X00188476Y00246000D02*
X00191524D01*
X00190000Y00244476D02*
Y00247524D01*
X00195976Y00238500D02*
X00199024D01*
X00197500Y00236976D02*
Y00240024D01*
X00188476Y00231000D02*
X00191524D01*
X00190000Y00229476D02*
Y00232524D01*
X00160695Y00229710D02*
X00163743D01*
X00162219Y00228186D02*
Y00231234D01*
X00156718Y00222758D02*
X00159766D01*
X00158242Y00221234D02*
Y00224282D01*
X00119126Y00142240D02*
X00122174D01*
X00120650Y00140716D02*
Y00143764D01*
X00129286Y00143510D02*
X00132334D01*
X00130810Y00141986D02*
Y00145034D01*
X00100076Y00154940D02*
X00103124D01*
X00101600Y00153416D02*
Y00156464D01*
X00107696Y00152400D02*
X00110744D01*
X00109220Y00150876D02*
Y00153924D01*
X00058166Y00080010D02*
X00061214D01*
X00059690Y00078486D02*
Y00081534D01*
X00112776Y00179070D02*
X00115824D01*
X00114300Y00177546D02*
Y00180594D01*
X00079756Y00027940D02*
X00082804D01*
X00081280Y00026416D02*
Y00029464D01*
X00220726Y00355600D02*
X00223774D01*
X00222250Y00354076D02*
Y00357124D01*
X00128016Y00311150D02*
X00131064D01*
X00129540Y00309626D02*
Y00312674D01*
X00169926Y00360680D02*
X00172974D01*
X00171450Y00359156D02*
Y00362204D01*
X00069596Y00080010D02*
X00072644D01*
X00071120Y00078486D02*
Y00081534D01*
X00323596Y00102870D02*
X00326644D01*
X00325120Y00101346D02*
Y00104394D01*
X00248666Y00311150D02*
X00251714D01*
X00250190Y00309626D02*
Y00312674D01*
X00347726Y00279400D02*
X00350774D01*
X00349250Y00277876D02*
Y00280924D01*
X00017526Y00078740D02*
X00020574D01*
X00019050Y00077216D02*
Y00080264D01*
X00021336Y00132080D02*
X00024384D01*
X00022860Y00130556D02*
Y00133604D01*
X00145796Y00187735D02*
X00148844D01*
X00147320Y00186211D02*
Y00189259D01*
X00101346Y00177800D02*
X00104394D01*
X00102870Y00176276D02*
Y00179324D01*
X00136906Y00168910D02*
X00139954D01*
X00138430Y00167386D02*
Y00170434D01*
X00037846Y00078740D02*
X00040894D01*
X00039370Y00077216D02*
Y00080264D01*
X00182626Y00027940D02*
X00185674D01*
X00184150Y00026416D02*
Y00029464D01*
X00065786Y00118110D02*
X00068834D01*
X00067310Y00116586D02*
Y00119634D01*
X00257556Y00105410D02*
X00260604D01*
X00259080Y00103886D02*
Y00106934D01*
X00229616Y00046990D02*
X00232664D01*
X00231140Y00045466D02*
Y00048514D01*
X00229616Y00054610D02*
X00232664D01*
X00231140Y00053086D02*
Y00056134D01*
X00197866Y00058420D02*
X00200914D01*
X00199390Y00056896D02*
Y00059944D01*
X00204216Y00058420D02*
X00207264D01*
X00205740Y00056896D02*
Y00059944D01*
X00237236Y00054610D02*
X00240284D01*
X00238760Y00053086D02*
Y00056134D01*
X00180086Y00058420D02*
X00183134D01*
X00181610Y00056896D02*
Y00059944D01*
X00237236Y00046990D02*
X00240284D01*
X00238760Y00045466D02*
Y00048514D01*
X00136906Y00040640D02*
X00139954D01*
X00138430Y00039116D02*
Y00042164D01*
X00206756Y00101600D02*
X00209804D01*
X00208280Y00100076D02*
Y00103124D01*
X00101346Y00054610D02*
X00104394D01*
X00102870Y00053086D02*
Y00056134D01*
X00107696Y00054610D02*
X00110744D01*
X00109220Y00053086D02*
Y00056134D01*
X00114046Y00054610D02*
X00117094D01*
X00115570Y00053086D02*
Y00056134D01*
X00257556Y00099060D02*
X00260604D01*
X00259080Y00097536D02*
Y00100584D01*
X00098806Y00088900D02*
X00101854D01*
X00100330Y00087376D02*
Y00090424D01*
X00108966Y00088900D02*
X00112014D01*
X00110490Y00087376D02*
Y00090424D01*
X00108966Y00069850D02*
X00112014D01*
X00110490Y00068326D02*
Y00071374D01*
X00098806Y00069850D02*
X00101854D01*
X00100330Y00068326D02*
Y00071374D01*
X00187206Y00153415D02*
X00190254D01*
X00188730Y00151891D02*
Y00154939D01*
X00183396Y00147065D02*
X00186444D01*
X00184920Y00145541D02*
Y00148589D01*
X00101346Y00292100D02*
X00104394D01*
X00102870Y00290576D02*
Y00293624D01*
X00101346Y00262890D02*
X00104394D01*
X00102870Y00261366D02*
Y00264414D01*
X00089916Y00262890D02*
X00092964D01*
X00091440Y00261366D02*
Y00264414D01*
X00089916Y00292100D02*
X00092964D01*
X00091440Y00290576D02*
Y00293624D01*
X00111506Y00216945D02*
X00114554D01*
X00113030Y00215421D02*
Y00218469D01*
X00218186Y00149635D02*
X00221234D01*
X00219710Y00148111D02*
Y00151159D01*
X00136906Y00161290D02*
X00139954D01*
X00138430Y00159766D02*
Y00162814D01*
X00206256Y00216915D02*
X00209304D01*
X00207780Y00215391D02*
Y00218439D01*
X00192476Y00275336D02*
X00195524D01*
X00194000Y00273812D02*
Y00276860D01*
X00184476Y00275336D02*
X00187524D01*
X00186000Y00273812D02*
Y00276860D01*
X00188476Y00268224D02*
X00191524D01*
X00190000Y00266700D02*
Y00269748D01*
X00180976Y00231005D02*
X00184024D01*
X00182500Y00229481D02*
Y00232529D01*
X00195976Y00231005D02*
X00199024D01*
X00197500Y00229481D02*
Y00232529D01*
X00195976Y00246005D02*
X00199024D01*
X00197500Y00244481D02*
Y00247529D01*
X00180976Y00246005D02*
X00184024D01*
X00182500Y00244481D02*
Y00247529D01*
X00188476Y00238505D02*
X00191524D01*
X00190000Y00236981D02*
Y00240029D01*
X00017526Y00279400D02*
X00020574D01*
X00019050Y00277876D02*
Y00280924D01*
X00136906Y00245110D02*
X00139954D01*
X00138430Y00243586D02*
Y00246634D01*
X00265176Y00248920D02*
X00268224D01*
X00266700Y00247396D02*
Y00250444D01*
X00296926Y00251460D02*
X00299974D01*
X00298450Y00249936D02*
Y00252984D01*
X00092456Y00316005D02*
X00095504D01*
X00093980Y00314481D02*
Y00317529D01*
X00107696Y00356645D02*
X00110744D01*
X00109220Y00355121D02*
Y00358169D01*
X00296926Y00038100D02*
X00299974D01*
X00298450Y00036576D02*
Y00039624D01*
X00179586Y00140715D02*
X00182634D01*
X00181110Y00139191D02*
Y00142239D01*
X00082296Y00116840D02*
X00085344D01*
X00083820Y00115316D02*
Y00118364D01*
X00190246Y00114300D02*
X00193294D01*
X00191770Y00112776D02*
Y00115824D01*
X00196596Y00101600D02*
X00199644D01*
X00198120Y00100076D02*
Y00103124D01*
X00175006Y00102616D02*
X00178054D01*
X00176530Y00101092D02*
Y00104140D01*
X00182626Y00102616D02*
X00185674D01*
X00184150Y00101092D02*
Y00104140D01*
X00190246Y00121920D02*
X00193294D01*
X00191770Y00120396D02*
Y00123444D01*
X00183896Y00190275D02*
X00186944D01*
X00185420Y00188751D02*
Y00191799D01*
X00229616Y00184150D02*
X00232664D01*
X00231140Y00182626D02*
Y00185674D01*
X00272796Y00165100D02*
X00275844D01*
X00274320Y00163576D02*
Y00166624D01*
X00134881Y00180630D02*
X00137929D01*
X00136405Y00179106D02*
Y00182154D01*
X00129166Y00186435D02*
X00132214D01*
X00130690Y00184911D02*
Y00187959D01*
X00106426Y00184150D02*
X00109474D01*
X00107950Y00182626D02*
Y00185674D01*
M02*
